<svg width="48" height="30" viewBox="0 0 48 30" fill="none" xmlns="http://www.w3.org/2000/svg">
<rect y="0.00195312" width="48" height="30" rx="4" fill="#231F20"/>
<path fill-rule="evenodd" clip-rule="evenodd" d="M27.5417 17.9546C25.8066 19.1901 23.291 19.8471 21.1248 19.8471C18.0896 19.8471 15.3555 18.765 13.287 16.9622C13.1245 16.8207 13.2695 16.6275 13.4646 16.7371C15.696 17.9899 18.4559 18.745 21.3068 18.745C23.2303 18.745 25.3441 18.3598 27.2894 17.5636C27.5826 17.4436 27.8286 17.7503 27.5417 17.9546Z" fill="#FF9900"/>
<path fill-rule="evenodd" clip-rule="evenodd" d="M28.4606 17.1596C28.2385 16.8855 26.994 17.03 26.4346 17.0944C26.2649 17.1136 26.2387 16.9714 26.3917 16.8675C27.385 16.1947 29.0117 16.3891 29.2012 16.6145C29.3916 16.8414 29.1516 18.4158 28.2206 19.1671C28.0772 19.2829 27.9413 19.2211 28.0049 19.0678C28.2143 18.5637 28.6835 17.434 28.4606 17.1596Z" fill="#FF9900"/>
<path fill-rule="evenodd" clip-rule="evenodd" d="M32.2772 11.209C33.6491 11.209 34.3902 12.346 34.3902 13.7904C34.3902 15.1865 33.5713 16.2943 32.2772 16.2943C30.9306 16.2943 30.1975 15.1573 30.1975 13.7421C30.1975 12.3164 30.9393 11.209 32.2772 11.209ZM32.2855 12.1436C31.6037 12.1436 31.5612 13.039 31.5612 13.5979C31.5612 14.1561 31.552 15.3505 32.2772 15.3505C32.9935 15.3505 33.0273 14.3872 33.0273 13.7999C33.0273 13.4143 33.0102 12.952 32.8898 12.5859C32.7861 12.2685 32.5787 12.1436 32.2855 12.1436Z" fill="white"/>
<path fill-rule="evenodd" clip-rule="evenodd" d="M36.1699 16.1977H35.2489C35.1563 16.1919 35.0832 16.121 35.0832 16.0332L35.082 11.4551C35.0896 11.3711 35.1663 11.3056 35.2592 11.3056H36.1163C36.1969 11.3098 36.2633 11.3627 36.2808 11.4336V12.1336H36.2979C36.5569 11.508 36.9193 11.209 37.5578 11.209C37.9714 11.209 38.3775 11.3535 38.6362 11.7487C38.8778 12.114 38.8778 12.7308 38.8778 13.174V16.0536C38.8674 16.1348 38.7923 16.1977 38.7009 16.1977H37.7744C37.6885 16.1923 37.619 16.1318 37.6091 16.0536V13.5692C37.6091 13.0678 37.6695 12.336 37.0314 12.336C36.8073 12.336 36.5994 12.4801 36.4961 12.7021C36.367 12.9815 36.3495 13.2606 36.3495 13.5692V16.0332C36.3479 16.1241 36.2685 16.1977 36.1699 16.1977Z" fill="white"/>
<path fill-rule="evenodd" clip-rule="evenodd" d="M26.2768 12.1128V11.4592C26.2772 11.3599 26.355 11.2936 26.4488 11.2936L29.4868 11.2932C29.5838 11.2932 29.6616 11.3614 29.6624 11.4584L29.6616 12.0189C29.6608 12.1132 29.579 12.2366 29.4328 12.4309L27.8589 14.5987C28.4438 14.5857 29.0613 14.67 29.5921 14.9579C29.7121 15.0223 29.7443 15.1185 29.753 15.2128V15.9108C29.753 16.0067 29.6442 16.1178 29.5297 16.06C28.5948 15.5877 27.3535 15.5359 26.3201 16.0657C26.2144 16.1201 26.1035 16.0105 26.1035 15.9143V15.2504C26.1035 15.1453 26.1055 14.9632 26.2168 14.8015L28.0397 12.278L26.4524 12.2776C26.355 12.2776 26.2775 12.2109 26.2768 12.1128Z" fill="white"/>
<path fill-rule="evenodd" clip-rule="evenodd" d="M23.8549 14.0123C23.8549 14.36 23.8633 14.6494 23.6821 14.9584C23.5355 15.2091 23.3018 15.3636 23.0424 15.3636C22.6876 15.3636 22.4801 15.1029 22.4801 14.7172C22.4801 13.9571 23.1862 13.8191 23.8549 13.8191V14.0123ZM24.7863 16.1862C24.7251 16.2391 24.6373 16.2425 24.5685 16.2069C24.2614 15.9612 24.2066 15.8469 24.0389 15.6127C23.5315 16.1118 23.1719 16.2606 22.5151 16.2606C21.7367 16.2606 21.1316 15.7979 21.1316 14.871C21.1316 14.1476 21.5377 13.655 22.117 13.4131C22.6184 13.2015 23.3185 13.1628 23.8549 13.1049V12.9892C23.8549 12.7768 23.872 12.5261 23.7429 12.3425C23.63 12.1784 23.4143 12.111 23.2236 12.111C22.8715 12.111 22.558 12.2854 22.4809 12.6461C22.465 12.7262 22.4039 12.8059 22.3204 12.8102L21.4244 12.717C21.3485 12.7001 21.2647 12.6419 21.2866 12.5299C21.4924 11.4815 22.4742 11.1653 23.3531 11.1653C23.8033 11.1653 24.3909 11.281 24.7457 11.6092C25.1947 12.0144 25.1522 12.5549 25.1522 13.1437V14.5325C25.1522 14.9511 25.3322 15.1339 25.5011 15.3589C25.5595 15.4402 25.5734 15.5368 25.4979 15.5958C25.3092 15.7488 24.9738 16.0302 24.789 16.1885L24.7863 16.1862Z" fill="white"/>
<path fill-rule="evenodd" clip-rule="evenodd" d="M15.1947 16.1977H14.2705C14.1827 16.1923 14.112 16.1283 14.1052 16.047L14.106 11.4704C14.106 11.3784 14.1855 11.3056 14.284 11.3056H15.1446C15.2352 11.3102 15.3076 11.3761 15.3135 11.4593V12.0565H15.3306C15.5551 11.4789 15.9775 11.209 16.5468 11.209C17.125 11.209 17.4869 11.4789 17.7464 12.0565C17.9705 11.4789 18.4791 11.209 19.0226 11.209C19.4108 11.209 19.8336 11.3635 20.0926 11.7096C20.3859 12.0956 20.3255 12.6538 20.3255 13.1448L20.3247 16.0332C20.3247 16.1241 20.2448 16.1977 20.1467 16.1977H19.2241C19.1307 16.1919 19.058 16.121 19.058 16.0332L19.0572 13.6071C19.0572 13.4143 19.0751 12.9332 19.0318 12.75C18.9626 12.4418 18.7556 12.3552 18.4882 12.3552C18.2637 12.3552 18.0309 12.4997 17.9359 12.7308C17.8414 12.962 17.8493 13.3468 17.8493 13.6071V16.0332C17.8493 16.1241 17.7694 16.1977 17.6713 16.1977H16.7483C16.6557 16.1919 16.5822 16.121 16.5822 16.0332L16.581 13.6071C16.581 13.0969 16.6676 12.346 16.012 12.346C15.3473 12.346 15.3739 13.0774 15.3739 13.6071L15.3731 16.0332C15.3731 16.1241 15.2933 16.1977 15.1947 16.1977Z" fill="white"/>
<path fill-rule="evenodd" clip-rule="evenodd" d="M11.739 14.0123C11.739 14.36 11.7474 14.6494 11.5658 14.9584C11.4188 15.2091 11.1851 15.3636 10.9257 15.3636C10.5712 15.3636 10.3634 15.1029 10.3634 14.7172C10.3634 13.9571 11.0703 13.8191 11.739 13.8191V14.0123ZM12.6704 16.1862C12.6092 16.2391 12.521 16.2425 12.4518 16.2069C12.1451 15.9612 12.0903 15.8469 11.9222 15.6127C11.4152 16.1118 11.0556 16.2606 10.3984 16.2606C9.62043 16.2606 9.01489 15.7979 9.01489 14.871C9.01489 14.1476 9.42176 13.655 10.0007 13.4131C10.5025 13.2015 11.2026 13.1628 11.739 13.1049V12.9892C11.739 12.7768 11.7561 12.5261 11.6262 12.3425C11.5137 12.1784 11.298 12.111 11.1076 12.111C10.7552 12.111 10.4417 12.2854 10.3646 12.6461C10.3487 12.7262 10.288 12.8059 10.2037 12.8102L9.30852 12.717C9.23223 12.7001 9.14879 12.6419 9.17025 12.5299C9.37607 11.4815 10.3583 11.1653 11.2372 11.1653C11.6866 11.1653 12.275 11.281 12.629 11.6092C13.0788 12.0144 13.0355 12.5549 13.0355 13.1437V14.5325C13.0355 14.9511 13.2155 15.1339 13.3844 15.3589C13.4432 15.4402 13.4567 15.5368 13.3816 15.5958C13.1929 15.7488 12.8571 16.0302 12.6727 16.1885L12.6704 16.1862Z" fill="white"/>
</svg>
