<svg width="177" height="24" viewBox="0 0 177 24" fill="none" xmlns="http://www.w3.org/2000/svg">
<g clip-path="url(#clip0_4041_2321)">
<path d="M176.986 22.9085C176.991 22.9063 176.995 22.9041 176.998 22.8997L175.803 19.9055C175.166 20.3982 174.37 20.6446 173.415 20.6446C172.596 20.6446 171.971 20.4138 171.539 19.9543C171.107 19.4949 170.891 18.8268 170.891 17.9523V9.59568H175.769V9.55795V9.52022V9.48248V9.44475V9.40702V6.23084V6.19311V6.15538V6.11765V6.07991V6.04218H170.891V2.12689V2.08916V2.05143V2.0137V1.97596V1.93823H166.627V1.97596V2.0137V2.05143V2.08916V2.12689V6.04218H163.625V6.07991V6.11765V6.15538V6.19311V6.23084V9.40702V9.44475V9.48248V9.52022V9.55795V9.59568H166.627V18.0544V18.0921V18.1299V18.1676V18.2053V18.243C166.627 20.2162 167.174 21.7211 168.265 22.751C169.356 23.783 170.902 24.298 172.905 24.298C173.701 24.298 174.457 24.1959 175.173 23.9961C175.888 23.7941 176.498 23.4923 176.998 23.0883L176.986 23.0595C176.991 23.0573 176.995 23.055 176.998 23.0506L176.986 23.0217C176.991 23.0195 176.995 23.0173 176.998 23.0129L176.986 22.984C176.991 22.9818 176.995 22.9796 176.998 22.9751L176.986 22.9463C176.991 22.9441 176.995 22.9418 176.998 22.9374L176.986 22.9085Z" fill="#4A2682"/>
<path d="M60.1873 10.1306C59.402 8.72786 58.3106 7.64028 56.9133 6.86566C55.5137 6.09104 53.9273 5.70483 52.1542 5.70483C50.3586 5.70483 48.7429 6.09769 47.3096 6.88342C45.8762 7.66914 44.7556 8.76115 43.9501 10.1639C43.1423 11.5667 42.7395 13.1425 42.7395 14.8916C42.7395 14.8982 42.7395 14.9049 42.7395 14.9093C42.7395 14.916 42.7395 14.9226 42.7395 14.9293C42.7395 14.9359 42.7395 14.9426 42.7395 14.947C42.7395 14.9537 42.7395 14.9604 42.7395 14.967C42.7395 14.9737 42.7395 14.9803 42.7395 14.9848C42.7395 14.9914 42.7395 14.9981 42.7395 15.0048C42.7395 15.0114 42.7395 15.0181 42.7395 15.0225C42.7395 15.0292 42.7395 15.0358 42.7395 15.0425C42.7395 15.0491 42.7395 15.0558 42.7395 15.0602C42.7395 15.0669 42.7395 15.0736 42.7395 15.0802C42.7395 16.8514 43.1535 18.4406 43.9838 19.8412C44.8142 21.2439 45.991 22.3359 47.5143 23.1216C49.0377 23.9074 50.7996 24.3002 52.8022 24.3002C54.3706 24.3002 55.7815 24.0539 57.0325 23.5611C58.2836 23.0684 59.3187 22.3381 60.1378 21.3749L60.122 21.3549C60.1265 21.3482 60.1333 21.3416 60.1378 21.3371L60.1198 21.3172C60.1243 21.3105 60.131 21.3038 60.1378 21.2994L60.122 21.2794C60.1265 21.2728 60.1333 21.2661 60.1378 21.2617L60.122 21.2417C60.1265 21.235 60.1333 21.2284 60.1378 21.2239L60.122 21.204C60.1265 21.1973 60.1333 21.1906 60.1378 21.1862L57.8516 18.596C56.5555 19.8966 54.9061 20.547 52.9057 20.547C51.3374 20.547 50.0233 20.1608 48.9657 19.3861C47.9599 18.6493 47.3231 17.6638 47.0486 16.4297H61.2966C61.3416 15.8926 61.3641 15.4775 61.3641 15.1845C61.3641 15.1801 61.3641 15.1757 61.3641 15.169C61.3641 15.1623 61.3641 15.1535 61.3641 15.1468C61.3641 15.1424 61.3641 15.1379 61.3641 15.1313C61.3641 15.1246 61.3641 15.1157 61.3641 15.1091C61.3641 15.1046 61.3641 15.1002 61.3641 15.0935C61.3641 15.0869 61.3641 15.078 61.3641 15.0713C61.3641 15.0669 61.3641 15.0625 61.3641 15.0558C61.3641 15.0491 61.3641 15.0403 61.3641 15.0336C61.3641 15.0292 61.3641 15.0247 61.3641 15.0181C61.3641 15.0114 61.3641 15.0025 61.3641 14.9959C61.3641 13.1536 60.9703 11.5334 60.1873 10.1306ZM47.0058 13.4444C47.2353 12.2103 47.7934 11.2115 48.6912 10.4547C49.634 9.65785 50.7883 9.26055 52.1542 9.26055C53.5403 9.26055 54.7014 9.66451 55.6329 10.4724C56.5195 11.2404 57.0618 12.2325 57.2711 13.4466H47.0058V13.4444Z" fill="#4A2682"/>
<path d="M78.3327 15.5973C77.6621 14.9026 76.8611 14.4077 75.9272 14.1169C74.9957 13.8261 73.8008 13.5665 72.345 13.3423C70.8891 13.0959 69.8158 12.8318 69.1205 12.5521C68.4612 12.2858 68.1192 11.8396 68.0854 11.2182C68.1169 10.6566 68.4365 10.1994 69.0507 9.84871C69.6988 9.47805 70.6484 9.29382 71.8994 9.29382C73.8323 9.29382 75.5717 9.74217 77.1176 10.6389L78.7557 7.44272C78.7512 7.4405 78.7444 7.43828 78.7399 7.43384L78.7557 7.40499C78.7512 7.40277 78.7444 7.40055 78.7399 7.39611L78.7557 7.36725C78.7512 7.36504 78.7444 7.36282 78.7399 7.35838L78.7557 7.32952C78.7512 7.3273 78.7444 7.32508 78.7399 7.32064L78.7557 7.29179C78.7512 7.28957 78.7444 7.28735 78.7399 7.28291L78.7557 7.25406C77.9591 6.78351 76.9353 6.40841 75.6865 6.12653C74.4354 5.84686 73.1843 5.70703 71.9332 5.70703C69.4783 5.70703 67.5274 6.21753 66.0828 7.23852C64.6382 8.25951 63.9159 9.62232 63.9159 11.3269C63.9159 11.3336 63.9159 11.338 63.9159 11.3425C63.9159 11.3491 63.9159 11.3558 63.9159 11.3647C63.9159 11.3713 63.9159 11.3758 63.9159 11.3802C63.9159 11.3869 63.9159 11.3935 63.9159 11.4024C63.9159 11.4091 63.9159 11.4135 63.9159 11.4179C63.9159 11.4246 63.9159 11.4313 63.9159 11.4401C63.9159 11.4468 63.9159 11.4512 63.9159 11.4557C63.9159 11.4623 63.9159 11.469 63.9159 11.4779C63.9159 11.4845 63.9159 11.489 63.9159 11.4956C63.9159 11.5023 63.9159 11.5089 63.9159 11.5178C63.9159 12.8185 64.2624 13.835 64.9555 14.563C65.6485 15.2933 66.4676 15.8015 67.4126 16.0945C68.3554 16.3853 69.5795 16.645 71.0804 16.8691C72.5137 17.0933 73.5533 17.3286 74.2014 17.575C74.8179 17.8102 75.1374 18.2186 75.1667 18.7957C75.1037 20.052 73.8346 20.6823 71.3527 20.6823C70.2388 20.6823 69.107 20.5203 67.9594 20.194C66.8096 19.87 65.8285 19.4372 65.0095 18.8978L63.3713 22.094C63.3758 22.0962 63.3803 22.1006 63.3848 22.1028L63.3713 22.1317C63.3758 22.1339 63.3803 22.1384 63.3848 22.1406L63.3713 22.1694C63.3758 22.1717 63.3803 22.1761 63.3848 22.1783L63.3713 22.2072C63.3758 22.2094 63.3803 22.2138 63.3848 22.216L63.3713 22.2449C63.3758 22.2471 63.3803 22.2516 63.3848 22.2538L63.3713 22.2826C64.2129 22.8664 65.338 23.348 66.7488 23.7298C68.1574 24.1115 69.602 24.3024 71.0804 24.3024C73.6276 24.3024 75.6392 23.7986 77.1176 22.7887C78.5959 21.7788 79.334 20.4337 79.334 18.7513C79.334 18.7447 79.334 18.7402 79.334 18.7336C79.334 18.7269 79.334 18.7203 79.334 18.7136C79.334 18.7069 79.334 18.7025 79.334 18.6958C79.334 18.6892 79.334 18.6825 79.334 18.6759C79.334 18.6692 79.334 18.6648 79.334 18.6581C79.334 18.6514 79.334 18.6448 79.334 18.6381C79.334 18.6315 79.334 18.627 79.334 18.6204C79.334 18.6137 79.334 18.6071 79.334 18.6004C79.334 18.5937 79.334 18.5893 79.334 18.5826C79.334 18.576 79.334 18.5693 79.334 18.5627C79.3385 17.2798 79.0032 16.2943 78.3327 15.5973Z" fill="#4A2682"/>
<path d="M92.7787 19.9055C92.1419 20.3982 91.3454 20.6446 90.3913 20.6446C89.5722 20.6446 88.9467 20.4138 88.5147 19.9543C88.0826 19.4949 87.8666 18.8268 87.8666 17.9523V9.59568H92.745V9.55795V9.52022V9.48248V9.44475V9.40702V6.23084V6.19311V6.15538V6.11765V6.07991V6.04218H87.8666V2.12689V2.08916V2.05143V2.0137V1.97596V1.93823H83.6025V1.97596V2.0137V2.05143V2.08916V2.12689V6.04218H80.6008V6.07991V6.11765V6.15538V6.19311V6.23084V9.40702V9.44475V9.48248V9.52022V9.55795V9.59568H83.6025V18.0544V18.0921V18.1299V18.1676V18.2053V18.243C83.6025 20.2162 84.1471 21.7211 85.2407 22.751C86.332 23.783 87.8779 24.298 89.8805 24.298C90.6771 24.298 91.4331 24.1959 92.1487 23.9961C92.8642 23.7941 93.474 23.4923 93.9735 23.0883L93.9623 23.0595C93.9668 23.0573 93.9713 23.055 93.9735 23.0506L93.9623 23.0217C93.9668 23.0195 93.9713 23.0173 93.9735 23.0129L93.9623 22.984C93.9668 22.9818 93.9713 22.9796 93.9735 22.9751L93.9623 22.9463C93.9668 22.9441 93.9713 22.9418 93.9735 22.9374L93.9623 22.9085C93.9668 22.9063 93.9713 22.9041 93.9735 22.8997L92.7787 19.9055Z" fill="#4A2682"/>
<path d="M116.043 0.360242V0.397974V0.435707V0.473439V0.511172V10.0464H103.694V0.511172V0.473439V0.435707V0.397974V0.360242V0.32251H99.259V0.360242V0.397974V0.435707V0.473439V0.511172V23.8764V23.9141V23.9518V23.9896V24.0273V24.065H103.694V24.0273V23.9896V23.9518V23.9141V23.8764V13.9705H116.043V23.8764V23.9141V23.9518V23.9896V24.0273V24.065H120.478V24.0273V23.9896V23.9518V23.9141V23.8764V0.511172V0.473439V0.435707V0.397974V0.360242V0.32251H116.043V0.360242Z" fill="#4A2682"/>
<path d="M143.144 10.1484C142.314 8.75891 141.159 7.66911 139.681 6.88561C138.203 6.09989 136.531 5.70703 134.668 5.70703C132.825 5.70703 131.166 6.09989 129.688 6.88561C128.21 7.67133 127.055 8.75891 126.225 10.1484C125.395 11.54 124.981 13.1203 124.981 14.8938C124.981 14.9004 124.981 14.9071 124.981 14.9115C124.981 14.9159 124.981 14.9248 124.981 14.9293C124.981 14.9337 124.981 14.9426 124.981 14.947C124.981 14.9515 124.981 14.9603 124.981 14.9648C124.981 14.9692 124.981 14.9781 124.981 14.9825C124.981 14.987 124.981 14.9959 124.981 15.0003C124.981 15.0069 124.981 15.0136 124.981 15.0203C124.981 15.0269 124.981 15.0336 124.981 15.0402C124.981 15.0469 124.981 15.0536 124.981 15.058C124.981 15.0624 124.981 15.0713 124.981 15.0758C124.981 16.847 125.395 18.4362 126.225 19.8367C127.055 21.2394 128.21 22.3315 129.688 23.1172C131.166 23.9029 132.827 24.2958 134.668 24.2958C136.533 24.2958 138.203 23.9029 139.681 23.1172C141.159 22.3315 142.314 21.2394 143.144 19.8367C143.974 18.4362 144.388 16.847 144.388 15.0758C144.388 15.0691 144.388 15.0624 144.388 15.058C144.388 15.0536 144.388 15.0447 144.388 15.0402C144.388 15.0336 144.388 15.0269 144.388 15.0203C144.388 15.0136 144.388 15.0069 144.388 15.0003C144.388 14.9936 144.388 14.987 144.388 14.9825C144.388 14.9781 144.388 14.9692 144.388 14.9648C144.388 14.9603 144.388 14.9515 144.388 14.947C144.388 14.9426 144.388 14.9337 144.388 14.9293C144.388 14.9248 144.388 14.9159 144.388 14.9115C144.388 14.9071 144.388 14.8982 144.388 14.8938C144.388 13.1203 143.974 11.5378 143.144 10.1484ZM138.556 18.9622C137.532 19.9943 136.236 20.5092 134.668 20.5092C133.099 20.5092 131.808 19.9943 130.795 18.9622C129.803 17.9501 129.299 16.6228 129.281 14.9848C129.299 13.3467 129.803 12.0194 130.795 11.0073C131.808 9.97523 133.097 9.46029 134.668 9.46029C136.236 9.46029 137.532 9.97745 138.556 11.0073C139.56 12.0194 140.068 13.3467 140.086 14.9848C140.068 16.625 139.56 17.9501 138.556 18.9622Z" fill="#4A2682"/>
<path d="M161.359 15.5974C160.688 14.9027 159.887 14.4077 158.954 14.1169C158.02 13.8262 156.827 13.5665 155.371 13.3423C153.915 13.0959 152.842 12.8318 152.147 12.5521C151.488 12.2858 151.146 11.8397 151.114 11.2182C151.146 10.6567 151.465 10.1994 152.079 9.84651C152.727 9.47585 153.677 9.29163 154.928 9.29163C156.861 9.29163 158.6 9.73998 160.146 10.6367L161.784 7.44052C161.78 7.4383 161.773 7.43608 161.769 7.43164L161.784 7.40279C161.78 7.40057 161.773 7.39613 161.769 7.39391L161.784 7.36506C161.78 7.36284 161.773 7.36062 161.769 7.35618L161.784 7.32733C161.78 7.32511 161.773 7.32289 161.769 7.31845L161.784 7.28959C161.78 7.28737 161.773 7.28515 161.769 7.28071L161.784 7.25186C160.988 6.78132 159.964 6.40621 158.715 6.12433C157.464 5.84467 156.213 5.70483 154.962 5.70483C152.507 5.70483 150.556 6.21533 149.111 7.23632C147.667 8.25732 146.944 9.62012 146.944 11.3247C146.944 11.3314 146.944 11.3358 146.944 11.3403C146.944 11.3469 146.944 11.3536 146.944 11.3625C146.944 11.3691 146.944 11.3736 146.944 11.378C146.944 11.3847 146.944 11.3913 146.944 11.4002C146.944 11.4069 146.944 11.4113 146.944 11.4157C146.944 11.4224 146.944 11.4291 146.944 11.4379C146.944 11.4446 146.944 11.449 146.944 11.4535C146.944 11.4601 146.944 11.4668 146.944 11.4757C146.944 11.4823 146.944 11.4868 146.944 11.4934C146.944 11.5001 146.944 11.5067 146.944 11.5156C146.944 12.8163 147.291 13.8328 147.984 14.5608C148.677 15.2911 149.496 15.7993 150.439 16.0923C151.382 16.3831 152.606 16.6428 154.107 16.867C155.54 17.0911 156.58 17.3264 157.228 17.5728C157.844 17.808 158.164 18.2164 158.193 18.7935C158.13 20.0498 156.861 20.6801 154.379 20.6801C153.265 20.6801 152.133 20.5181 150.986 20.1918C149.838 19.8678 148.855 19.435 148.036 18.8956L146.398 22.0918C146.402 22.094 146.407 22.0984 146.411 22.1007L146.398 22.1295C146.402 22.1317 146.407 22.1362 146.411 22.1384L146.398 22.1672C146.402 22.1695 146.407 22.1739 146.411 22.1761L146.398 22.205C146.402 22.2072 146.407 22.2116 146.411 22.2139L146.398 22.2427C146.402 22.2449 146.407 22.2494 146.411 22.2516L146.398 22.2804C147.239 22.8642 148.364 23.3458 149.775 23.7276C151.184 24.1093 152.628 24.3002 154.107 24.3002C156.654 24.3002 158.666 23.7964 160.144 22.7865C161.622 21.7766 162.36 20.4316 162.36 18.7491C162.36 18.7425 162.36 18.738 162.36 18.7314C162.36 18.7247 162.36 18.7181 162.36 18.7114C162.36 18.7047 162.36 18.7003 162.36 18.6936C162.36 18.687 162.36 18.6803 162.36 18.6737C162.36 18.667 162.36 18.6626 162.36 18.6559C162.36 18.6493 162.36 18.6426 162.36 18.6359C162.36 18.6293 162.36 18.6248 162.36 18.6182C162.36 18.6115 162.36 18.6049 162.36 18.5982C162.36 18.5915 162.36 18.5871 162.36 18.5804C162.36 18.5738 162.36 18.5671 162.36 18.5605C162.365 17.2798 162.03 16.2943 161.359 15.5974Z" fill="#4A2682"/>
<path d="M38.7478 13.7641C38.0165 12.8186 37.0354 12.1349 35.8158 11.7021C36.6731 11.2183 37.3549 10.5613 37.8612 9.73116C38.408 8.83447 38.6803 7.80237 38.6803 6.63489C38.6803 6.62823 38.6803 6.62157 38.6803 6.61491C38.6803 6.60826 38.6803 6.60382 38.6803 6.59716C38.6803 6.5905 38.6803 6.58384 38.6803 6.57718C38.6803 6.57052 38.6803 6.56608 38.6803 6.55943C38.6803 6.55277 38.6803 6.54611 38.6803 6.53945C38.6803 6.53279 38.6803 6.52835 38.6803 6.52169C38.6803 6.51503 38.6803 6.50838 38.6803 6.50172C38.6803 6.49506 38.6803 6.49062 38.6803 6.48396C38.6803 6.4773 38.6803 6.47064 38.6803 6.46398C38.6803 6.45733 38.6803 6.45289 38.6803 6.44623C38.6803 4.53963 37.9175 3.04366 36.3941 1.95386C34.8708 0.866278 32.6994 0.322488 29.8777 0.322488H22.5466C22.4769 0.309171 22.4026 0.300293 22.3261 0.300293H13.0937C12.4659 0.300293 11.9551 0.801911 11.9551 1.42339V1.42561C11.9551 1.43226 11.9574 1.4367 11.9574 1.44336C11.9574 1.45002 11.9551 1.45446 11.9551 1.46112V1.46334C11.9551 1.47 11.9574 1.47444 11.9574 1.48109C11.9574 1.48775 11.9551 1.49219 11.9551 1.49885C11.9551 1.50551 11.9574 1.50995 11.9574 1.51661C11.9574 1.52327 11.9551 1.5277 11.9551 1.53436V1.53658C11.9551 1.54324 11.9574 1.54768 11.9574 1.55434C11.9574 1.561 11.9551 1.56544 11.9551 1.5721V1.57431C11.9551 1.58097 11.9574 1.58541 11.9574 1.59207C11.9574 1.59873 11.9551 1.60317 11.9551 1.60983V1.61205C11.9551 2.2313 12.4637 2.73514 13.0937 2.73514H15.9087C15.9199 2.73958 15.9379 2.7418 15.9604 2.7418C16.2844 2.7418 16.4982 2.78175 16.6535 2.82614C16.7255 2.84612 16.7345 2.85056 16.8042 2.87719C17.0315 2.96819 17.675 3.19237 17.7155 4.21558C17.675 5.50958 16.8087 5.57173 16.7255 5.58282C16.676 5.58948 16.4149 5.61168 16.2102 5.62721H6.7775C6.1497 5.62721 5.63892 6.12883 5.63892 6.75031V6.75253C5.63892 6.75919 5.64117 6.76362 5.64117 6.77028C5.64117 6.77694 5.63892 6.78138 5.63892 6.78804V6.79026C5.63892 6.79692 5.64117 6.80136 5.64117 6.80802C5.64117 6.81467 5.63892 6.81911 5.63892 6.82577V6.82799C5.63892 6.83465 5.64117 6.83909 5.64117 6.84575C5.64117 6.85241 5.63892 6.85685 5.63892 6.8635V6.86572C5.63892 6.87238 5.64117 6.87682 5.64117 6.88348C5.64117 6.89014 5.63892 6.89458 5.63892 6.90124V6.90346C5.63892 6.91011 5.64117 6.91455 5.64117 6.92121C5.64117 6.92787 5.63892 6.93231 5.63892 6.93897V6.94119C5.63892 7.56044 6.14745 8.06428 6.7775 8.06428H15.9087C15.9199 8.06872 15.9379 8.07094 15.9627 8.07094C16.2867 8.07094 16.5004 8.11089 16.6557 8.15528C16.7277 8.17526 16.7367 8.1797 16.8065 8.20633C17.0337 8.29733 17.6773 8.52151 17.7178 9.54472C17.6773 10.8387 16.811 10.9009 16.7277 10.912C16.6782 10.9186 16.4194 10.9408 16.2147 10.9564H12.0901C11.4623 10.9564 10.9515 11.458 10.9515 12.0794V12.0817C10.9515 12.0883 10.9538 12.0928 10.9538 12.0994C10.9538 12.1061 10.9515 12.1105 10.9515 12.1172V12.1194C10.9515 12.1261 10.9538 12.1305 10.9538 12.1372C10.9538 12.1438 10.9515 12.1483 10.9515 12.1549V12.1571C10.9515 12.1638 10.9538 12.1682 10.9538 12.1749C10.9538 12.1815 10.9515 12.186 10.9515 12.1926V12.1949C10.9515 12.2015 10.9538 12.206 10.9538 12.2126C10.9538 12.2193 10.9515 12.2237 10.9515 12.2304V12.2326C10.9515 12.2393 10.9538 12.2437 10.9538 12.2504C10.9538 12.257 10.9515 12.2615 10.9515 12.2681V12.2703C10.9515 12.8896 11.4601 13.3934 12.0901 13.3934H15.9087C15.9199 13.3979 15.9379 13.4001 15.9627 13.4001C16.2867 13.4001 16.5004 13.44 16.6557 13.4844C16.7277 13.5044 16.7367 13.5088 16.8065 13.5355C17.0337 13.6265 17.6773 13.8506 17.7178 14.8739C17.6773 16.1679 16.811 16.23 16.7277 16.2411C16.6782 16.2478 16.4217 16.27 16.2169 16.2855H10.209C9.5812 16.2855 9.07041 16.7871 9.07041 17.4086V17.4108C9.07041 17.4175 9.07266 17.4219 9.07266 17.4286C9.07266 17.4352 9.07041 17.4397 9.07041 17.4463V17.4485C9.07041 17.4552 9.07266 17.4596 9.07266 17.4663C9.07266 17.473 9.07041 17.4774 9.07041 17.4841V17.4863C9.07041 17.4929 9.07266 17.4974 9.07266 17.504C9.07266 17.5107 9.07041 17.5151 9.07041 17.5218V17.524C9.07041 17.5307 9.07266 17.5351 9.07266 17.5418C9.07266 17.5484 9.07041 17.5529 9.07041 17.5595V17.5617C9.07041 17.5684 9.07266 17.5728 9.07266 17.5795C9.07266 17.5862 9.07041 17.5906 9.07041 17.5972V17.5995C9.07041 18.2187 9.57895 18.7226 10.209 18.7226H15.9649C16.2889 18.7226 16.5027 18.7625 16.658 18.8069C16.73 18.8269 16.739 18.8313 16.8087 18.858C17.036 18.949 17.6795 19.1731 17.72 20.1963C17.6795 21.4903 16.8132 21.5525 16.73 21.5636C16.6467 21.5747 15.9672 21.628 15.9649 21.628H8.19285C7.56505 21.628 7.05427 22.1296 7.05427 22.751V22.7533C7.05427 22.7599 7.05652 22.7644 7.05652 22.771C7.05652 22.7777 7.05427 22.7821 7.05427 22.7888V22.791C7.05427 22.7977 7.05652 22.8021 7.05652 22.8088C7.05652 22.8154 7.05427 22.8199 7.05427 22.8265V22.8287C7.05427 22.8354 7.05652 22.8398 7.05652 22.8465C7.05652 22.8531 7.05427 22.8576 7.05427 22.8642V22.8665C7.05427 22.8731 7.05652 22.8776 7.05652 22.8842C7.05652 22.8909 7.05427 22.8953 7.05427 22.902V22.9042C7.05427 22.9109 7.05652 22.9153 7.05652 22.922C7.05652 22.9286 7.05427 22.9331 7.05427 22.9397V22.9419C7.05427 23.5612 7.5628 24.065 8.19285 24.065H18.6921V24.0717H30.5617C33.6084 24.0717 35.9283 23.5168 37.5215 22.407C39.1123 21.2972 39.9089 19.7214 39.9089 17.6794C39.9089 17.6749 39.9089 17.6683 39.9089 17.6638C39.9089 17.6572 39.9089 17.6505 39.9089 17.6416C39.9089 17.6372 39.9089 17.6305 39.9089 17.6261C39.9089 17.6194 39.9089 17.6128 39.9089 17.6039C39.9089 17.5995 39.9089 17.5928 39.9089 17.5884C39.9089 17.5817 39.9089 17.5751 39.9089 17.5662C39.9089 17.5617 39.9089 17.5551 39.9089 17.5506C39.9089 17.544 39.9089 17.5373 39.9089 17.5284C39.9089 17.524 39.9089 17.5173 39.9089 17.5129C39.9089 17.5063 39.9089 17.4996 39.9089 17.4907C39.9066 16.0014 39.5219 14.7629 38.7478 13.7641ZM23.1249 3.94258H29.4006C30.9465 3.94258 32.1346 4.2178 32.9649 4.76603C33.7704 5.29872 34.18 6.08222 34.2047 7.10987C34.18 8.11755 33.7682 8.88995 32.9649 9.42265C32.1346 9.97309 30.9465 10.2461 29.4006 10.2461H23.1249V3.94258ZM30.2894 20.4427H23.1272V13.8351H30.2894C33.6737 13.8351 35.3861 14.9382 35.4356 17.14C35.3861 19.3418 33.6737 20.4427 30.2894 20.4427Z" fill="#4A2682"/>
<path d="M5.17081 13.3889H8.5348C9.16259 13.3889 9.67338 12.8873 9.67338 12.2659V12.2636C9.67338 12.257 9.67113 12.2525 9.67113 12.2459C9.67113 12.2392 9.67338 12.2348 9.67338 12.2281V12.2259C9.67338 12.2192 9.67113 12.2148 9.67113 12.2081C9.67113 12.2015 9.67338 12.197 9.67338 12.1904V12.1882C9.67338 12.1815 9.67113 12.1771 9.67113 12.1704C9.67113 12.1638 9.67338 12.1593 9.67338 12.1527C9.67338 12.146 9.67113 12.1416 9.67113 12.1349C9.67113 12.1282 9.67338 12.1238 9.67338 12.1171V12.1149C9.67338 12.1083 9.67113 12.1038 9.67113 12.0972C9.67113 12.0905 9.67338 12.0861 9.67338 12.0794V12.0772C9.67338 11.4579 9.16484 10.9541 8.5348 10.9541H5.17081C4.54301 10.9541 4.03223 11.4557 4.03223 12.0772V12.0794C4.03223 12.0861 4.03448 12.0905 4.03448 12.0972C4.03448 12.1038 4.03223 12.1083 4.03223 12.1149V12.1171C4.03223 12.1238 4.03448 12.1282 4.03448 12.1349C4.03448 12.1416 4.03223 12.146 4.03223 12.1527V12.1549C4.03223 12.1615 4.03448 12.166 4.03448 12.1726C4.03448 12.1793 4.03223 12.1837 4.03223 12.1904V12.1926C4.03223 12.1993 4.03448 12.2037 4.03448 12.2104C4.03448 12.217 4.03223 12.2215 4.03223 12.2281V12.2303C4.03223 12.237 4.03448 12.2414 4.03448 12.2481C4.03448 12.2548 4.03223 12.2592 4.03223 12.2659V12.2681C4.03223 12.8873 4.54076 13.3889 5.17081 13.3889Z" fill="#4A2682"/>
<path d="M7.77209 17.5928C7.77209 17.5839 7.76984 17.5794 7.76984 17.5728C7.76984 17.5661 7.77209 17.5617 7.77209 17.555V17.5528C7.77209 17.5461 7.76984 17.5417 7.76984 17.5351C7.76984 17.5284 7.77209 17.524 7.77209 17.5173V17.5151C7.77209 17.5084 7.76984 17.504 7.76984 17.4973C7.76984 17.4907 7.77209 17.4862 7.77209 17.4796C7.77209 17.4729 7.76984 17.4685 7.76984 17.4618C7.76984 17.4551 7.77209 17.4507 7.77209 17.444V17.4418C7.77209 17.4352 7.76984 17.4307 7.76984 17.4241C7.76984 17.4174 7.77209 17.413 7.77209 17.4063V17.4041C7.77209 16.7848 7.26355 16.281 6.63351 16.281H6.63126C6.00346 16.281 5.49268 16.7826 5.49268 17.4041V17.4063C5.49268 17.413 5.49493 17.4174 5.49493 17.4241C5.49493 17.4307 5.49268 17.4352 5.49268 17.4418V17.444C5.49268 17.4507 5.49493 17.4551 5.49493 17.4618C5.49493 17.4685 5.49268 17.4729 5.49268 17.4796V17.4818C5.49268 17.4884 5.49493 17.4929 5.49493 17.4995C5.49493 17.5062 5.49268 17.5106 5.49268 17.5173V17.5195C5.49268 17.5262 5.49493 17.5306 5.49493 17.5373C5.49493 17.5439 5.49268 17.5484 5.49268 17.555V17.5572C5.49268 17.5639 5.49493 17.5683 5.49493 17.575C5.49493 17.5817 5.49268 17.5861 5.49268 17.5928V17.595C5.49268 18.2142 6.00121 18.7181 6.63126 18.7181H6.63351C7.26355 18.7159 7.77209 18.2142 7.77209 17.5928Z" fill="#4A2682"/>
<path d="M4.50257 21.6213H1.13858C0.510787 21.6213 0 22.123 0 22.7444V22.7466C0 22.7533 0.00225016 22.7577 0.00225016 22.7644C0.00225016 22.7711 0 22.7755 0 22.7822V22.7844C0 22.791 0.00225016 22.7955 0.00225016 22.8021C0.00225016 22.8088 0 22.8132 0 22.8199V22.8221C0 22.8288 0.00225016 22.8332 0.00225016 22.8399C0.00225016 22.8465 0 22.851 0 22.8576V22.8598C0 22.8665 0.00225016 22.8709 0.00225016 22.8776C0.00225016 22.8843 0 22.8887 0 22.8954V22.8976C0 22.9042 0.00225016 22.9087 0.00225016 22.9153C0.00225016 22.922 0 22.9264 0 22.9331V22.9353C0 23.5546 0.508537 24.0584 1.13858 24.0584H4.50257C5.13037 24.0584 5.64116 23.5568 5.64116 22.9353V22.9331C5.64116 22.9264 5.63891 22.922 5.63891 22.9153C5.63891 22.9087 5.64116 22.9042 5.64116 22.8976V22.8954C5.64116 22.8887 5.63891 22.8843 5.63891 22.8776C5.63891 22.8709 5.64116 22.8665 5.64116 22.8598V22.8576C5.64116 22.851 5.63891 22.8465 5.63891 22.8399C5.63891 22.8332 5.64116 22.8288 5.64116 22.8221V22.8199C5.64116 22.8132 5.63891 22.8088 5.63891 22.8021C5.63891 22.7955 5.64116 22.791 5.64116 22.7844V22.7822C5.64116 22.7755 5.63891 22.7711 5.63891 22.7644C5.63891 22.7577 5.64116 22.7533 5.64116 22.7466V22.7444C5.64116 22.1252 5.13037 21.6213 4.50257 21.6213Z" fill="#4A2682"/>
</g>
<defs>
<clipPath id="clip0_4041_2321">
<rect width="177" height="24" fill="white"/>
</clipPath>
</defs>
</svg>
