<svg width="50" height="50" viewBox="0 0 50 50" fill="none" xmlns="http://www.w3.org/2000/svg">
<g opacity="0.8" clip-path="url(#clip0_1_2749)">
<path d="M45.9961 32.8125H37.3809C35.4561 32.8125 33.8008 34.1855 33.4453 36.0771L32.542 40.8867C32.4551 41.3486 32.0518 41.6826 31.582 41.6826H18.417C17.9473 41.6826 17.5439 41.3477 17.457 40.8867L16.5537 36.0771C16.1982 34.1855 14.543 32.8125 12.6191 32.8125H4.00391C1.7959 32.8125 0 34.6084 0 36.8164V38.6719C0 44.918 5.08203 50 11.3281 50H38.6719C44.918 50 50 44.918 50 38.6719V36.8164C50 34.6084 48.2041 32.8125 45.9961 32.8125ZM48.0469 38.6719H42.9365C42.3975 38.6719 41.96 39.1094 41.96 39.6484C41.96 40.1875 42.3975 40.625 42.9365 40.625H47.8418C46.9404 44.8604 43.1719 48.0469 38.6719 48.0469H11.3281C6.1582 48.0469 1.95312 43.8408 1.95312 38.6719V36.8164C1.95312 35.6855 2.87305 34.7656 4.00391 34.7656H12.6191C13.6055 34.7656 14.4521 35.4687 14.6348 36.4375L15.0547 38.6719H6.99902C6.45996 38.6719 6.02246 39.1094 6.02246 39.6484C6.02246 40.1875 6.45996 40.625 6.99902 40.625H15.4219L15.5391 41.2471C15.7988 42.6309 17.0098 43.6357 18.418 43.6357H31.583C32.9912 43.6357 34.2021 42.6309 34.4619 41.2471L35.3652 36.4375C35.5469 35.4687 36.3945 34.7656 37.3809 34.7656H45.9961C47.127 34.7656 48.0469 35.6855 48.0469 36.8164V38.6719Z" fill="#4A2682"/>
<path d="M45.9961 32.8125H37.3809C35.4561 32.8125 33.8008 34.1855 33.4453 36.0771L32.542 40.8867C32.4551 41.3486 32.0518 41.6826 31.582 41.6826H18.417C17.9473 41.6826 17.5439 41.3477 17.457 40.8867L16.5537 36.0771C16.1982 34.1855 14.543 32.8125 12.6191 32.8125H4.00391C1.7959 32.8125 0 34.6084 0 36.8164V38.6719C0 44.918 5.08203 50 11.3281 50H38.6719C44.918 50 50 44.918 50 38.6719V36.8164C50 34.6084 48.2041 32.8125 45.9961 32.8125ZM48.0469 38.6719H42.9365C42.3975 38.6719 41.96 39.1094 41.96 39.6484C41.96 40.1875 42.3975 40.625 42.9365 40.625H47.8418C46.9404 44.8604 43.1719 48.0469 38.6719 48.0469H11.3281C6.1582 48.0469 1.95312 43.8408 1.95312 38.6719V36.8164C1.95312 35.6855 2.87305 34.7656 4.00391 34.7656H12.6191C13.6055 34.7656 14.4521 35.4687 14.6348 36.4375L15.0547 38.6719H6.99902C6.45996 38.6719 6.02246 39.1094 6.02246 39.6484C6.02246 40.1875 6.45996 40.625 6.99902 40.625H15.4219L15.5391 41.2471C15.7988 42.6309 17.0098 43.6357 18.418 43.6357H31.583C32.9912 43.6357 34.2021 42.6309 34.4619 41.2471L35.3652 36.4375C35.5469 35.4687 36.3945 34.7656 37.3809 34.7656H45.9961C47.127 34.7656 48.0469 35.6855 48.0469 36.8164V38.6719Z" fill="#4A2682"/>
<path d="M45.1172 0H27.9297C25.2373 0 23.0469 2.19043 23.0469 4.88281V5.27344H4.88281C2.19043 5.27344 0 7.46387 0 10.1562V22.0703C0 24.7627 2.19043 26.9531 4.88281 26.9531H5.27344V30.3066C5.27344 30.7012 5.51074 31.0566 5.875 31.208C5.99609 31.2588 6.12402 31.2832 6.25 31.2832C6.50293 31.2832 6.75195 31.1846 6.93848 30.999L11.0107 26.9521H24.4453C27.1377 26.9521 29.3281 24.7617 29.3281 22.0693H37.7793L41.6982 25.9883C41.8848 26.1748 42.1348 26.2744 42.3887 26.2744C42.5146 26.2744 42.6416 26.25 42.7627 26.2002C43.1279 26.0488 43.3652 25.6934 43.3652 25.2978V22.0703H45.1172C47.8096 22.0703 50 19.8799 50 17.1875V4.88281C50 2.19043 47.8096 0 45.1172 0ZM27.375 22.0703C27.375 23.6855 26.0605 25 24.4453 25H10.6084C10.3506 25 10.1025 25.1025 9.91992 25.2842L7.22656 27.96V25.9766C7.22656 25.4375 6.78906 25 6.25 25H4.88281C3.26758 25 1.95312 23.6855 1.95312 22.0703V10.1562C1.95312 8.54102 3.26758 7.22656 4.88281 7.22656H24.4453C26.0605 7.22656 27.375 8.54102 27.375 10.1562V22.0703ZM48.0469 17.1875C48.0469 18.8027 46.7324 20.1172 45.1172 20.1172H42.3887C41.8496 20.1172 41.4121 20.5547 41.4121 21.0938V22.9414L38.875 20.4033C38.6914 20.2197 38.4434 20.1172 38.1846 20.1172H29.3291V10.1562C29.3291 7.65137 27.4326 5.58203 25.001 5.30566V4.88281C25.001 3.26758 26.3154 1.95312 27.9307 1.95312H45.1182C46.7334 1.95312 48.0479 3.26758 48.0479 4.88281L48.0469 17.1875Z" fill="#4A2682"/>
<path d="M45.1172 0H27.9297C25.2373 0 23.0469 2.19043 23.0469 4.88281V5.27344H4.88281C2.19043 5.27344 0 7.46387 0 10.1562V22.0703C0 24.7627 2.19043 26.9531 4.88281 26.9531H5.27344V30.3066C5.27344 30.7012 5.51074 31.0566 5.875 31.208C5.99609 31.2588 6.12402 31.2832 6.25 31.2832C6.50293 31.2832 6.75195 31.1846 6.93848 30.999L11.0107 26.9521H24.4453C27.1377 26.9521 29.3281 24.7617 29.3281 22.0693H37.7793L41.6982 25.9883C41.8848 26.1748 42.1348 26.2744 42.3887 26.2744C42.5146 26.2744 42.6416 26.25 42.7627 26.2002C43.1279 26.0488 43.3652 25.6934 43.3652 25.2978V22.0703H45.1172C47.8096 22.0703 50 19.8799 50 17.1875V4.88281C50 2.19043 47.8096 0 45.1172 0ZM27.375 22.0703C27.375 23.6855 26.0605 25 24.4453 25H10.6084C10.3506 25 10.1025 25.1025 9.91992 25.2842L7.22656 27.96V25.9766C7.22656 25.4375 6.78906 25 6.25 25H4.88281C3.26758 25 1.95312 23.6855 1.95312 22.0703V10.1562C1.95312 8.54102 3.26758 7.22656 4.88281 7.22656H24.4453C26.0605 7.22656 27.375 8.54102 27.375 10.1562V22.0703ZM48.0469 17.1875C48.0469 18.8027 46.7324 20.1172 45.1172 20.1172H42.3887C41.8496 20.1172 41.4121 20.5547 41.4121 21.0938V22.9414L38.875 20.4033C38.6914 20.2197 38.4434 20.1172 38.1846 20.1172H29.3291V10.1562C29.3291 7.65137 27.4326 5.58203 25.001 5.30566V4.88281C25.001 3.26758 26.3154 1.95312 27.9307 1.95312H45.1182C46.7334 1.95312 48.0479 3.26758 48.0479 4.88281L48.0469 17.1875Z" fill="#4A2682"/>
<path d="M36.5059 5.24902C34.46 5.24902 32.7949 6.91406 32.7949 8.95996C32.7949 9.49902 33.2324 9.93652 33.7715 9.93652C34.3105 9.93652 34.748 9.49902 34.748 8.95996C34.748 7.99023 35.5371 7.20215 36.5059 7.20215C37.4746 7.20215 38.2637 7.99023 38.2637 8.95996C38.2637 9.92969 37.4746 10.7178 36.5059 10.7178C35.9668 10.7178 35.5293 11.1553 35.5293 11.6943V12.9268C35.5293 13.4658 35.9668 13.9033 36.5059 13.9033C37.0449 13.9033 37.4824 13.4658 37.4824 12.9268V12.54C39.0566 12.1104 40.2168 10.668 40.2168 8.95898C40.2168 6.91406 38.5518 5.24902 36.5059 5.24902Z" fill="#FF8E2B"/>
<path d="M36.5059 5.24902C34.46 5.24902 32.7949 6.91406 32.7949 8.95996C32.7949 9.49902 33.2324 9.93652 33.7715 9.93652C34.3105 9.93652 34.748 9.49902 34.748 8.95996C34.748 7.99023 35.5371 7.20215 36.5059 7.20215C37.4746 7.20215 38.2637 7.99023 38.2637 8.95996C38.2637 9.92969 37.4746 10.7178 36.5059 10.7178C35.9668 10.7178 35.5293 11.1553 35.5293 11.6943V12.9268C35.5293 13.4658 35.9668 13.9033 36.5059 13.9033C37.0449 13.9033 37.4824 13.4658 37.4824 12.9268V12.54C39.0566 12.1104 40.2168 10.668 40.2168 8.95898C40.2168 6.91406 38.5518 5.24902 36.5059 5.24902Z" fill="#FF8E2B"/>
<path d="M37.1963 15.6553C37.0146 15.4727 36.7627 15.3691 36.5059 15.3691C36.249 15.3691 35.9971 15.4727 35.8154 15.6553C35.6338 15.8369 35.5293 16.0879 35.5293 16.3457C35.5293 16.6025 35.6338 16.8535 35.8154 17.0361C35.9971 17.2178 36.249 17.3223 36.5059 17.3223C36.7627 17.3223 37.0146 17.2178 37.1963 17.0361C37.3779 16.8545 37.4824 16.6025 37.4824 16.3457C37.4824 16.0879 37.3779 15.8359 37.1963 15.6553Z" fill="#FF8E2B"/>
<path d="M37.1963 15.6553C37.0146 15.4727 36.7627 15.3691 36.5059 15.3691C36.249 15.3691 35.9971 15.4727 35.8154 15.6553C35.6338 15.8369 35.5293 16.0879 35.5293 16.3457C35.5293 16.6025 35.6338 16.8535 35.8154 17.0361C35.9971 17.2178 36.249 17.3223 36.5059 17.3223C36.7627 17.3223 37.0146 17.2178 37.1963 17.0361C37.3779 16.8545 37.4824 16.6025 37.4824 16.3457C37.4824 16.0879 37.3779 15.8359 37.1963 15.6553Z" fill="#FF8E2B"/>
<path d="M24.0234 9.96094H6.25C5.71094 9.96094 5.27344 10.3984 5.27344 10.9375C5.27344 11.4766 5.71094 11.9141 6.25 11.9141H24.0234C24.5625 11.9141 25 11.4766 25 10.9375C25 10.3984 24.5625 9.96094 24.0234 9.96094Z" fill="#FF8E2B"/>
<path d="M24.0234 9.96094H6.25C5.71094 9.96094 5.27344 10.3984 5.27344 10.9375C5.27344 11.4766 5.71094 11.9141 6.25 11.9141H24.0234C24.5625 11.9141 25 11.4766 25 10.9375C25 10.3984 24.5625 9.96094 24.0234 9.96094Z" fill="#FF8E2B"/>
<path d="M11.668 19.3359H6.25C5.71094 19.3359 5.27344 19.7734 5.27344 20.3125C5.27344 20.8516 5.71094 21.2891 6.25 21.2891H11.668C12.207 21.2891 12.6445 20.8516 12.6445 20.3125C12.6445 19.7734 12.207 19.3359 11.668 19.3359Z" fill="#FF8E2B"/>
<path d="M11.668 19.3359H6.25C5.71094 19.3359 5.27344 19.7734 5.27344 20.3125C5.27344 20.8516 5.71094 21.2891 6.25 21.2891H11.668C12.207 21.2891 12.6445 20.8516 12.6445 20.3125C12.6445 19.7734 12.207 19.3359 11.668 19.3359Z" fill="#FF8E2B"/>
<path d="M24.7139 14.9346C24.5322 14.7529 24.2812 14.6484 24.0234 14.6484C23.7656 14.6484 23.5146 14.7529 23.333 14.9346C23.1514 15.1162 23.0469 15.3682 23.0469 15.625C23.0469 15.8818 23.1514 16.1338 23.333 16.3154C23.5146 16.4971 23.7656 16.6016 24.0234 16.6016C24.2812 16.6016 24.5322 16.4971 24.7139 16.3154C24.8955 16.1338 25 15.8818 25 15.625C25 15.3682 24.8955 15.1162 24.7139 14.9346Z" fill="#FF8E2B"/>
<path d="M24.7139 14.9346C24.5322 14.7529 24.2812 14.6484 24.0234 14.6484C23.7656 14.6484 23.5146 14.7529 23.333 14.9346C23.1514 15.1162 23.0469 15.3682 23.0469 15.625C23.0469 15.8818 23.1514 16.1338 23.333 16.3154C23.5146 16.4971 23.7656 16.6016 24.0234 16.6016C24.2812 16.6016 24.5322 16.4971 24.7139 16.3154C24.8955 16.1338 25 15.8818 25 15.625C25 15.3682 24.8955 15.1162 24.7139 14.9346Z" fill="#FF8E2B"/>
<path d="M19.8975 14.6484H6.25C5.71094 14.6484 5.27344 15.0859 5.27344 15.625C5.27344 16.1641 5.71094 16.6016 6.25 16.6016H19.8975C20.4365 16.6016 20.874 16.1641 20.874 15.625C20.874 15.0859 20.4365 14.6484 19.8975 14.6484Z" fill="#FF8E2B"/>
<path d="M19.8975 14.6484H6.25C5.71094 14.6484 5.27344 15.0859 5.27344 15.625C5.27344 16.1641 5.71094 16.6016 6.25 16.6016H19.8975C20.4365 16.6016 20.874 16.1641 20.874 15.625C20.874 15.0859 20.4365 14.6484 19.8975 14.6484Z" fill="#FF8E2B"/>
<path d="M39.6553 38.958C39.4736 38.7764 39.2217 38.6719 38.9648 38.6719C38.708 38.6719 38.4561 38.7764 38.2744 38.958C38.0928 39.1396 37.9883 39.3916 37.9883 39.6484C37.9883 39.9053 38.0928 40.1572 38.2744 40.3389C38.4561 40.5205 38.708 40.625 38.9648 40.625C39.2217 40.625 39.4736 40.5205 39.6553 40.3389C39.8369 40.1572 39.9414 39.9053 39.9414 39.6484C39.9414 39.3916 39.8369 39.1396 39.6553 38.958Z" fill="#FF8E2B"/>
<path d="M39.6553 38.958C39.4736 38.7764 39.2217 38.6719 38.9648 38.6719C38.708 38.6719 38.4561 38.7764 38.2744 38.958C38.0928 39.1396 37.9883 39.3916 37.9883 39.6484C37.9883 39.9053 38.0928 40.1572 38.2744 40.3389C38.4561 40.5205 38.708 40.625 38.9648 40.625C39.2217 40.625 39.4736 40.5205 39.6553 40.3389C39.8369 40.1572 39.9414 39.9053 39.9414 39.6484C39.9414 39.3916 39.8369 39.1396 39.6553 38.958Z" fill="#FF8E2B"/>
</g>
<defs>
<clipPath id="clip0_1_2749">
<rect width="50" height="50" fill="white"/>
</clipPath>
</defs>
</svg>
