<svg width="50" height="50" viewBox="0 0 50 50" fill="none" xmlns="http://www.w3.org/2000/svg">
<g opacity="0.8" clip-path="url(#clip0_1_2748)">
<path d="M25.9761 21.8262V13.3301C25.9761 12.791 25.5386 12.3535 24.9995 12.3535C24.4605 12.3535 24.023 12.791 24.023 13.3301V21.8252C23.8218 21.8867 23.6294 21.9678 23.4468 22.0654L20.7583 19.377C20.3774 18.9961 19.7583 18.9961 19.3774 19.377C18.9966 19.7578 18.9966 20.377 19.3774 20.7578L22.0659 23.4463C21.8198 23.9102 21.6792 24.4385 21.6792 24.999C21.6792 26.8301 23.1685 28.3193 24.9995 28.3193C26.8306 28.3193 28.3198 26.8301 28.3198 24.999C28.3198 23.5088 27.3315 22.2441 25.9761 21.8262ZM24.9995 26.3672C24.2456 26.3672 23.6323 25.7539 23.6323 25C23.6323 24.2461 24.2456 23.6328 24.9995 23.6328C25.7534 23.6328 26.3667 24.2461 26.3667 25C26.3667 25.7539 25.7534 26.3672 24.9995 26.3672Z" fill="#4A2682"/>
<path d="M25.9761 21.8262V13.3301C25.9761 12.791 25.5386 12.3535 24.9995 12.3535C24.4605 12.3535 24.023 12.791 24.023 13.3301V21.8252C23.8218 21.8867 23.6294 21.9678 23.4468 22.0654L20.7583 19.377C20.3774 18.9961 19.7583 18.9961 19.3774 19.377C18.9966 19.7578 18.9966 20.377 19.3774 20.7578L22.0659 23.4463C21.8198 23.9102 21.6792 24.4385 21.6792 24.999C21.6792 26.8301 23.1685 28.3193 24.9995 28.3193C26.8306 28.3193 28.3198 26.8301 28.3198 24.999C28.3198 23.5088 27.3315 22.2441 25.9761 21.8262ZM24.9995 26.3672C24.2456 26.3672 23.6323 25.7539 23.6323 25C23.6323 24.2461 24.2456 23.6328 24.9995 23.6328C25.7534 23.6328 26.3667 24.2461 26.3667 25C26.3667 25.7539 25.7534 26.3672 24.9995 26.3672Z" fill="#4A2682"/>
<path d="M35.8867 20.3457H33.2109V19.6621C33.2109 19.2852 33.5176 18.9785 33.8945 18.9785H34.2266C35.6807 18.9785 36.8633 17.7959 36.8633 16.3418C36.8633 14.8877 35.6807 13.7051 34.2266 13.7051H32.2344C31.6953 13.7051 31.2578 14.1426 31.2578 14.6816C31.2578 15.2207 31.6953 15.6582 32.2344 15.6582H34.2266C34.6035 15.6582 34.9102 15.9648 34.9102 16.3418C34.9102 16.7188 34.6035 17.0254 34.2266 17.0254H33.8945C32.4404 17.0254 31.2578 18.208 31.2578 19.6621V21.3223C31.2578 21.8613 31.6953 22.2988 32.2344 22.2988H35.8867C36.4258 22.2988 36.8633 21.8613 36.8633 21.3223C36.8633 20.7832 36.4258 20.3457 35.8867 20.3457Z" fill="#4A2682"/>
<path d="M35.8867 20.3457H33.2109V19.6621C33.2109 19.2852 33.5176 18.9785 33.8945 18.9785H34.2266C35.6807 18.9785 36.8633 17.7959 36.8633 16.3418C36.8633 14.8877 35.6807 13.7051 34.2266 13.7051H32.2344C31.6953 13.7051 31.2578 14.1426 31.2578 14.6816C31.2578 15.2207 31.6953 15.6582 32.2344 15.6582H34.2266C34.6035 15.6582 34.9102 15.9648 34.9102 16.3418C34.9102 16.7188 34.6035 17.0254 34.2266 17.0254H33.8945C32.4404 17.0254 31.2578 18.208 31.2578 19.6621V21.3223C31.2578 21.8613 31.6953 22.2988 32.2344 22.2988H35.8867C36.4258 22.2988 36.8633 21.8613 36.8633 21.3223C36.8633 20.7832 36.4258 20.3457 35.8867 20.3457Z" fill="#4A2682"/>
<path d="M42.4824 13.4131C41.9434 13.4131 41.5059 13.8506 41.5059 14.3896V17.0654H39.8066V14.3896C39.8066 13.8506 39.3691 13.4131 38.8301 13.4131C38.291 13.4131 37.8535 13.8506 37.8535 14.3896V18.042C37.8535 18.5811 38.291 19.0186 38.8301 19.0186H41.5059V21.3223C41.5059 21.8613 41.9434 22.2988 42.4824 22.2988C43.0215 22.2988 43.459 21.8613 43.459 21.3223V14.3896C43.459 13.8506 43.0215 13.4131 42.4824 13.4131Z" fill="#4A2682"/>
<path d="M42.4824 13.4131C41.9434 13.4131 41.5059 13.8506 41.5059 14.3896V17.0654H39.8066V14.3896C39.8066 13.8506 39.3691 13.4131 38.8301 13.4131C38.291 13.4131 37.8535 13.8506 37.8535 14.3896V18.042C37.8535 18.5811 38.291 19.0186 38.8301 19.0186H41.5059V21.3223C41.5059 21.8613 41.9434 22.2988 42.4824 22.2988C43.0215 22.2988 43.459 21.8613 43.459 21.3223V14.3896C43.459 13.8506 43.0215 13.4131 42.4824 13.4131Z" fill="#4A2682"/>
<path d="M46.5303 16.6934H46.3477V14.3896C46.3477 13.8506 45.9102 13.4131 45.3711 13.4131C44.832 13.4131 44.3945 13.8506 44.3945 14.3896V21.3223C44.3945 21.8613 44.832 22.2988 45.3711 22.2988C45.9102 22.2988 46.3477 21.8613 46.3477 21.3223V18.6465H46.5303C47.3662 18.6465 48.0469 19.3271 48.0469 20.1631V21.3223C48.0469 21.8613 48.4844 22.2988 49.0234 22.2988C49.5625 22.2988 50 21.8613 50 21.3223V20.1631C50 18.25 48.4433 16.6934 46.5303 16.6934Z" fill="#4A2682"/>
<path d="M46.5303 16.6934H46.3477V14.3896C46.3477 13.8506 45.9102 13.4131 45.3711 13.4131C44.832 13.4131 44.3945 13.8506 44.3945 14.3896V21.3223C44.3945 21.8613 44.832 22.2988 45.3711 22.2988C45.9102 22.2988 46.3477 21.8613 46.3477 21.3223V18.6465H46.5303C47.3662 18.6465 48.0469 19.3271 48.0469 20.1631V21.3223C48.0469 21.8613 48.4844 22.2988 49.0234 22.2988C49.5625 22.2988 50 21.8613 50 21.3223V20.1631C50 18.25 48.4433 16.6934 46.5303 16.6934Z" fill="#4A2682"/>
<path d="M25.6514 40.5527C25.4697 40.3711 25.2178 40.2666 24.9609 40.2666C24.7041 40.2666 24.4521 40.3711 24.2705 40.5527C24.0889 40.7344 23.9844 40.9863 23.9844 41.2432C23.9844 41.501 24.0889 41.752 24.2705 41.9336C24.4521 42.1162 24.7041 42.2197 24.9609 42.2197C25.2178 42.2197 25.4697 42.1162 25.6514 41.9336C25.833 41.752 25.9375 41.5 25.9375 41.2432C25.9375 40.9863 25.833 40.7344 25.6514 40.5527Z" fill="#FF8E2B"/>
<path d="M25.6514 40.5527C25.4697 40.3711 25.2178 40.2666 24.9609 40.2666C24.7041 40.2666 24.4521 40.3711 24.2705 40.5527C24.0889 40.7344 23.9844 40.9863 23.9844 41.2432C23.9844 41.501 24.0889 41.752 24.2705 41.9336C24.4521 42.1162 24.7041 42.2197 24.9609 42.2197C25.2178 42.2197 25.4697 42.1162 25.6514 41.9336C25.833 41.752 25.9375 41.5 25.9375 41.2432C25.9375 40.9863 25.833 40.7344 25.6514 40.5527Z" fill="#FF8E2B"/>
<path d="M14.167 35.7949C13.9854 35.6133 13.7334 35.5088 13.4766 35.5088C13.2188 35.5088 12.9678 35.6133 12.7861 35.7949C12.6035 35.9766 12.5 36.2285 12.5 36.4863C12.5 36.7432 12.6035 36.9951 12.7861 37.1768C12.9678 37.3584 13.2188 37.4629 13.4766 37.4629C13.7334 37.4629 13.9844 37.3584 14.167 37.1768C14.3486 36.9941 14.4531 36.7432 14.4531 36.4863C14.4531 36.2285 14.3486 35.9775 14.167 35.7949Z" fill="#FF8E2B"/>
<path d="M14.167 35.7949C13.9854 35.6133 13.7334 35.5088 13.4766 35.5088C13.2188 35.5088 12.9678 35.6133 12.7861 35.7949C12.6035 35.9766 12.5 36.2285 12.5 36.4863C12.5 36.7432 12.6035 36.9951 12.7861 37.1768C12.9678 37.3584 13.2188 37.4629 13.4766 37.4629C13.7334 37.4629 13.9844 37.3584 14.167 37.1768C14.3486 36.9941 14.4531 36.7432 14.4531 36.4863C14.4531 36.2285 14.3486 35.9775 14.167 35.7949Z" fill="#FF8E2B"/>
<path d="M9.40918 24.3096C9.22754 24.1279 8.97559 24.0234 8.71875 24.0234C8.46191 24.0234 8.20996 24.1279 8.02832 24.3096C7.8457 24.4912 7.74219 24.7432 7.74219 25C7.74219 25.2568 7.8457 25.5088 8.02832 25.6904C8.20996 25.8721 8.46191 25.9766 8.71875 25.9766C8.97559 25.9766 9.22754 25.8721 9.40918 25.6904C9.59082 25.5088 9.69531 25.2568 9.69531 25C9.69531 24.7432 9.59082 24.4912 9.40918 24.3096Z" fill="#FF8E2B"/>
<path d="M9.40918 24.3096C9.22754 24.1279 8.97559 24.0234 8.71875 24.0234C8.46191 24.0234 8.20996 24.1279 8.02832 24.3096C7.8457 24.4912 7.74219 24.7432 7.74219 25C7.74219 25.2568 7.8457 25.5088 8.02832 25.6904C8.20996 25.8721 8.46191 25.9766 8.71875 25.9766C8.97559 25.9766 9.22754 25.8721 9.40918 25.6904C9.59082 25.5088 9.69531 25.2568 9.69531 25C9.69531 24.7432 9.59082 24.4912 9.40918 24.3096Z" fill="#FF8E2B"/>
<path d="M14.167 12.8232C13.9854 12.6416 13.7334 12.5371 13.4766 12.5371C13.2188 12.5371 12.9678 12.6416 12.7861 12.8232C12.6035 13.0059 12.5 13.2568 12.5 13.5137C12.5 13.7705 12.6035 14.0225 12.7861 14.2051C12.9678 14.3867 13.2188 14.4912 13.4766 14.4912C13.7334 14.4912 13.9844 14.3867 14.167 14.2051C14.3486 14.0225 14.4531 13.7715 14.4531 13.5137C14.4531 13.2568 14.3486 13.0049 14.167 12.8232Z" fill="#FF8E2B"/>
<path d="M14.167 12.8232C13.9854 12.6416 13.7334 12.5371 13.4766 12.5371C13.2188 12.5371 12.9678 12.6416 12.7861 12.8232C12.6035 13.0059 12.5 13.2568 12.5 13.5137C12.5 13.7705 12.6035 14.0225 12.7861 14.2051C12.9678 14.3867 13.2188 14.4912 13.4766 14.4912C13.7334 14.4912 13.9844 14.3867 14.167 14.2051C14.3486 14.0225 14.4531 13.7715 14.4531 13.5137C14.4531 13.2568 14.3486 13.0049 14.167 12.8232Z" fill="#FF8E2B"/>
<path d="M25.6514 8.06641C25.4697 7.88379 25.2187 7.78027 24.9609 7.78027C24.7041 7.78027 24.4521 7.88379 24.2705 8.06641C24.0889 8.24805 23.9844 8.49902 23.9844 8.75684C23.9844 9.01367 24.0889 9.26562 24.2705 9.44727C24.4521 9.62891 24.7041 9.7334 24.9609 9.7334C25.2187 9.7334 25.4697 9.62891 25.6514 9.44727C25.833 9.26562 25.9375 9.01367 25.9375 8.75684C25.9375 8.5 25.833 8.24805 25.6514 8.06641Z" fill="#FF8E2B"/>
<path d="M25.6514 8.06641C25.4697 7.88379 25.2187 7.78027 24.9609 7.78027C24.7041 7.78027 24.4521 7.88379 24.2705 8.06641C24.0889 8.24805 23.9844 8.49902 23.9844 8.75684C23.9844 9.01367 24.0889 9.26562 24.2705 9.44727C24.4521 9.62891 24.7041 9.7334 24.9609 9.7334C25.2187 9.7334 25.4697 9.62891 25.6514 9.44727C25.833 9.26562 25.9375 9.01367 25.9375 8.75684C25.9375 8.5 25.833 8.24805 25.6514 8.06641Z" fill="#FF8E2B"/>
<path d="M37.1396 35.7949C36.958 35.6133 36.7061 35.5088 36.4492 35.5088C36.1914 35.5088 35.9404 35.6133 35.7578 35.7949C35.5762 35.9775 35.4727 36.2285 35.4727 36.4863C35.4727 36.7432 35.5762 36.9941 35.7578 37.1768C35.9404 37.3584 36.1924 37.4629 36.4492 37.4629C36.7061 37.4629 36.958 37.3584 37.1396 37.1768C37.3213 36.9941 37.4258 36.7432 37.4258 36.4863C37.4258 36.2285 37.3213 35.9775 37.1396 35.7949Z" fill="#FF8E2B"/>
<path d="M37.1396 35.7949C36.958 35.6133 36.7061 35.5088 36.4492 35.5088C36.1914 35.5088 35.9404 35.6133 35.7578 35.7949C35.5762 35.9775 35.4727 36.2285 35.4727 36.4863C35.4727 36.7432 35.5762 36.9941 35.7578 37.1768C35.9404 37.3584 36.1924 37.4629 36.4492 37.4629C36.7061 37.4629 36.958 37.3584 37.1396 37.1768C37.3213 36.9941 37.4258 36.7432 37.4258 36.4863C37.4258 36.2285 37.3213 35.9775 37.1396 35.7949Z" fill="#FF8E2B"/>
<path d="M49.0234 24.0248H44.5312C43.9922 24.0248 43.5547 24.4623 43.5547 25.0013C43.5547 35.2328 35.2314 43.556 25 43.556C20.0283 43.556 15.3643 41.6302 11.8682 38.1332C8.37109 34.6371 6.44531 29.973 6.44531 25.0013C6.44531 14.7699 14.7686 6.44665 25 6.44665C27.2168 6.44665 29.3682 6.82946 31.416 7.58532L30.0225 8.97888C29.7432 9.25817 29.6602 9.6781 29.8105 10.0433C29.9619 10.4086 30.3174 10.6459 30.7129 10.6459H39.3691C39.9082 10.6459 40.3457 10.2084 40.3457 9.66931V1.01306C40.3457 0.61755 40.1074 0.262081 39.7432 0.110714C39.3789 -0.0406531 38.958 0.0433313 38.6787 0.322628L36.3037 2.69763C32.8809 0.9613 29.0557 0.0316125 25.1943 0.00231564C19.8271 -0.0347937 14.6836 1.63122 10.3164 4.82946C9.88086 5.14782 9.78711 5.75915 10.1055 6.1947C10.4238 6.63024 11.0352 6.724 11.4707 6.40564C15.4482 3.49157 20.124 1.95446 25.0029 1.95446C25.0615 1.95446 25.1211 1.95446 25.1797 1.95544C28.9658 1.98474 32.7139 2.95153 36.0186 4.75427C36.3984 4.9613 36.8701 4.89392 37.1768 4.58728L38.3936 3.37048V8.69275H33.0713L33.8311 7.93298C34.0566 7.70739 34.1582 7.38513 34.1016 7.0697C34.0449 6.75427 33.8379 6.48767 33.5479 6.35485C30.8564 5.1195 27.9805 4.49353 25 4.49353C13.6924 4.49353 4.49219 13.6937 4.49219 25.0013C4.49219 30.4945 6.62109 35.6488 10.4863 39.515C14.3525 43.3802 19.5068 45.5091 25 45.5091C35.9805 45.5091 44.9736 36.8343 45.4844 25.9779H48.0264C47.5127 38.2347 37.3809 48.0482 25 48.0482C12.292 48.0482 1.95312 37.7093 1.95312 25.0013C1.95312 20.3881 3.3418 15.9213 5.96875 12.0834C6.27344 11.6381 6.15918 11.0306 5.71484 10.7259C5.26953 10.4213 4.66211 10.5345 4.35742 10.9799C1.50684 15.1449 0 19.9935 0 25.0013C0 31.6791 2.60059 37.9574 7.32227 42.6791C12.0439 47.4007 18.3223 50.0013 25 50.0013C31.6777 50.0013 37.9561 47.4007 42.6777 42.6791C47.3994 37.9574 50 31.6791 50 25.0013C50 24.4623 49.5625 24.0248 49.0234 24.0248Z" fill="#4A2682"/>
<path d="M49.0234 24.0248H44.5312C43.9922 24.0248 43.5547 24.4623 43.5547 25.0013C43.5547 35.2328 35.2314 43.556 25 43.556C20.0283 43.556 15.3643 41.6302 11.8682 38.1332C8.37109 34.6371 6.44531 29.973 6.44531 25.0013C6.44531 14.7699 14.7686 6.44665 25 6.44665C27.2168 6.44665 29.3682 6.82946 31.416 7.58532L30.0225 8.97888C29.7432 9.25817 29.6602 9.6781 29.8105 10.0433C29.9619 10.4086 30.3174 10.6459 30.7129 10.6459H39.3691C39.9082 10.6459 40.3457 10.2084 40.3457 9.66931V1.01306C40.3457 0.61755 40.1074 0.262081 39.7432 0.110714C39.3789 -0.0406531 38.958 0.0433313 38.6787 0.322628L36.3037 2.69763C32.8809 0.9613 29.0557 0.0316125 25.1943 0.00231564C19.8271 -0.0347937 14.6836 1.63122 10.3164 4.82946C9.88086 5.14782 9.78711 5.75915 10.1055 6.1947C10.4238 6.63024 11.0352 6.724 11.4707 6.40564C15.4482 3.49157 20.124 1.95446 25.0029 1.95446C25.0615 1.95446 25.1211 1.95446 25.1797 1.95544C28.9658 1.98474 32.7139 2.95153 36.0186 4.75427C36.3984 4.9613 36.8701 4.89392 37.1768 4.58728L38.3936 3.37048V8.69275H33.0713L33.8311 7.93298C34.0566 7.70739 34.1582 7.38513 34.1016 7.0697C34.0449 6.75427 33.8379 6.48767 33.5479 6.35485C30.8564 5.1195 27.9805 4.49353 25 4.49353C13.6924 4.49353 4.49219 13.6937 4.49219 25.0013C4.49219 30.4945 6.62109 35.6488 10.4863 39.515C14.3525 43.3802 19.5068 45.5091 25 45.5091C35.9805 45.5091 44.9736 36.8343 45.4844 25.9779H48.0264C47.5127 38.2347 37.3809 48.0482 25 48.0482C12.292 48.0482 1.95312 37.7093 1.95312 25.0013C1.95312 20.3881 3.3418 15.9213 5.96875 12.0834C6.27344 11.6381 6.15918 11.0306 5.71484 10.7259C5.26953 10.4213 4.66211 10.5345 4.35742 10.9799C1.50684 15.1449 0 19.9935 0 25.0013C0 31.6791 2.60059 37.9574 7.32227 42.6791C12.0439 47.4007 18.3223 50.0013 25 50.0013C31.6777 50.0013 37.9561 47.4007 42.6777 42.6791C47.3994 37.9574 50 31.6791 50 25.0013C50 24.4623 49.5625 24.0248 49.0234 24.0248Z" fill="#4A2682"/>
<path d="M8.63329 7.47168C8.25243 7.09082 7.63329 7.09082 7.25243 7.47168L7.23192 7.49219C6.8579 7.88086 6.86571 8.50195 7.25438 8.87597C7.44481 9.05957 7.68993 9.15137 7.93407 9.15137C8.18798 9.15137 8.44188 9.05176 8.63231 8.85449L7.94286 8.16308L8.63329 8.85351C9.01415 8.47168 9.01415 7.85352 8.63329 7.47168Z" fill="#FF8E2B"/>
<path d="M8.63329 7.47168C8.25243 7.09082 7.63329 7.09082 7.25243 7.47168L7.23192 7.49219C6.8579 7.88086 6.86571 8.50195 7.25438 8.87597C7.44481 9.05957 7.68993 9.15137 7.93407 9.15137C8.18798 9.15137 8.44188 9.05176 8.63231 8.85449L7.94286 8.16308L8.63329 8.85351C9.01415 8.47168 9.01415 7.85352 8.63329 7.47168Z" fill="#FF8E2B"/>
<path d="M25 36.0352C18.915 36.0352 13.9648 31.085 13.9648 25C13.9648 24.4609 13.5273 24.0234 12.9883 24.0234C12.4492 24.0234 12.0117 24.4609 12.0117 25C12.0117 32.1621 17.8379 37.9883 25 37.9883C25.5391 37.9883 25.9766 37.5508 25.9766 37.0117C25.9766 36.4727 25.5391 36.0352 25 36.0352Z" fill="#4A2682"/>
<path d="M25 36.0352C18.915 36.0352 13.9648 31.085 13.9648 25C13.9648 24.4609 13.5273 24.0234 12.9883 24.0234C12.4492 24.0234 12.0117 24.4609 12.0117 25C12.0117 32.1621 17.8379 37.9883 25 37.9883C25.5391 37.9883 25.9766 37.5508 25.9766 37.0117C25.9766 36.4727 25.5391 36.0352 25 36.0352Z" fill="#4A2682"/>
</g>
<defs>
<clipPath id="clip0_1_2748">
<rect width="50" height="50" fill="white"/>
</clipPath>
</defs>
</svg>
