<svg width="50" height="50" viewBox="0 0 50 50" fill="none" xmlns="http://www.w3.org/2000/svg">
<g opacity="0.8" clip-path="url(#clip0_1_2750)">
<path d="M17.6581 17.9169C17.2362 17.5809 16.6219 17.6503 16.286 18.0721L16.2694 18.0926C15.9335 18.5145 16.0028 19.1288 16.4247 19.4647C16.6044 19.6083 16.8192 19.6776 17.0331 19.6776C17.3202 19.6776 17.6044 19.5516 17.7977 19.3094L17.8143 19.2889C18.1483 18.868 18.079 18.2528 17.6581 17.9169Z" fill="#FF8E2B"/>
<path d="M17.6581 17.9169C17.2362 17.5809 16.6219 17.6503 16.286 18.0721L16.2694 18.0926C15.9335 18.5145 16.0028 19.1288 16.4247 19.4647C16.6044 19.6083 16.8192 19.6776 17.0331 19.6776C17.3202 19.6776 17.6044 19.5516 17.7977 19.3094L17.8143 19.2889C18.1483 18.868 18.079 18.2528 17.6581 17.9169Z" fill="#FF8E2B"/>
<path d="M32.8726 17.1279C31.0777 15.333 28.7027 14.1973 26.1831 13.9297C23.7007 13.666 21.1782 14.249 19.0777 15.5703C18.6216 15.8574 18.4839 16.4609 18.771 16.917C19.0581 17.373 19.6607 17.5107 20.1177 17.2236C23.7632 14.9297 28.4409 15.458 31.4917 18.5088C31.6822 18.6992 31.9322 18.7949 32.1822 18.7949C32.4322 18.7949 32.6822 18.6992 32.8726 18.5088C33.2544 18.1279 33.2544 17.5098 32.8726 17.1279Z" fill="#4A2682"/>
<path d="M32.8726 17.1279C31.0777 15.333 28.7027 14.1973 26.1831 13.9297C23.7007 13.666 21.1782 14.249 19.0777 15.5703C18.6216 15.8574 18.4839 16.4609 18.771 16.917C19.0581 17.373 19.6607 17.5107 20.1177 17.2236C23.7632 14.9297 28.4409 15.458 31.4917 18.5088C31.6822 18.6992 31.9322 18.7949 32.1822 18.7949C32.4322 18.7949 32.6822 18.6992 32.8726 18.5088C33.2544 18.1279 33.2544 17.5098 32.8726 17.1279Z" fill="#4A2682"/>
<path d="M49.6982 14.4023L45.2783 9.98242C44.8965 9.60156 44.2783 9.60156 43.8975 9.98242L24.9453 28.9346L15.3301 19.3193C14.9482 18.9385 14.3301 18.9385 13.9492 19.3193L9.53027 23.7393C9.34668 23.9229 9.24414 24.1709 9.24414 24.4297C9.24414 24.6885 9.34668 24.9375 9.53027 25.1201L24.2559 39.8457C24.4463 40.0361 24.6963 40.1318 24.9463 40.1318C25.1963 40.1318 25.4463 40.0361 25.6367 39.8457L34.624 30.8584C35.0049 30.4775 35.0049 29.8584 34.624 29.4775C34.2422 29.0967 33.624 29.0967 33.2432 29.4775L24.9463 37.7744L11.6006 24.4287L14.6387 21.3906L24.2539 31.0059C24.6357 31.3867 25.2539 31.3867 25.6348 31.0059L44.5869 12.0537L47.625 15.0918L38.3193 24.3975C37.9385 24.7783 37.9385 25.3975 38.3193 25.7783C38.7012 26.1592 39.3193 26.1592 39.7002 25.7783L49.6963 15.7822C50.0791 15.4023 50.0791 14.7832 49.6982 14.4023Z" fill="#4A2682"/>
<path d="M49.6982 14.4023L45.2783 9.98242C44.8965 9.60156 44.2783 9.60156 43.8975 9.98242L24.9453 28.9346L15.3301 19.3193C14.9482 18.9385 14.3301 18.9385 13.9492 19.3193L9.53027 23.7393C9.34668 23.9229 9.24414 24.1709 9.24414 24.4297C9.24414 24.6885 9.34668 24.9375 9.53027 25.1201L24.2559 39.8457C24.4463 40.0361 24.6963 40.1318 24.9463 40.1318C25.1963 40.1318 25.4463 40.0361 25.6367 39.8457L34.624 30.8584C35.0049 30.4775 35.0049 29.8584 34.624 29.4775C34.2422 29.0967 33.624 29.0967 33.2432 29.4775L24.9463 37.7744L11.6006 24.4287L14.6387 21.3906L24.2539 31.0059C24.6357 31.3867 25.2539 31.3867 25.6348 31.0059L44.5869 12.0537L47.625 15.0918L38.3193 24.3975C37.9385 24.7783 37.9385 25.3975 38.3193 25.7783C38.7012 26.1592 39.3193 26.1592 39.7002 25.7783L49.6963 15.7822C50.0791 15.4023 50.0791 14.7832 49.6982 14.4023Z" fill="#4A2682"/>
<path d="M37.3047 26.7969C37.1221 26.6152 36.8711 26.5107 36.6133 26.5107C36.3564 26.5107 36.1045 26.6152 35.9229 26.7969C35.7412 26.9785 35.6367 27.2305 35.6367 27.4873C35.6367 27.7441 35.7412 27.9961 35.9229 28.1777C36.1045 28.3594 36.3564 28.4639 36.6133 28.4639C36.8701 28.4639 37.1221 28.3594 37.3047 28.1777C37.4863 27.9961 37.5898 27.7441 37.5898 27.4873C37.5898 27.2295 37.4863 26.9785 37.3047 26.7969Z" fill="#FF8E2B"/>
<path d="M37.3047 26.7969C37.1221 26.6152 36.8711 26.5107 36.6133 26.5107C36.3564 26.5107 36.1045 26.6152 35.9229 26.7969C35.7412 26.9785 35.6367 27.2305 35.6367 27.4873C35.6367 27.7441 35.7412 27.9961 35.9229 28.1777C36.1045 28.3594 36.3564 28.4639 36.6133 28.4639C36.8701 28.4639 37.1221 28.3594 37.3047 28.1777C37.4863 27.9961 37.5898 27.7441 37.5898 27.4873C37.5898 27.2295 37.4863 26.9785 37.3047 26.7969Z" fill="#FF8E2B"/>
<path d="M49.6761 30.5382L48.5492 29.5206C47.2787 28.3731 46.5462 26.7354 46.5394 25.0235C46.5374 24.4932 46.1224 24.0382 45.5921 24.0235C45.0394 24.0069 44.5863 24.4503 44.5863 25.0001C44.5863 27.2725 45.5531 29.4483 47.2396 30.9708L47.8548 31.5264L45.7718 36.5479L44.9417 36.5059C42.6761 36.3897 40.4525 37.2442 38.847 38.8507C37.2415 40.4571 36.387 42.6778 36.5023 44.9454L36.5443 45.7755L31.5228 47.8585L30.9671 47.2432C29.4447 45.5567 27.2679 44.5899 24.9964 44.5899C22.724 44.5899 20.5482 45.5567 19.0257 47.2432L18.4701 47.8585L13.4486 45.7755L13.4906 44.9454C13.6068 42.6778 12.7523 40.4561 11.1458 38.8497C9.54037 37.2442 7.31967 36.3888 5.05111 36.505L4.22103 36.547L2.13802 31.5255L2.75521 30.9688C4.44076 29.4473 5.40756 27.2716 5.40756 24.9972C5.40756 22.7266 4.44076 20.5509 2.75521 19.0294L2.13802 18.4727L4.22103 13.4513L5.05111 13.4932C7.31869 13.6095 9.54037 12.755 11.1468 11.1485C12.7523 9.54305 13.6068 7.32137 13.4915 5.05282L13.4495 4.22274L18.471 2.13973L19.0277 2.75692C20.5492 4.44247 22.724 5.40926 24.9994 5.40926C27.2699 5.40926 29.4456 4.44247 30.9671 2.75692L31.5238 2.13973L36.5452 4.22274L36.5033 5.05282C36.4066 6.94833 36.9876 8.81161 38.1185 10.3097C38.4749 10.7823 39.1693 10.8272 39.5872 10.4093C39.9329 10.0636 39.9671 9.51864 39.6742 9.12899C38.8197 7.9952 38.3812 6.587 38.4544 5.15341L38.5316 3.63583C38.5521 3.22372 38.3119 2.84188 37.931 2.68368L31.6361 0.0733273C31.2542 -0.0848758 30.8138 0.013757 30.5374 0.321374L29.5189 1.45028C28.3665 2.72665 26.7201 3.45809 24.9974 3.45809C23.2787 3.45809 21.6312 2.72665 20.4798 1.45028L19.4593 0.321374C19.182 0.0147335 18.7425 -0.0848758 18.3607 0.0733273L12.0667 2.68466C11.6849 2.84286 11.4447 3.22372 11.4652 3.6368L11.5423 5.15438C11.6302 6.87118 10.9828 8.55282 9.76791 9.76864C8.55209 10.9845 6.87142 11.6309 5.15365 11.544L3.63607 11.4669C3.22396 11.4454 2.84213 11.6866 2.68392 12.0675L0.0725949 18.3614C-0.0856082 18.7432 0.0130246 19.1837 0.320642 19.46L1.44955 20.4786C2.72592 21.6309 3.45736 23.2774 3.45736 25.0011C3.45736 26.7198 2.72592 28.3673 1.44955 29.5186L0.320642 30.5382C0.0140011 30.8155 -0.0856082 31.255 0.0725949 31.6368L2.68295 37.9307C2.84115 38.3126 3.22299 38.5528 3.6351 38.5313L5.15267 38.4542C6.86947 38.3673 8.55111 39.0138 9.76693 40.2286C10.9828 41.4444 11.6292 43.1261 11.5413 44.8429L11.4642 46.3604C11.4427 46.7725 11.6839 47.1544 12.0658 47.3126L18.3597 49.9229C18.7415 50.0811 19.181 49.9825 19.4583 49.6749L20.4759 48.5479C21.6292 47.2706 23.2767 46.5382 24.9974 46.5382C26.7181 46.5382 28.3656 47.2706 29.5189 48.5479L30.5365 49.6749C30.7259 49.8839 30.9906 49.9972 31.2621 49.9972C31.388 49.9972 31.515 49.9727 31.6361 49.9229L37.93 47.3126C38.3119 47.1544 38.5521 46.7735 38.5306 46.3604L38.4535 44.8429C38.3656 43.1261 39.013 41.4444 40.2279 40.2286C41.4437 39.0128 43.1234 38.3663 44.8421 38.4542L46.3597 38.5313C46.7699 38.5518 47.1537 38.3116 47.3119 37.9298L49.9222 31.6358C50.0824 31.255 49.9828 30.8155 49.6761 30.5382Z" fill="#4A2682"/>
<path d="M49.6761 30.5382L48.5492 29.5206C47.2787 28.3731 46.5462 26.7354 46.5394 25.0235C46.5374 24.4932 46.1224 24.0382 45.5921 24.0235C45.0394 24.0069 44.5863 24.4503 44.5863 25.0001C44.5863 27.2725 45.5531 29.4483 47.2396 30.9708L47.8548 31.5264L45.7718 36.5479L44.9417 36.5059C42.6761 36.3897 40.4525 37.2442 38.847 38.8507C37.2415 40.4571 36.387 42.6778 36.5023 44.9454L36.5443 45.7755L31.5228 47.8585L30.9671 47.2432C29.4447 45.5567 27.2679 44.5899 24.9964 44.5899C22.724 44.5899 20.5482 45.5567 19.0257 47.2432L18.4701 47.8585L13.4486 45.7755L13.4906 44.9454C13.6068 42.6778 12.7523 40.4561 11.1458 38.8497C9.54037 37.2442 7.31967 36.3888 5.05111 36.505L4.22103 36.547L2.13802 31.5255L2.75521 30.9688C4.44076 29.4473 5.40756 27.2716 5.40756 24.9972C5.40756 22.7266 4.44076 20.5509 2.75521 19.0294L2.13802 18.4727L4.22103 13.4513L5.05111 13.4932C7.31869 13.6095 9.54037 12.755 11.1468 11.1485C12.7523 9.54305 13.6068 7.32137 13.4915 5.05282L13.4495 4.22274L18.471 2.13973L19.0277 2.75692C20.5492 4.44247 22.724 5.40926 24.9994 5.40926C27.2699 5.40926 29.4456 4.44247 30.9671 2.75692L31.5238 2.13973L36.5452 4.22274L36.5033 5.05282C36.4066 6.94833 36.9876 8.81161 38.1185 10.3097C38.4749 10.7823 39.1693 10.8272 39.5872 10.4093C39.9329 10.0636 39.9671 9.51864 39.6742 9.12899C38.8197 7.9952 38.3812 6.587 38.4544 5.15341L38.5316 3.63583C38.5521 3.22372 38.3119 2.84188 37.931 2.68368L31.6361 0.0733273C31.2542 -0.0848758 30.8138 0.013757 30.5374 0.321374L29.5189 1.45028C28.3665 2.72665 26.7201 3.45809 24.9974 3.45809C23.2787 3.45809 21.6312 2.72665 20.4798 1.45028L19.4593 0.321374C19.182 0.0147335 18.7425 -0.0848758 18.3607 0.0733273L12.0667 2.68466C11.6849 2.84286 11.4447 3.22372 11.4652 3.6368L11.5423 5.15438C11.6302 6.87118 10.9828 8.55282 9.76791 9.76864C8.55209 10.9845 6.87142 11.6309 5.15365 11.544L3.63607 11.4669C3.22396 11.4454 2.84213 11.6866 2.68392 12.0675L0.0725949 18.3614C-0.0856082 18.7432 0.0130246 19.1837 0.320642 19.46L1.44955 20.4786C2.72592 21.6309 3.45736 23.2774 3.45736 25.0011C3.45736 26.7198 2.72592 28.3673 1.44955 29.5186L0.320642 30.5382C0.0140011 30.8155 -0.0856082 31.255 0.0725949 31.6368L2.68295 37.9307C2.84115 38.3126 3.22299 38.5528 3.6351 38.5313L5.15267 38.4542C6.86947 38.3673 8.55111 39.0138 9.76693 40.2286C10.9828 41.4444 11.6292 43.1261 11.5413 44.8429L11.4642 46.3604C11.4427 46.7725 11.6839 47.1544 12.0658 47.3126L18.3597 49.9229C18.7415 50.0811 19.181 49.9825 19.4583 49.6749L20.4759 48.5479C21.6292 47.2706 23.2767 46.5382 24.9974 46.5382C26.7181 46.5382 28.3656 47.2706 29.5189 48.5479L30.5365 49.6749C30.7259 49.8839 30.9906 49.9972 31.2621 49.9972C31.388 49.9972 31.515 49.9727 31.6361 49.9229L37.93 47.3126C38.3119 47.1544 38.5521 46.7735 38.5306 46.3604L38.4535 44.8429C38.3656 43.1261 39.013 41.4444 40.2279 40.2286C41.4437 39.0128 43.1234 38.3663 44.8421 38.4542L46.3597 38.5313C46.7699 38.5518 47.1537 38.3116 47.3119 37.9298L49.9222 31.6358C50.0824 31.255 49.9828 30.8155 49.6761 30.5382Z" fill="#4A2682"/>
</g>
<defs>
<clipPath id="clip0_1_2750">
<rect width="50" height="50" fill="white"/>
</clipPath>
</defs>
</svg>
