<svg width="24" height="24" viewBox="0 0 24 24" fill="none" xmlns="http://www.w3.org/2000/svg">
<g clip-path="url(#clip0_1_1638)">
<path d="M19.2393 3.06982C19.1315 3.06982 19.0302 3.01791 18.9654 2.93023C18.7677 2.65913 18.5468 2.40617 18.3051 2.17538C18.1667 2.04437 18.1588 1.82366 18.2878 1.68256C18.4163 1.54147 18.6328 1.53341 18.7712 1.66493C19.0426 1.92494 19.2912 2.20864 19.5131 2.5135C19.6263 2.6677 19.5957 2.88589 19.4449 3.00179C19.3856 3.04714 19.3139 3.07133 19.2398 3.07133L19.2393 3.06982Z" fill="#FF8E2B"/>
<path d="M20.412 13.93H3.52425C1.57776 13.93 0 12.3216 0 10.3372C0 8.35282 1.57776 6.74435 3.52425 6.74435H3.5549C3.95873 4.18199 6.32388 2.43848 8.83782 2.85017C8.92135 2.86378 9.00439 2.8799 9.08694 2.89804C9.85951 1.65491 11.0255 0.718147 12.3917 0.242964C12.5712 0.183503 12.7644 0.283781 12.8227 0.466698C12.8801 0.646592 12.7862 0.840596 12.6112 0.903584C11.3181 1.35357 10.2287 2.26614 9.54465 3.47149C9.46704 3.60754 9.30986 3.67355 9.16059 3.63273C8.82349 3.53901 8.4765 3.49013 8.12704 3.48761C6.09009 3.47955 4.38431 5.05828 4.19599 7.12631C4.17819 7.3052 4.0304 7.44075 3.85394 7.44024H3.52228C1.95342 7.44024 0.682114 8.73679 0.682114 10.3357C0.682114 11.9346 1.95391 13.2311 3.52228 13.2311H20.4115C21.9804 13.2311 23.2517 11.9346 23.2517 10.3357C23.2517 8.73629 21.9799 7.44024 20.4115 7.44024H20.3636C20.1747 7.44024 20.0215 7.28454 20.0215 7.09154C20.0215 7.07844 20.022 7.06483 20.024 7.05173C20.0527 6.81842 20.068 6.58411 20.07 6.34878C20.0709 6.06811 20.0507 5.78743 20.0092 5.50978C19.9765 5.32031 20.1006 5.13941 20.2865 5.10565C20.4723 5.07239 20.6498 5.19887 20.6829 5.38834C20.6839 5.39338 20.6844 5.39792 20.6848 5.40295C20.7318 5.71588 20.7545 6.03233 20.7531 6.34878C20.7531 6.47879 20.7481 6.61182 20.7382 6.75796C22.6783 6.90459 24.1345 8.62694 23.9906 10.6048C23.8522 12.506 22.2814 13.9658 20.412 13.93Z" fill="#2A0D56"/>
<path d="M16.5063 0.974452C16.4657 0.974452 16.4257 0.966893 16.3881 0.95228C16.0812 0.835878 15.7643 0.749206 15.4411 0.693777C15.2542 0.66707 15.1233 0.491207 15.1495 0.300227C15.1757 0.109247 15.3482 -0.0237844 15.5355 0.0029226C15.5414 0.00393041 15.5478 0.00493822 15.5538 0.00594603C15.9191 0.0689342 16.2774 0.166692 16.6249 0.298211C16.8023 0.364223 16.8933 0.564777 16.8285 0.745679C16.7786 0.883245 16.6501 0.974956 16.5063 0.974452Z" fill="#FF8E2B"/>
<path d="M11.9683 21.2664C11.7794 21.2664 11.6262 21.1102 11.6262 20.9177V13.5828C11.6262 13.3903 11.7794 13.2341 11.9683 13.2341C12.1571 13.2341 12.3103 13.3903 12.3103 13.5828V20.9177C12.3103 21.1102 12.1571 21.2664 11.9683 21.2664Z" fill="#2A0D56"/>
<path d="M11.9682 23.9999C11.0389 23.9999 10.2852 23.232 10.2852 22.2846C10.2852 21.3373 11.0384 20.5688 11.9677 20.5688C12.897 20.5688 13.6507 21.3368 13.6507 22.2841V22.2846C13.6498 23.2315 12.897 23.9989 11.9682 23.9999ZM11.9682 21.2663C11.4166 21.2663 10.9692 21.7218 10.9688 22.2841C10.9688 22.8465 11.4156 23.3025 11.9672 23.303C12.5188 23.303 12.9662 22.8475 12.9667 22.2851C12.9667 22.2851 12.9667 22.2851 12.9667 22.2846C12.9662 21.7228 12.5193 21.2673 11.9682 21.2663Z" fill="#2A0D56"/>
<path d="M20.5716 20.3412C19.6681 20.3412 18.936 19.5944 18.936 18.6738C18.936 17.7531 19.6686 17.0063 20.5716 17.0063C21.4752 17.0063 22.2072 17.7531 22.2072 18.6738C22.2067 19.5939 21.4747 20.3402 20.5716 20.3412ZM20.5716 17.7032C20.0462 17.7032 19.6196 18.1376 19.6196 18.6738C19.6196 19.2094 20.0457 19.6443 20.5716 19.6443C21.097 19.6443 21.5236 19.2099 21.5236 18.6738C21.5236 18.1376 21.0975 17.7032 20.5716 17.7027V17.7032Z" fill="#2A0D56"/>
<path d="M19.278 19.022H15.7982C15.6094 19.022 15.4562 18.8658 15.4562 18.6733V13.5833C15.4562 13.3908 15.6094 13.2346 15.7982 13.2346C15.987 13.2346 16.1403 13.3908 16.1403 13.5833V18.3251H19.2765C19.4653 18.3251 19.6185 18.4813 19.6185 18.6738C19.6185 18.8663 19.4653 19.0225 19.2765 19.0225L19.278 19.022Z" fill="#2A0D56"/>
<path d="M3.36386 20.3412C2.46031 20.3412 1.72827 19.5944 1.72827 18.6738C1.72827 17.7531 2.4608 17.0063 3.36386 17.0063C4.26692 17.0063 4.99945 17.7531 4.99945 18.6738C4.99895 19.5939 4.26692 20.3402 3.36386 20.3412ZM3.36386 17.7032C2.83844 17.7032 2.41187 18.1376 2.41187 18.6738C2.41187 19.2094 2.83794 19.6443 3.36386 19.6443C3.88978 19.6443 4.31585 19.2099 4.31585 18.6738C4.31536 18.1381 3.88978 17.7038 3.36386 17.7027V17.7032Z" fill="#2A0D56"/>
<path d="M8.1381 19.022H4.65833C4.46951 19.022 4.31628 18.8658 4.31628 18.6733C4.31628 18.4808 4.46951 18.3246 4.65833 18.3246H7.79605V13.5828C7.79605 13.3903 7.94928 13.2341 8.1381 13.2341C8.32691 13.2341 8.48014 13.3903 8.48014 13.5828V18.6733C8.48014 18.8663 8.32691 19.022 8.1381 19.022Z" fill="#2A0D56"/>
</g>
<defs>
<clipPath id="clip0_1_1638">
<rect width="24" height="24" fill="white"/>
</clipPath>
</defs>
</svg>
