<svg width="34" height="34" viewBox="0 0 34 34" fill="none" xmlns="http://www.w3.org/2000/svg">
<path fill-rule="evenodd" clip-rule="evenodd" d="M19.0873 27.2001V17.8944H22.098L22.5455 14.2698H19.0873V11.9532C19.0873 10.9053 19.3679 10.1882 20.8164 10.1882H22.6668V6.94188C22.3483 6.8946 21.2487 6.80005 19.9746 6.80005C17.3052 6.80005 15.4851 8.49414 15.4851 11.5987V14.2777H12.4668V17.9023H15.4851V27.2001H19.0873Z" fill="white"/>
<mask id="mask0_1_2377" style="mask-type:luminance" maskUnits="userSpaceOnUse" x="12" y="6" width="11" height="22">
<path fill-rule="evenodd" clip-rule="evenodd" d="M19.0873 27.2001V17.8944H22.098L22.5455 14.2698H19.0873V11.9532C19.0873 10.9053 19.3679 10.1882 20.8164 10.1882H22.6668V6.94188C22.3483 6.8946 21.2487 6.80005 19.9746 6.80005C17.3052 6.80005 15.4851 8.49414 15.4851 11.5987V14.2777H12.4668V17.9023H15.4851V27.2001H19.0873Z" fill="white"/>
</mask>
<g mask="url(#mask0_1_2377)">
</g>
</svg>
