<svg width="34" height="34" viewBox="0 0 34 34" fill="none" xmlns="http://www.w3.org/2000/svg">
<path fill-rule="evenodd" clip-rule="evenodd" d="M19.0871 27.202V17.8963H22.0978L22.5452 14.2718H19.0871V11.9552C19.0871 10.9072 19.3677 10.1902 20.8161 10.1902H22.6666V6.94383C22.348 6.89656 21.2484 6.802 19.9744 6.802C17.3049 6.802 15.4848 8.49609 15.4848 11.6006V14.2796H12.4666V17.9042H15.4848V27.202H19.0871Z" fill="#4A2682"/>
<mask id="mask0_4071_501" style="mask-type:luminance" maskUnits="userSpaceOnUse" x="12" y="6" width="11" height="22">
<path fill-rule="evenodd" clip-rule="evenodd" d="M19.0871 27.202V17.8963H22.0978L22.5452 14.2718H19.0871V11.9552C19.0871 10.9072 19.3677 10.1902 20.8161 10.1902H22.6666V6.94383C22.348 6.89656 21.2484 6.802 19.9744 6.802C17.3049 6.802 15.4848 8.49609 15.4848 11.6006V14.2796H12.4666V17.9042H15.4848V27.202H19.0871Z" fill="white"/>
</mask>
<g mask="url(#mask0_4071_501)">
</g>
</svg>
