<svg width="64" height="62" viewBox="0 0 64 62" fill="none" xmlns="http://www.w3.org/2000/svg">
<g clip-path="url(#clip0_1_2914)">
<path d="M61.4514 43.1495C61.4701 43.1104 61.4864 43.0713 61.5001 43.0309C65.2914 34.2001 64.6139 23.3725 59.6901 15.0979C62.3189 11.9268 58.9039 7.38465 55.1689 9.14174C54.5126 8.46439 53.8239 7.81604 53.1089 7.20302C54.5101 3.35837 49.8326 0.203688 46.9189 3.07708C38.4514 -1.23805 27.9189 -1.18255 19.4976 3.2234C16.5026 0.0195289 11.4714 3.45423 13.2851 7.47421C12.2464 8.39123 11.2626 9.3814 10.3564 10.4283C9.57387 11.3327 10.9914 12.5714 11.7689 11.6733C12.6126 10.6995 13.5264 9.77747 14.4914 8.92352C16.3576 10.282 19.0639 9.58953 20.0876 7.51584C23.4664 8.49718 26.6939 9.90613 29.7014 11.7137C29.4501 12.6294 29.5526 13.6524 29.9839 14.4988C27.5089 16.6557 25.2801 19.0965 23.3451 21.7706C21.5589 21.2256 19.5889 22.1376 18.8126 23.8455C14.8726 23.8669 10.9201 24.2945 7.03887 25.122C6.69637 24.4774 6.17637 23.9439 5.54637 23.5857C6.27512 20.716 7.49982 18.5 8.93 15.8796C9.49982 14.5 7.5775 13.8289 6.93 14.8796C5.27625 17.5626 4.51012 20.0475 3.73387 23.0975C-0.759881 23.1745 -1.51363 29.4472 2.76387 30.6544C2.70137 39.5811 6.52637 48.2605 13.1589 54.1738C11.7751 57.9453 16.2676 61.0559 19.2314 58.3956C27.8826 63.0375 38.8164 63.0387 47.4676 58.3969C50.4826 61.4053 55.3114 58.0437 53.6139 54.1108C57.0339 51.0469 59.6901 47.2969 61.4514 43.1495ZM60.2689 41.0329C57.6726 38.4294 54.8314 36.0682 51.7976 33.9957C52.2289 32.6334 51.8539 31.1021 50.8476 30.0968C53.3989 25.817 55.4014 21.2282 56.8101 16.4337C57.2801 16.435 57.7314 16.3479 58.1476 16.1903C62.4689 23.5516 63.2589 33.0421 60.2689 41.0329ZM17.1089 51.7318C16.3201 43.9303 17.7051 36.1464 21.1326 29.1117C23.2626 29.7828 25.5639 28.3688 25.9776 26.1626C32.4451 26.9674 38.6739 28.8834 44.5189 31.8665C44.2376 32.969 44.4701 34.1849 45.1401 35.1019C38.5514 43.5254 29.8539 49.8637 19.9001 53.4965C19.2976 52.5353 18.2826 51.8605 17.1089 51.7318ZM46.2751 32.8277C46.2751 31.7555 47.1339 30.8827 48.1889 30.8827C50.7276 30.9899 50.7264 34.6668 48.1889 34.7727C47.1339 34.7727 46.2751 33.8999 46.2751 32.8277ZM58.7339 12.5966C58.7339 13.6688 57.8751 14.5417 56.8201 14.5417C54.2814 14.4344 54.2826 10.7576 56.8201 10.6516C57.8751 10.6516 58.7339 11.5232 58.7339 12.5966ZM53.7351 10.3716C52.4389 12.2094 53.0401 14.8671 54.9951 15.9594C53.6301 20.5836 51.6939 25.0097 49.2314 29.1395C48.7164 28.9906 48.1451 28.9528 47.6151 29.0348C45.0414 23.4873 41.2951 18.4923 36.7201 14.5013C37.1526 13.6549 37.2551 12.6345 37.0039 11.7162C39.9001 9.9755 43.0026 8.60314 46.2464 7.62684C47.3251 9.72701 50.2176 10.3211 52.0126 8.74819C52.6076 9.26409 53.1839 9.80648 53.7351 10.3716ZM31.4389 12.7429C31.4389 11.6708 32.2976 10.7979 33.3526 10.7979C35.8914 10.9051 35.8901 14.582 33.3526 14.688C32.2976 14.688 31.4389 13.8151 31.4389 12.7429ZM49.5814 3.86165C50.6364 3.86165 51.4951 4.73452 51.4951 5.80668C51.3901 8.38744 47.7726 8.38618 47.6676 5.80668C47.6676 4.73326 48.5264 3.86165 49.5814 3.86165ZM16.6989 7.75171C15.6439 7.75171 14.7851 6.87885 14.7851 5.80668C14.8901 3.22593 18.5076 3.22719 18.6126 5.80668C18.6126 6.87885 17.7539 7.75171 16.6989 7.75171ZM20.4839 5.66037C20.4739 5.398 20.4389 5.14194 20.3789 4.89471C28.2301 0.799054 38.0389 0.727155 45.9514 4.70551C45.8501 5.0486 45.7939 5.41188 45.7926 5.7865C42.3801 6.80569 39.1176 8.24364 36.0714 10.0726C34.6076 8.54385 32.1001 8.54385 30.6351 10.0726C27.4601 8.1667 24.0526 6.68586 20.4839 5.66037ZM31.2276 15.9178C32.4964 16.7919 34.2101 16.7919 35.4776 15.9178C39.8464 19.7234 43.4251 24.4888 45.8901 29.779C45.7226 29.9089 45.5664 30.0514 45.4239 30.2078C39.2614 27.0532 32.6851 25.0476 25.8539 24.2416C25.6689 23.6777 25.3601 23.1719 24.9576 22.7582C26.7901 20.2456 28.8939 17.9499 31.2276 15.9178ZM22.2564 23.5024C23.3114 23.5024 24.1701 24.3753 24.1701 25.4474C24.0651 28.0282 20.4476 28.0269 20.3426 25.4474C20.3426 24.374 21.2014 23.5024 22.2564 23.5024ZM1.78762 26.9371C1.78762 25.865 2.64637 24.9921 3.70137 24.9921C6.24012 25.0993 6.23887 28.7762 3.70137 28.8821C2.64637 28.8821 1.78762 28.0093 1.78762 26.9371ZM4.64137 30.6556C4.64137 30.6556 7.49012 30.0287 7.49012 26.9623C7.49012 26.9623 14.8001 25.783 18.4789 25.7413C18.5476 26.6584 18.9364 27.4858 19.5314 28.1102C15.8764 35.5308 14.4014 43.7575 15.2501 52.0018C14.8851 52.1556 14.5489 52.365 14.2514 52.6211C8.13137 47.0887 4.64137 37.8202 4.64137 30.6556ZM16.6989 57.4925C15.6439 57.4925 14.7851 56.6196 14.7851 55.5475C14.7851 54.4753 15.6439 53.6024 16.6989 53.6024C17.7401 53.6024 18.6126 54.5119 18.6126 55.5475C18.6126 56.6196 17.7539 57.4925 16.6989 57.4925ZM33.3526 60.0001C28.8001 60.0001 24.2989 58.9002 20.2751 56.8113C20.4389 56.3396 20.5101 55.801 20.4789 55.3002C30.7764 51.5552 39.7739 45.01 46.5901 36.3066C47.1501 36.5714 47.7714 36.6938 48.3889 36.661C48.8051 38.2213 49.1351 39.8144 49.3676 41.4063C49.5464 42.6247 51.4026 42.3523 51.2239 41.1288C50.9764 39.4385 50.6251 37.747 50.1801 36.0921C50.4039 35.9508 50.6126 35.7869 50.8026 35.604C53.9326 37.7483 56.8501 40.2092 59.4939 42.9338C57.8539 46.5905 55.4676 49.9028 52.4364 52.6387C52.1364 52.4117 51.8026 52.2288 51.4439 52.0989C51.6276 50.3393 51.7089 48.5633 51.6814 46.8062C51.6626 45.57 49.7864 45.599 49.8064 46.8352C49.8326 48.5242 49.7551 50.2321 49.5764 51.9235C47.3639 52.278 45.9176 54.5926 46.5264 56.7622C42.4789 58.8825 37.9426 60.0001 33.3526 60.0001ZM50.1714 57.6565C49.1164 57.6565 48.2576 56.7836 48.2576 55.7114C48.3626 53.1307 51.9801 53.1319 52.0851 55.7114C52.0851 56.7849 51.2264 57.6565 50.1714 57.6565Z" fill="#2A0D56"/>
<circle cx="1" cy="1" r="1" transform="matrix(1 0 0 -1 8.40039 14.2)" fill="#FF8E2B"/>
</g>
<defs>
<clipPath id="clip0_1_2914">
<rect width="64" height="62" fill="white"/>
</clipPath>
</defs>
</svg>
