<svg width="33" height="33" viewBox="0 0 33 33" fill="none" xmlns="http://www.w3.org/2000/svg">
<path d="M16.4806 -0.00195312C15.8894 -0.00195312 15.2981 0.0297115 14.7096 0.0930406C14.1707 0.148109 13.638 0.238285 13.1128 0.347734C13.0109 0.369073 12.9091 0.391789 12.8079 0.415193C9.71267 1.12007 6.88655 2.70262 4.6682 4.97352C4.46171 5.18484 4.26005 5.40305 4.06251 5.62677C-1.92973 12.5069 -1.21047 22.9425 5.66897 28.9353C12.2552 34.6728 22.1686 34.2908 28.2944 28.0639C28.5009 27.8526 28.7032 27.635 28.9001 27.4106C31.5445 24.399 33.0016 20.527 32.9995 16.5187C32.9995 7.39448 25.6039 -0.00195312 16.4806 -0.00195312ZM5.4026 5.79955C5.48933 5.70937 5.58018 5.62264 5.66828 5.53522C5.77084 5.43472 5.87271 5.33284 5.97733 5.23578C6.06956 5.14974 6.16385 5.06713 6.25815 4.98384C6.36414 4.88954 6.47014 4.79523 6.57889 4.70437C6.67456 4.62314 6.77299 4.54604 6.87141 4.46757C6.98154 4.37946 7.09166 4.29135 7.20523 4.20668C7.30572 4.13096 7.40759 4.058 7.50946 3.98641C7.62371 3.90518 7.73797 3.8212 7.85429 3.74548C7.95822 3.67527 8.06353 3.60643 8.16953 3.53897C8.28722 3.46325 8.40561 3.38891 8.52537 3.3187C8.63274 3.25468 8.74149 3.19135 8.85024 3.1294C8.97207 3.05987 9.09458 2.99241 9.21779 2.92633C9.32792 2.86782 9.43804 2.81 9.54817 2.75424C9.67344 2.69091 9.80008 2.62965 9.92741 2.56976C10.0375 2.51745 10.1518 2.46513 10.2654 2.41557C10.3948 2.3605 10.5255 2.30543 10.657 2.25036C10.7713 2.20355 10.8841 2.15812 10.9998 2.11407C11.1333 2.06313 11.2682 2.01632 11.4031 1.96882C11.518 1.9289 11.633 1.88828 11.75 1.85042C11.887 1.80637 12.0253 1.76576 12.1644 1.72514C12.2807 1.69141 12.3956 1.657 12.5126 1.62533C12.5574 1.61363 12.6021 1.60468 12.6462 1.59298C11.0163 3.17552 9.80696 5.1401 9.12694 7.30775C7.81987 6.96288 6.5548 6.47621 5.35374 5.85531C5.37094 5.83534 5.38609 5.81607 5.4026 5.79955ZM4.61038 6.68616C5.93327 7.40274 7.33601 7.961 8.78898 8.34924C8.07661 10.8273 7.70218 13.3901 7.6774 15.968H1.07533C1.1951 12.5682 2.43883 9.30399 4.61038 6.68616ZM4.61038 26.3512C2.43883 23.7327 1.19578 20.4692 1.07533 17.0694H7.6774C7.70287 19.6473 8.07661 22.2101 8.78898 24.6882C7.33601 25.0764 5.93327 25.6347 4.61038 26.3512ZM12.5078 31.4155C12.3963 31.3873 12.2814 31.3508 12.1671 31.3178C12.0281 31.2771 11.8877 31.2365 11.75 31.1918C11.6337 31.1546 11.5194 31.114 11.4045 31.0741C11.2689 31.0273 11.1333 30.9791 10.9998 30.9281C10.8855 30.8848 10.7726 30.8387 10.6591 30.7925C10.5276 30.7375 10.3961 30.6824 10.2654 30.6273C10.1532 30.5778 10.041 30.5268 9.93017 30.4745C9.80215 30.4139 9.67412 30.352 9.54473 30.2887C9.4346 30.2336 9.32447 30.1785 9.21435 30.1186C9.08977 30.0519 8.96656 29.9837 8.84336 29.9135C8.73323 29.8522 8.62861 29.7896 8.52262 29.7256C8.40148 29.6526 8.2824 29.5783 8.16333 29.5012C8.05871 29.4344 7.95409 29.3669 7.85085 29.2974C7.73384 29.2183 7.61752 29.1357 7.50257 29.0531C7.40208 28.9808 7.3009 28.9085 7.20179 28.8328C7.08753 28.7467 6.97603 28.6579 6.86453 28.5691C6.76679 28.4914 6.67043 28.4143 6.57476 28.3344C6.46463 28.2429 6.35864 28.1479 6.25126 28.0529C6.15766 27.9696 6.06336 27.8877 5.97182 27.803C5.86651 27.7052 5.76464 27.6034 5.66209 27.5022C5.5733 27.4148 5.48313 27.328 5.39641 27.2385C5.38058 27.2213 5.36475 27.2041 5.34892 27.1876C6.54929 26.5667 7.81506 26.0793 9.12212 25.7352C9.80215 27.9028 11.0115 29.8674 12.6413 31.4499C12.5973 31.4368 12.5525 31.4272 12.5078 31.4155ZM15.93 31.8946C13.574 31.5601 11.5084 29.1005 10.2089 25.4688C12.088 25.0482 14.0048 24.8224 15.93 24.7955V31.8946ZM15.93 23.6935C13.8878 23.7203 11.8546 23.9626 9.8634 24.4169C9.17236 22.0276 8.80757 19.5564 8.77935 17.0694H15.9307L15.93 23.6935ZM15.93 15.968H8.77866C8.80688 13.481 9.17167 11.0091 9.86272 8.62045C11.8539 9.07477 13.8878 9.31707 15.9293 9.34392V15.968H15.93ZM15.93 8.24254C14.0048 8.21569 12.088 7.98991 10.2089 7.56932C11.5084 3.93753 13.574 1.47802 15.93 1.14348V8.24254ZM28.3501 6.68616C30.5217 9.30399 31.7647 12.5682 31.8852 15.968H25.2831C25.2577 13.3901 24.8839 10.8273 24.1715 8.34924C25.6252 7.961 27.0279 7.40274 28.3501 6.68616ZM20.4486 1.6212C20.5642 1.65011 20.6792 1.68591 20.7941 1.71964C20.9331 1.76025 21.0736 1.80086 21.2112 1.84561C21.3275 1.88278 21.4418 1.92339 21.5567 1.96332C21.6923 2.01012 21.8279 2.05831 21.9615 2.10925C22.0757 2.15262 22.1886 2.19874 22.3022 2.24486C22.4336 2.29992 22.5651 2.35499 22.6959 2.41006C22.808 2.45962 22.9202 2.51056 23.0311 2.56288C23.1591 2.62345 23.2871 2.68541 23.4165 2.74874C23.5266 2.8038 23.6367 2.85887 23.7469 2.91876C23.8715 2.98553 23.9947 3.05368 24.1179 3.12389C24.228 3.18516 24.3326 3.2478 24.4386 3.31181C24.5597 3.38478 24.6788 3.45912 24.7979 3.53622C24.9025 3.60299 25.0071 3.67045 25.1104 3.73997C25.2274 3.81914 25.343 3.90105 25.4586 3.98365C25.5598 4.05593 25.661 4.12821 25.7601 4.20393C25.8737 4.28929 25.9845 4.37808 26.0967 4.46688C26.1937 4.54398 26.2908 4.62108 26.3865 4.70161C26.4966 4.79317 26.6026 4.88816 26.71 4.98315C26.8036 5.06644 26.8979 5.14836 26.9894 5.23303C27.0947 5.33078 27.1966 5.43265 27.2991 5.53384C27.3879 5.62126 27.4781 5.708 27.5648 5.79748C27.5806 5.81469 27.5965 5.8319 27.6123 5.84842C26.4112 6.46932 25.1462 6.95668 23.8391 7.30086C23.1577 5.13253 21.947 3.16864 20.3158 1.58609C20.3591 1.59986 20.4045 1.6095 20.4486 1.6212ZM17.0312 1.14279C19.3873 1.47733 21.4528 3.93685 22.7523 7.56864C20.8733 7.98922 18.9564 8.21501 17.0312 8.24185V1.14279ZM17.0312 9.34392C19.0734 9.31707 21.1066 9.07477 23.0978 8.62045C23.7895 11.0097 24.1537 13.481 24.1819 15.968H17.0306V9.34392H17.0312ZM17.0312 17.0694H24.1826C24.1543 19.5564 23.7895 22.0283 23.0985 24.4169C21.1073 23.9626 19.0741 23.7203 17.0319 23.6935V17.0694H17.0312ZM17.0312 31.8946V24.7949C18.9564 24.8217 20.8733 25.0475 22.7523 25.4681C21.4528 29.0999 19.3873 31.5594 17.0312 31.8946ZM27.5586 27.2378C27.4719 27.3273 27.3817 27.4141 27.2929 27.5015C27.1904 27.602 27.0878 27.7039 26.9832 27.8023C26.8917 27.8877 26.7974 27.9675 26.7038 28.0529C26.5971 28.1479 26.4904 28.2422 26.3816 28.3337C26.2853 28.4143 26.1875 28.492 26.0891 28.5698C25.979 28.6579 25.8689 28.746 25.7553 28.8307C25.6548 28.9064 25.5529 28.9794 25.4511 29.051C25.3368 29.1322 25.2226 29.2162 25.1062 29.2919C25.0023 29.3621 24.897 29.431 24.791 29.4977C24.6733 29.5735 24.5542 29.6471 24.4345 29.718C24.3243 29.7827 24.219 29.8454 24.111 29.9073C23.9892 29.9768 23.8666 30.0443 23.7434 30.1104C23.6333 30.1689 23.5232 30.2267 23.4131 30.2825C23.2878 30.3458 23.1611 30.4071 23.0338 30.4669C22.9237 30.5193 22.8094 30.5716 22.6959 30.6211C22.5665 30.6762 22.4357 30.7313 22.3042 30.7863C22.19 30.8325 22.0771 30.8786 21.9621 30.9226C21.8279 30.9736 21.693 31.0218 21.5574 31.0686C21.4432 31.1085 21.3282 31.1491 21.2119 31.1863C21.0742 31.231 20.9366 31.2716 20.7962 31.3116C20.6812 31.346 20.5656 31.3797 20.4493 31.4114C20.4045 31.4231 20.3598 31.432 20.3158 31.4437C21.9456 29.8612 23.1549 27.8966 23.835 25.729C25.142 26.0738 26.4071 26.5605 27.6082 27.1814C27.5903 27.2021 27.5744 27.2213 27.5586 27.2378ZM28.3501 26.3512C27.0273 25.6347 25.6245 25.0764 24.1715 24.6882C24.8839 22.2101 25.2584 19.6473 25.2831 17.0694H31.8852C31.7654 20.4692 30.5224 23.7334 28.3501 26.3512Z" fill="white"/>
</svg>
