<svg width="22" height="22" viewBox="0 0 22 22" fill="none" xmlns="http://www.w3.org/2000/svg">
<g clip-path="url(#clip0_4071_510)">
<path d="M11.217 22.003C11.144 22.003 11.0713 22.003 10.9979 22.0026C9.27345 22.0069 7.68011 21.963 6.13016 21.8685C4.70956 21.7821 3.41271 21.291 2.3797 20.4488C1.38279 19.6363 0.702137 18.5371 0.356655 17.1832C0.0558616 16.0041 0.0399625 14.847 0.0244931 13.7276C0.0137505 12.9245 0.00214852 11.9728 0 11.0051C0.00214852 10.0332 0.0137505 9.08142 0.0249228 8.27833C0.0403922 7.159 0.0562913 6.00185 0.357084 4.82278C0.702567 3.46841 1.38322 2.3697 2.38013 1.55716C3.41314 0.714971 4.70999 0.223839 6.13102 0.137471C7.68053 0.0433698 9.27431 -0.000458365 11.0026 0.00340882C12.7274 -0.000458365 14.3203 0.0433698 15.8703 0.137471C17.2909 0.223839 18.5877 0.714971 19.6207 1.55716C20.6176 2.3697 21.2983 3.46884 21.6438 4.82278C21.9446 6.00185 21.9605 7.15943 21.9759 8.27833C21.9871 9.08142 21.9987 10.0332 22.0009 11.0008V11.0047C21.9987 11.9724 21.9871 12.9241 21.9759 13.7272C21.9605 14.8465 21.945 16.0037 21.6438 17.1827C21.2983 18.5371 20.6176 19.6358 19.6207 20.4484C18.5877 21.2906 17.2909 21.7817 15.8703 21.8681C14.3856 21.9592 12.861 22.003 11.217 22.003ZM10.9979 20.2838C12.6943 20.2877 14.252 20.2451 15.7654 20.1532C16.8397 20.0879 17.7713 19.7394 18.534 19.1172C19.2392 18.5418 19.7251 17.7482 19.9778 16.7586C20.2283 15.7772 20.2425 14.7236 20.2567 13.7044C20.2674 12.9065 20.279 11.9616 20.2812 11.0034C20.279 10.0448 20.2674 9.09989 20.2567 8.30239C20.2429 7.28361 20.2283 6.22958 19.9778 5.24818C19.7251 4.25817 19.2396 3.46454 18.534 2.88962C17.7709 2.26743 16.8397 1.91896 15.7654 1.85364C14.2524 1.76169 12.6948 1.71915 11.0021 1.72259C9.30611 1.71872 7.748 1.76126 6.23501 1.85364C5.16075 1.91896 4.22915 2.26743 3.46642 2.88962C2.76128 3.46497 2.27528 4.25861 2.02262 5.24818C1.7721 6.22958 1.75792 7.28318 1.74374 8.30239C1.733 9.10075 1.7214 10.0465 1.71925 11.0056C1.7214 11.9608 1.733 12.9061 1.74374 13.7049C1.75749 14.7236 1.7721 15.7777 2.02262 16.7591C2.27528 17.7491 2.76085 18.5427 3.46642 19.1176C4.22958 19.7398 5.16075 20.0883 6.23501 20.1536C7.748 20.2451 9.30611 20.2881 10.9979 20.2838ZM10.957 16.3741C7.99551 16.3741 5.58573 13.9648 5.58573 11.003C5.58573 8.04114 7.99551 5.63189 10.957 5.63189C13.919 5.63189 16.3283 8.04114 16.3283 11.003C16.3283 13.9648 13.9186 16.3741 10.957 16.3741ZM10.957 7.35064C8.94301 7.35064 7.30454 8.98904 7.30454 11.003C7.30454 13.0169 8.94301 14.6553 10.957 14.6553C12.9711 14.6553 14.6095 13.0169 14.6095 11.003C14.6095 8.98904 12.9711 7.35064 10.957 7.35064ZM16.9299 3.91314C16.2179 3.91314 15.6408 4.49021 15.6408 5.2022C15.6408 5.91419 16.2179 6.49126 16.9299 6.49126C17.6419 6.49126 18.219 5.91419 18.219 5.2022C18.219 4.49021 17.6419 3.91314 16.9299 3.91314Z" fill="#4A2682"/>
</g>
<defs>
<clipPath id="clip0_4071_510">
<rect width="22" height="22" fill="white" transform="translate(0 0.00195312)"/>
</clipPath>
</defs>
</svg>
