<svg width="18" height="18" viewBox="0 0 18 18" fill="none" xmlns="http://www.w3.org/2000/svg">
<g clip-path="url(#clip0_1_2373)">
<path d="M9.17755 18.0011C9.11778 18.0011 9.05836 18.0011 8.99824 18.0007C7.58737 18.0042 6.28372 17.9684 5.01559 17.891C3.85328 17.8204 2.79222 17.4185 1.94703 16.7295C1.13137 16.0647 0.574476 15.1654 0.291808 14.0576C0.0457049 13.0929 0.0326966 12.1461 0.0200398 11.2303C0.0112504 10.5733 0.00175788 9.79454 0 9.00282C0.00175788 8.20759 0.0112504 7.42888 0.0203914 6.7718C0.0330482 5.85598 0.0460565 4.90923 0.29216 3.94454C0.574827 2.83641 1.13172 1.93747 1.94738 1.27266C2.79257 0.5836 3.85363 0.181765 5.01629 0.111101C6.28407 0.0341083 7.58807 -0.00175109 9.00211 0.00141297C10.4133 -0.00175109 11.7166 0.0341083 12.9848 0.111101C14.1471 0.181765 15.2081 0.5836 16.0533 1.27266C16.869 1.93747 17.4259 2.83677 17.7085 3.94454C17.9546 4.90923 17.9677 5.85634 17.9803 6.7718C17.9895 7.42888 17.9989 8.20759 18.0007 8.99931V9.00247C17.9989 9.79419 17.9895 10.5729 17.9803 11.23C17.9677 12.1458 17.955 13.0925 17.7085 14.0572C17.4259 15.1654 16.869 16.0643 16.0533 16.7291C15.2081 17.4182 14.1471 17.82 12.9848 17.8907C11.7701 17.9652 10.5227 18.0011 9.17755 18.0011ZM8.99824 16.5945C10.3863 16.5976 11.6607 16.5628 12.899 16.4876C13.7779 16.4342 14.5401 16.149 15.1642 15.64C15.7411 15.1692 16.1388 14.5199 16.3455 13.7102C16.5505 12.9073 16.5621 12.0452 16.5737 11.2113C16.5824 10.5585 16.5919 9.7854 16.5937 9.00142C16.5919 8.21708 16.5824 7.44399 16.5737 6.79149C16.5624 5.95794 16.5505 5.09555 16.3455 4.29259C16.1388 3.48259 15.7415 2.83325 15.1642 2.36286C14.5398 1.8538 13.7779 1.56868 12.899 1.51524C11.6611 1.44001 10.3866 1.4052 9.00176 1.40801C7.61409 1.40485 6.33927 1.43966 5.10137 1.51524C4.22243 1.56868 3.46021 1.8538 2.83617 2.36286C2.25923 2.8336 1.8616 3.48294 1.65487 4.29259C1.4499 5.09555 1.4383 5.95759 1.4267 6.79149C1.41791 7.4447 1.40841 8.21849 1.40666 9.00317C1.40841 9.7847 1.41791 10.5581 1.4267 11.2117C1.43795 12.0452 1.4499 12.9076 1.65487 13.7106C1.8616 14.5206 2.25888 15.1699 2.83617 15.6403C3.46056 16.1494 4.22243 16.4345 5.10137 16.4879C6.33927 16.5628 7.61409 16.598 8.99824 16.5945ZM8.96484 13.3956C6.54178 13.3956 4.57014 11.4244 4.57014 9.00106C4.57014 6.57774 6.54178 4.60653 8.96484 4.60653C11.3883 4.60653 13.3595 6.57774 13.3595 9.00106C13.3595 11.4244 11.3879 13.3956 8.96484 13.3956ZM8.96484 6.01278C7.31701 6.01278 5.97644 7.35329 5.97644 9.00106C5.97644 10.6488 7.31701 11.9893 8.96484 11.9893C10.6127 11.9893 11.9532 10.6488 11.9532 9.00106C11.9532 7.35329 10.6127 6.01278 8.96484 6.01278ZM13.8518 3.20028C13.2692 3.20028 12.797 3.67243 12.797 4.25497C12.797 4.83751 13.2692 5.30966 13.8518 5.30966C14.4343 5.30966 14.9065 4.83751 14.9065 4.25497C14.9065 3.67243 14.4343 3.20028 13.8518 3.20028Z" fill="white"/>
</g>
<defs>
<clipPath id="clip0_1_2373">
<rect width="18" height="18" fill="white"/>
</clipPath>
</defs>
</svg>
