<svg width="47" height="50" viewBox="0 0 47 50" fill="none" xmlns="http://www.w3.org/2000/svg">
<g clip-path="url(#clip0_1_572)">
<path d="M46.0305 48.0469H43.9045V16.9473C43.9045 15.5 42.7353 14.3223 41.2985 14.3223H36.5462C35.1094 14.3223 33.9402 15.5 33.9402 16.9473V48.0469H28.5413V31.0381C28.5413 29.5908 27.3721 28.4131 25.9353 28.4131H21.183C19.7462 28.4131 18.577 29.5908 18.577 31.0381V48.0469H13.1751V39.2383C13.1751 37.791 12.0059 36.6133 10.5692 36.6133H5.81683C4.38007 36.6133 3.21089 37.791 3.21089 39.2383V48.0469H0.969472C0.434323 48.0469 0 48.4844 0 49.0235C0 49.5625 0.434323 50 0.969472 50H46.0305C46.5657 50 47 49.5625 47 49.0235C47 48.4844 46.5657 48.0469 46.0305 48.0469ZM11.2362 48.0469H5.14984V39.2383C5.14984 38.8672 5.4494 38.5664 5.81683 38.5664H10.5692C10.9366 38.5664 11.2362 38.8682 11.2362 39.2383V48.0469ZM26.6004 48.0469H20.514V31.0381C20.514 30.667 20.8136 30.3662 21.181 30.3662H25.9334C26.3008 30.3662 26.6004 30.668 26.6004 31.0381V48.0469ZM41.9646 48.0469H35.8773V16.9473C35.8773 16.5771 36.1768 16.2754 36.5442 16.2754H41.2966C41.665 16.2754 41.9636 16.5771 41.9636 16.9473L41.9646 48.0469Z" fill="#4A2682"/>
<path d="M46.0305 48.0469H43.9045V16.9473C43.9045 15.5 42.7353 14.3223 41.2985 14.3223H36.5462C35.1094 14.3223 33.9402 15.5 33.9402 16.9473V48.0469H28.5413V31.0381C28.5413 29.5908 27.3721 28.4131 25.9353 28.4131H21.183C19.7462 28.4131 18.577 29.5908 18.577 31.0381V48.0469H13.1751V39.2383C13.1751 37.791 12.0059 36.6133 10.5692 36.6133H5.81683C4.38007 36.6133 3.21089 37.791 3.21089 39.2383V48.0469H0.969472C0.434323 48.0469 0 48.4844 0 49.0235C0 49.5625 0.434323 50 0.969472 50H46.0305C46.5657 50 47 49.5625 47 49.0235C47 48.4844 46.5657 48.0469 46.0305 48.0469ZM11.2362 48.0469H5.14984V39.2383C5.14984 38.8672 5.4494 38.5664 5.81683 38.5664H10.5692C10.9366 38.5664 11.2362 38.8682 11.2362 39.2383V48.0469ZM26.6004 48.0469H20.514V31.0381C20.514 30.667 20.8136 30.3662 21.181 30.3662H25.9334C26.3008 30.3662 26.6004 30.668 26.6004 31.0381V48.0469ZM41.9646 48.0469H35.8773V16.9473C35.8773 16.5771 36.1768 16.2754 36.5442 16.2754H41.2966C41.665 16.2754 41.9636 16.5771 41.9636 16.9473L41.9646 48.0469Z" fill="#4A2682"/>
<path d="M43.9016 1.02734C43.9151 0.760742 43.8221 0.490234 43.6204 0.286133C43.4188 0.0830078 43.1493 -0.0117188 42.8846 0.00292969C42.8691 0.00195312 42.8536 0 42.8371 0H36.9718C36.4366 0 36.0023 0.4375 36.0023 0.976562C36.0023 1.51562 36.4366 1.95312 36.9718 1.95312H40.5937L31.0095 11.6074L27.3953 7.9668C27.2131 7.7832 26.9668 7.68066 26.7099 7.68066C26.453 7.68066 26.2058 7.7832 26.0245 7.9668L8.59631 25.5225C8.21822 25.9033 8.21822 26.5225 8.59631 26.9033C8.78536 27.0938 9.03355 27.1895 9.28173 27.1895C9.52992 27.1895 9.7781 27.0938 9.96715 26.9033L26.7099 10.0381L30.3241 13.6787C30.7022 14.0596 31.3169 14.0596 31.695 13.6787L41.9646 3.33398V6.63574C41.9646 7.1748 42.3989 7.6123 42.934 7.6123C43.4692 7.6123 43.9035 7.1748 43.9035 6.63574V1.07422C43.9035 1.05859 43.9025 1.04297 43.9016 1.02734Z" fill="#4A2682"/>
<path d="M43.9016 1.02734C43.9151 0.760742 43.8221 0.490234 43.6204 0.286133C43.4188 0.0830078 43.1493 -0.0117188 42.8846 0.00292969C42.8691 0.00195312 42.8536 0 42.8371 0H36.9718C36.4366 0 36.0023 0.4375 36.0023 0.976562C36.0023 1.51562 36.4366 1.95312 36.9718 1.95312H40.5937L31.0095 11.6074L27.3953 7.9668C27.2131 7.7832 26.9668 7.68066 26.7099 7.68066C26.453 7.68066 26.2058 7.7832 26.0245 7.9668L8.59631 25.5225C8.21822 25.9033 8.21822 26.5225 8.59631 26.9033C8.78536 27.0938 9.03355 27.1895 9.28173 27.1895C9.52992 27.1895 9.7781 27.0938 9.96715 26.9033L26.7099 10.0381L30.3241 13.6787C30.7022 14.0596 31.3169 14.0596 31.695 13.6787L41.9646 3.33398V6.63574C41.9646 7.1748 42.3989 7.6123 42.934 7.6123C43.4692 7.6123 43.9035 7.1748 43.9035 6.63574V1.07422C43.9035 1.05859 43.9025 1.04297 43.9016 1.02734Z" fill="#4A2682"/>
<path d="M6.01464 30.5967C6.55006 30.5967 6.98411 30.1595 6.98411 29.6201C6.98411 29.0808 6.55006 28.6436 6.01464 28.6436C5.47921 28.6436 5.04517 29.0808 5.04517 29.6201C5.04517 30.1595 5.47921 30.5967 6.01464 30.5967Z" fill="#FF8E2B"/>
<path d="M6.01464 30.5967C6.55006 30.5967 6.98411 30.1595 6.98411 29.6201C6.98411 29.0808 6.55006 28.6436 6.01464 28.6436C5.47921 28.6436 5.04517 29.0808 5.04517 29.6201C5.04517 30.1595 5.47921 30.5967 6.01464 30.5967Z" fill="#FF8E2B"/>
</g>
<defs>
<clipPath id="clip0_1_572">
<rect width="47" height="50" fill="white"/>
</clipPath>
</defs>
</svg>
