<svg width="51" height="50" viewBox="0 0 51 50" fill="none" xmlns="http://www.w3.org/2000/svg">
<g clip-path="url(#clip0_1_561)">
<path d="M26.0757 21.8262V13.3301C26.0757 12.791 25.6382 12.3535 25.0991 12.3535C24.5601 12.3535 24.1226 12.791 24.1226 13.3301V21.8252C23.9214 21.8867 23.729 21.9678 23.5464 22.0654L20.8579 19.377C20.4771 18.9961 19.8579 18.9961 19.4771 19.377C19.0962 19.7578 19.0962 20.377 19.4771 20.7578L22.1655 23.4463C21.9194 23.9102 21.7788 24.4385 21.7788 24.999C21.7788 26.8301 23.2681 28.3193 25.0991 28.3193C26.9302 28.3193 28.4194 26.8301 28.4194 24.999C28.4194 23.5088 27.4312 22.2441 26.0757 21.8262ZM25.0991 26.3672C24.3452 26.3672 23.7319 25.7539 23.7319 25C23.7319 24.2461 24.3452 23.6328 25.0991 23.6328C25.853 23.6328 26.4663 24.2461 26.4663 25C26.4663 25.7539 25.853 26.3672 25.0991 26.3672Z" fill="#4A2682"/>
<path d="M26.0757 21.8262V13.3301C26.0757 12.791 25.6382 12.3535 25.0991 12.3535C24.5601 12.3535 24.1226 12.791 24.1226 13.3301V21.8252C23.9214 21.8867 23.729 21.9678 23.5464 22.0654L20.8579 19.377C20.4771 18.9961 19.8579 18.9961 19.4771 19.377C19.0962 19.7578 19.0962 20.377 19.4771 20.7578L22.1655 23.4463C21.9194 23.9102 21.7788 24.4385 21.7788 24.999C21.7788 26.8301 23.2681 28.3193 25.0991 28.3193C26.9302 28.3193 28.4194 26.8301 28.4194 24.999C28.4194 23.5088 27.4312 22.2441 26.0757 21.8262ZM25.0991 26.3672C24.3452 26.3672 23.7319 25.7539 23.7319 25C23.7319 24.2461 24.3452 23.6328 25.0991 23.6328C25.853 23.6328 26.4663 24.2461 26.4663 25C26.4663 25.7539 25.853 26.3672 25.0991 26.3672Z" fill="#4A2682"/>
<path d="M35.9858 20.3457H33.3101V19.6621C33.3101 19.2852 33.6167 18.9785 33.9937 18.9785H34.3257C35.7798 18.9785 36.9624 17.7959 36.9624 16.3418C36.9624 14.8877 35.7798 13.7051 34.3257 13.7051H32.3335C31.7944 13.7051 31.3569 14.1426 31.3569 14.6816C31.3569 15.2207 31.7944 15.6582 32.3335 15.6582H34.3257C34.7026 15.6582 35.0093 15.9648 35.0093 16.3418C35.0093 16.7188 34.7026 17.0254 34.3257 17.0254H33.9937C32.5396 17.0254 31.3569 18.208 31.3569 19.6621V21.3223C31.3569 21.8613 31.7944 22.2988 32.3335 22.2988H35.9858C36.5249 22.2988 36.9624 21.8613 36.9624 21.3223C36.9624 20.7832 36.5249 20.3457 35.9858 20.3457Z" fill="#4A2682"/>
<path d="M35.9858 20.3457H33.3101V19.6621C33.3101 19.2852 33.6167 18.9785 33.9937 18.9785H34.3257C35.7798 18.9785 36.9624 17.7959 36.9624 16.3418C36.9624 14.8877 35.7798 13.7051 34.3257 13.7051H32.3335C31.7944 13.7051 31.3569 14.1426 31.3569 14.6816C31.3569 15.2207 31.7944 15.6582 32.3335 15.6582H34.3257C34.7026 15.6582 35.0093 15.9648 35.0093 16.3418C35.0093 16.7188 34.7026 17.0254 34.3257 17.0254H33.9937C32.5396 17.0254 31.3569 18.208 31.3569 19.6621V21.3223C31.3569 21.8613 31.7944 22.2988 32.3335 22.2988H35.9858C36.5249 22.2988 36.9624 21.8613 36.9624 21.3223C36.9624 20.7832 36.5249 20.3457 35.9858 20.3457Z" fill="#4A2682"/>
<path d="M42.5806 13.4131C42.0415 13.4131 41.604 13.8506 41.604 14.3896V17.0654H39.9048V14.3896C39.9048 13.8506 39.4673 13.4131 38.9282 13.4131C38.3892 13.4131 37.9517 13.8506 37.9517 14.3896V18.042C37.9517 18.5811 38.3892 19.0186 38.9282 19.0186H41.604V21.3223C41.604 21.8613 42.0415 22.2988 42.5806 22.2988C43.1196 22.2988 43.5571 21.8613 43.5571 21.3223V14.3896C43.5571 13.8506 43.1196 13.4131 42.5806 13.4131Z" fill="#4A2682"/>
<path d="M42.5806 13.4131C42.0415 13.4131 41.604 13.8506 41.604 14.3896V17.0654H39.9048V14.3896C39.9048 13.8506 39.4673 13.4131 38.9282 13.4131C38.3892 13.4131 37.9517 13.8506 37.9517 14.3896V18.042C37.9517 18.5811 38.3892 19.0186 38.9282 19.0186H41.604V21.3223C41.604 21.8613 42.0415 22.2988 42.5806 22.2988C43.1196 22.2988 43.5571 21.8613 43.5571 21.3223V14.3896C43.5571 13.8506 43.1196 13.4131 42.5806 13.4131Z" fill="#4A2682"/>
<path d="M46.6294 16.6934H46.4468V14.3896C46.4468 13.8506 46.0093 13.4131 45.4702 13.4131C44.9312 13.4131 44.4937 13.8506 44.4937 14.3896V21.3223C44.4937 21.8613 44.9312 22.2988 45.4702 22.2988C46.0093 22.2988 46.4468 21.8613 46.4468 21.3223V18.6465H46.6294C47.4653 18.6465 48.146 19.3271 48.146 20.1631V21.3223C48.146 21.8613 48.5835 22.2988 49.1225 22.2988C49.6616 22.2988 50.0991 21.8613 50.0991 21.3223V20.1631C50.0991 18.25 48.5425 16.6934 46.6294 16.6934Z" fill="#4A2682"/>
<path d="M46.6294 16.6934H46.4468V14.3896C46.4468 13.8506 46.0093 13.4131 45.4702 13.4131C44.9312 13.4131 44.4937 13.8506 44.4937 14.3896V21.3223C44.4937 21.8613 44.9312 22.2988 45.4702 22.2988C46.0093 22.2988 46.4468 21.8613 46.4468 21.3223V18.6465H46.6294C47.4653 18.6465 48.146 19.3271 48.146 20.1631V21.3223C48.146 21.8613 48.5835 22.2988 49.1225 22.2988C49.6616 22.2988 50.0991 21.8613 50.0991 21.3223V20.1631C50.0991 18.25 48.5425 16.6934 46.6294 16.6934Z" fill="#4A2682"/>
<path d="M25.7515 40.5527C25.5698 40.3711 25.3179 40.2666 25.061 40.2666C24.8042 40.2666 24.5522 40.3711 24.3706 40.5527C24.189 40.7344 24.0845 40.9863 24.0845 41.2432C24.0845 41.501 24.189 41.752 24.3706 41.9336C24.5522 42.1162 24.8042 42.2197 25.061 42.2197C25.3179 42.2197 25.5698 42.1162 25.7515 41.9336C25.9331 41.752 26.0376 41.5 26.0376 41.2432C26.0376 40.9863 25.9331 40.7344 25.7515 40.5527Z" fill="#FF8E2B"/>
<path d="M25.7515 40.5527C25.5698 40.3711 25.3179 40.2666 25.061 40.2666C24.8042 40.2666 24.5522 40.3711 24.3706 40.5527C24.189 40.7344 24.0845 40.9863 24.0845 41.2432C24.0845 41.501 24.189 41.752 24.3706 41.9336C24.5522 42.1162 24.8042 42.2197 25.061 42.2197C25.3179 42.2197 25.5698 42.1162 25.7515 41.9336C25.9331 41.752 26.0376 41.5 26.0376 41.2432C26.0376 40.9863 25.9331 40.7344 25.7515 40.5527Z" fill="#FF8E2B"/>
<path d="M14.2661 35.7949C14.0845 35.6133 13.8325 35.5088 13.5757 35.5088C13.3179 35.5088 13.0669 35.6133 12.8853 35.7949C12.7026 35.9766 12.5991 36.2285 12.5991 36.4863C12.5991 36.7432 12.7026 36.9951 12.8853 37.1768C13.0669 37.3584 13.3179 37.4629 13.5757 37.4629C13.8325 37.4629 14.0835 37.3584 14.2661 37.1768C14.4478 36.9941 14.5522 36.7432 14.5522 36.4863C14.5522 36.2285 14.4478 35.9775 14.2661 35.7949Z" fill="#FF8E2B"/>
<path d="M14.2661 35.7949C14.0845 35.6133 13.8325 35.5088 13.5757 35.5088C13.3179 35.5088 13.0669 35.6133 12.8853 35.7949C12.7026 35.9766 12.5991 36.2285 12.5991 36.4863C12.5991 36.7432 12.7026 36.9951 12.8853 37.1768C13.0669 37.3584 13.3179 37.4629 13.5757 37.4629C13.8325 37.4629 14.0835 37.3584 14.2661 37.1768C14.4478 36.9941 14.5522 36.7432 14.5522 36.4863C14.5522 36.2285 14.4478 35.9775 14.2661 35.7949Z" fill="#FF8E2B"/>
<path d="M9.5083 24.3096C9.32666 24.1279 9.07471 24.0234 8.81787 24.0234C8.56103 24.0234 8.30908 24.1279 8.12744 24.3096C7.94482 24.4912 7.84131 24.7432 7.84131 25C7.84131 25.2568 7.94482 25.5088 8.12744 25.6904C8.30908 25.8721 8.56103 25.9766 8.81787 25.9766C9.07471 25.9766 9.32666 25.8721 9.5083 25.6904C9.68994 25.5088 9.79443 25.2568 9.79443 25C9.79443 24.7432 9.68994 24.4912 9.5083 24.3096Z" fill="#FF8E2B"/>
<path d="M9.5083 24.3096C9.32666 24.1279 9.07471 24.0234 8.81787 24.0234C8.56103 24.0234 8.30908 24.1279 8.12744 24.3096C7.94482 24.4912 7.84131 24.7432 7.84131 25C7.84131 25.2568 7.94482 25.5088 8.12744 25.6904C8.30908 25.8721 8.56103 25.9766 8.81787 25.9766C9.07471 25.9766 9.32666 25.8721 9.5083 25.6904C9.68994 25.5088 9.79443 25.2568 9.79443 25C9.79443 24.7432 9.68994 24.4912 9.5083 24.3096Z" fill="#FF8E2B"/>
<path d="M14.2661 12.8232C14.0845 12.6416 13.8325 12.5371 13.5757 12.5371C13.3179 12.5371 13.0669 12.6416 12.8853 12.8232C12.7026 13.0059 12.5991 13.2568 12.5991 13.5137C12.5991 13.7705 12.7026 14.0225 12.8853 14.2051C13.0669 14.3867 13.3179 14.4912 13.5757 14.4912C13.8325 14.4912 14.0835 14.3867 14.2661 14.2051C14.4478 14.0225 14.5522 13.7715 14.5522 13.5137C14.5522 13.2568 14.4478 13.0049 14.2661 12.8232Z" fill="#FF8E2B"/>
<path d="M14.2661 12.8232C14.0845 12.6416 13.8325 12.5371 13.5757 12.5371C13.3179 12.5371 13.0669 12.6416 12.8853 12.8232C12.7026 13.0059 12.5991 13.2568 12.5991 13.5137C12.5991 13.7705 12.7026 14.0225 12.8853 14.2051C13.0669 14.3867 13.3179 14.4912 13.5757 14.4912C13.8325 14.4912 14.0835 14.3867 14.2661 14.2051C14.4478 14.0225 14.5522 13.7715 14.5522 13.5137C14.5522 13.2568 14.4478 13.0049 14.2661 12.8232Z" fill="#FF8E2B"/>
<path d="M25.7515 8.06641C25.5698 7.88379 25.3188 7.78027 25.061 7.78027C24.8042 7.78027 24.5522 7.88379 24.3706 8.06641C24.189 8.24805 24.0845 8.49902 24.0845 8.75684C24.0845 9.01367 24.189 9.26562 24.3706 9.44727C24.5522 9.62891 24.8042 9.7334 25.061 9.7334C25.3188 9.7334 25.5698 9.62891 25.7515 9.44727C25.9331 9.26562 26.0376 9.01367 26.0376 8.75684C26.0376 8.5 25.9331 8.24805 25.7515 8.06641Z" fill="#FF8E2B"/>
<path d="M25.7515 8.06641C25.5698 7.88379 25.3188 7.78027 25.061 7.78027C24.8042 7.78027 24.5522 7.88379 24.3706 8.06641C24.189 8.24805 24.0845 8.49902 24.0845 8.75684C24.0845 9.01367 24.189 9.26562 24.3706 9.44727C24.5522 9.62891 24.8042 9.7334 25.061 9.7334C25.3188 9.7334 25.5698 9.62891 25.7515 9.44727C25.9331 9.26562 26.0376 9.01367 26.0376 8.75684C26.0376 8.5 25.9331 8.24805 25.7515 8.06641Z" fill="#FF8E2B"/>
<path d="M37.2378 35.7949C37.0562 35.6133 36.8042 35.5088 36.5474 35.5088C36.2896 35.5088 36.0386 35.6133 35.856 35.7949C35.6743 35.9775 35.5708 36.2285 35.5708 36.4863C35.5708 36.7432 35.6743 36.9941 35.856 37.1768C36.0386 37.3584 36.2905 37.4629 36.5474 37.4629C36.8042 37.4629 37.0562 37.3584 37.2378 37.1768C37.4194 36.9941 37.5239 36.7432 37.5239 36.4863C37.5239 36.2285 37.4194 35.9775 37.2378 35.7949Z" fill="#FF8E2B"/>
<path d="M37.2378 35.7949C37.0562 35.6133 36.8042 35.5088 36.5474 35.5088C36.2896 35.5088 36.0386 35.6133 35.856 35.7949C35.6743 35.9775 35.5708 36.2285 35.5708 36.4863C35.5708 36.7432 35.6743 36.9941 35.856 37.1768C36.0386 37.3584 36.2905 37.4629 36.5474 37.4629C36.8042 37.4629 37.0562 37.3584 37.2378 37.1768C37.4194 36.9941 37.5239 36.7432 37.5239 36.4863C37.5239 36.2285 37.4194 35.9775 37.2378 35.7949Z" fill="#FF8E2B"/>
<path d="M49.1226 24.0248H44.6304C44.0913 24.0248 43.6538 24.4623 43.6538 25.0013C43.6538 35.2328 35.3306 43.556 25.0991 43.556C20.1274 43.556 15.4634 41.6302 11.9673 38.1332C8.47021 34.6371 6.54443 29.973 6.54443 25.0013C6.54443 14.7699 14.8677 6.44665 25.0991 6.44665C27.3159 6.44665 29.4673 6.82946 31.5151 7.58532L30.1216 8.97888C29.8423 9.25817 29.7593 9.6781 29.9097 10.0433C30.061 10.4086 30.4165 10.6459 30.812 10.6459H39.4683C40.0073 10.6459 40.4448 10.2084 40.4448 9.66931V1.01306C40.4448 0.61755 40.2065 0.262081 39.8423 0.110714C39.478 -0.0406531 39.0571 0.0433313 38.7778 0.322628L36.4028 2.69763C32.98 0.9613 29.1548 0.0316125 25.2935 0.00231564C19.9263 -0.0347937 14.7827 1.63122 10.4155 4.82946C9.97998 5.14782 9.88623 5.75915 10.2046 6.1947C10.5229 6.63024 11.1343 6.724 11.5698 6.40564C15.5474 3.49157 20.2231 1.95446 25.1021 1.95446C25.1606 1.95446 25.2202 1.95446 25.2788 1.95544C29.0649 1.98474 32.813 2.95153 36.1177 4.75427C36.4976 4.9613 36.9692 4.89392 37.2759 4.58728L38.4927 3.37048V8.69275H33.1704L33.9302 7.93298C34.1558 7.70739 34.2573 7.38513 34.2007 7.0697C34.144 6.75427 33.937 6.48767 33.647 6.35485C30.9556 5.1195 28.0796 4.49353 25.0991 4.49353C13.7915 4.49353 4.59131 13.6937 4.59131 25.0013C4.59131 30.4945 6.72021 35.6488 10.5854 39.515C14.4517 43.3802 19.606 45.5091 25.0991 45.5091C36.0796 45.5091 45.0728 36.8343 45.5835 25.9779H48.1255C47.6118 38.2347 37.48 48.0482 25.0991 48.0482C12.3911 48.0482 2.05225 37.7093 2.05225 25.0013C2.05225 20.3881 3.44092 15.9213 6.06787 12.0834C6.37256 11.6381 6.2583 11.0306 5.81396 10.7259C5.36865 10.4213 4.76123 10.5345 4.45654 10.9799C1.60596 15.1449 0.0991211 19.9935 0.0991211 25.0013C0.0991211 31.6791 2.69971 37.9574 7.42139 42.6791C12.1431 47.4007 18.4214 50.0013 25.0991 50.0013C31.7769 50.0013 38.0552 47.4007 42.7769 42.6791C47.4985 37.9574 50.0991 31.6791 50.0991 25.0013C50.0991 24.4623 49.6616 24.0248 49.1226 24.0248Z" fill="#4A2682"/>
<path d="M49.1226 24.0248H44.6304C44.0913 24.0248 43.6538 24.4623 43.6538 25.0013C43.6538 35.2328 35.3306 43.556 25.0991 43.556C20.1274 43.556 15.4634 41.6302 11.9673 38.1332C8.47021 34.6371 6.54443 29.973 6.54443 25.0013C6.54443 14.7699 14.8677 6.44665 25.0991 6.44665C27.3159 6.44665 29.4673 6.82946 31.5151 7.58532L30.1216 8.97888C29.8423 9.25817 29.7593 9.6781 29.9097 10.0433C30.061 10.4086 30.4165 10.6459 30.812 10.6459H39.4683C40.0073 10.6459 40.4448 10.2084 40.4448 9.66931V1.01306C40.4448 0.61755 40.2065 0.262081 39.8423 0.110714C39.478 -0.0406531 39.0571 0.0433313 38.7778 0.322628L36.4028 2.69763C32.98 0.9613 29.1548 0.0316125 25.2935 0.00231564C19.9263 -0.0347937 14.7827 1.63122 10.4155 4.82946C9.97998 5.14782 9.88623 5.75915 10.2046 6.1947C10.5229 6.63024 11.1343 6.724 11.5698 6.40564C15.5474 3.49157 20.2231 1.95446 25.1021 1.95446C25.1606 1.95446 25.2202 1.95446 25.2788 1.95544C29.0649 1.98474 32.813 2.95153 36.1177 4.75427C36.4976 4.9613 36.9692 4.89392 37.2759 4.58728L38.4927 3.37048V8.69275H33.1704L33.9302 7.93298C34.1558 7.70739 34.2573 7.38513 34.2007 7.0697C34.144 6.75427 33.937 6.48767 33.647 6.35485C30.9556 5.1195 28.0796 4.49353 25.0991 4.49353C13.7915 4.49353 4.59131 13.6937 4.59131 25.0013C4.59131 30.4945 6.72021 35.6488 10.5854 39.515C14.4517 43.3802 19.606 45.5091 25.0991 45.5091C36.0796 45.5091 45.0728 36.8343 45.5835 25.9779H48.1255C47.6118 38.2347 37.48 48.0482 25.0991 48.0482C12.3911 48.0482 2.05225 37.7093 2.05225 25.0013C2.05225 20.3881 3.44092 15.9213 6.06787 12.0834C6.37256 11.6381 6.2583 11.0306 5.81396 10.7259C5.36865 10.4213 4.76123 10.5345 4.45654 10.9799C1.60596 15.1449 0.0991211 19.9935 0.0991211 25.0013C0.0991211 31.6791 2.69971 37.9574 7.42139 42.6791C12.1431 47.4007 18.4214 50.0013 25.0991 50.0013C31.7769 50.0013 38.0552 47.4007 42.7769 42.6791C47.4985 37.9574 50.0991 31.6791 50.0991 25.0013C50.0991 24.4623 49.6616 24.0248 49.1226 24.0248Z" fill="#4A2682"/>
<path d="M8.73192 7.47168C8.35106 7.09082 7.73192 7.09082 7.35106 7.47168L7.33056 7.49219C6.95653 7.88086 6.96435 8.50195 7.35302 8.87597C7.54345 9.05957 7.78856 9.15137 8.0327 9.15137C8.28661 9.15137 8.54052 9.05176 8.73095 8.85449L8.04149 8.16308L8.73192 8.85351C9.11278 8.47168 9.11278 7.85352 8.73192 7.47168Z" fill="#FF8E2B"/>
<path d="M8.73192 7.47168C8.35106 7.09082 7.73192 7.09082 7.35106 7.47168L7.33056 7.49219C6.95653 7.88086 6.96435 8.50195 7.35302 8.87597C7.54345 9.05957 7.78856 9.15137 8.0327 9.15137C8.28661 9.15137 8.54052 9.05176 8.73095 8.85449L8.04149 8.16308L8.73192 8.85351C9.11278 8.47168 9.11278 7.85352 8.73192 7.47168Z" fill="#FF8E2B"/>
<path d="M25.0991 36.0352C19.0142 36.0352 14.064 31.085 14.064 25C14.064 24.4609 13.6265 24.0234 13.0874 24.0234C12.5483 24.0234 12.1108 24.4609 12.1108 25C12.1108 32.1621 17.937 37.9883 25.0991 37.9883C25.6382 37.9883 26.0757 37.5508 26.0757 37.0117C26.0757 36.4727 25.6382 36.0352 25.0991 36.0352Z" fill="#4A2682"/>
<path d="M25.0991 36.0352C19.0142 36.0352 14.064 31.085 14.064 25C14.064 24.4609 13.6265 24.0234 13.0874 24.0234C12.5483 24.0234 12.1108 24.4609 12.1108 25C12.1108 32.1621 17.937 37.9883 25.0991 37.9883C25.6382 37.9883 26.0757 37.5508 26.0757 37.0117C26.0757 36.4727 25.6382 36.0352 25.0991 36.0352Z" fill="#4A2682"/>
</g>
<defs>
<clipPath id="clip0_1_561">
<rect width="50" height="50" fill="white" transform="translate(0.0991211)"/>
</clipPath>
</defs>
</svg>
