<svg width="50" height="50" viewBox="0 0 50 50" fill="none" xmlns="http://www.w3.org/2000/svg">
<g clip-path="url(#clip0_1_563)">
<path d="M17.663 17.917C17.2411 17.581 16.6268 17.6504 16.2909 18.0723L16.2743 18.0928C15.9383 18.5146 16.0077 19.1289 16.4296 19.4648C16.6092 19.6084 16.8241 19.6777 17.038 19.6777C17.3251 19.6777 17.6093 19.5517 17.8026 19.3096L17.8192 19.2891C18.1532 18.8682 18.0839 18.2529 17.663 17.917Z" fill="#FF8E2B"/>
<path d="M17.663 17.917C17.2411 17.581 16.6268 17.6504 16.2909 18.0723L16.2743 18.0928C15.9383 18.5146 16.0077 19.1289 16.4296 19.4648C16.6092 19.6084 16.8241 19.6777 17.038 19.6777C17.3251 19.6777 17.6093 19.5517 17.8026 19.3096L17.8192 19.2891C18.1532 18.8682 18.0839 18.2529 17.663 17.917Z" fill="#FF8E2B"/>
<path d="M32.878 17.1279C31.083 15.333 28.708 14.1973 26.1885 13.9297C23.7061 13.666 21.1836 14.249 19.083 15.5703C18.627 15.8574 18.4893 16.4609 18.7764 16.917C19.0635 17.373 19.666 17.5107 20.1231 17.2236C23.7686 14.9297 28.4463 15.458 31.4971 18.5088C31.6875 18.6992 31.9375 18.7949 32.1875 18.7949C32.4375 18.7949 32.6875 18.6992 32.878 18.5088C33.2598 18.1279 33.2598 17.5098 32.878 17.1279Z" fill="#4A2682"/>
<path d="M32.878 17.1279C31.083 15.333 28.708 14.1973 26.1885 13.9297C23.7061 13.666 21.1836 14.249 19.083 15.5703C18.627 15.8574 18.4893 16.4609 18.7764 16.917C19.0635 17.373 19.666 17.5107 20.1231 17.2236C23.7686 14.9297 28.4463 15.458 31.4971 18.5088C31.6875 18.6992 31.9375 18.7949 32.1875 18.7949C32.4375 18.7949 32.6875 18.6992 32.878 18.5088C33.2598 18.1279 33.2598 17.5098 32.878 17.1279Z" fill="#4A2682"/>
<path d="M49.7051 14.4023L45.2852 9.98242C44.9033 9.60156 44.2852 9.60156 43.9043 9.98242L24.9521 28.9346L15.3369 19.3193C14.9551 18.9385 14.3369 18.9385 13.9561 19.3193L9.53711 23.7393C9.35352 23.9229 9.25098 24.1709 9.25098 24.4297C9.25098 24.6885 9.35352 24.9375 9.53711 25.1201L24.2627 39.8457C24.4531 40.0361 24.7031 40.1318 24.9531 40.1318C25.2031 40.1318 25.4531 40.0361 25.6436 39.8457L34.6309 30.8584C35.0117 30.4775 35.0117 29.8584 34.6309 29.4775C34.249 29.0967 33.6309 29.0967 33.25 29.4775L24.9531 37.7744L11.6074 24.4287L14.6455 21.3906L24.2607 31.0059C24.6426 31.3867 25.2607 31.3867 25.6416 31.0059L44.5937 12.0537L47.6318 15.0918L38.3262 24.3975C37.9453 24.7783 37.9453 25.3975 38.3262 25.7783C38.708 26.1592 39.3262 26.1592 39.707 25.7783L49.7031 15.7822C50.0859 15.4023 50.0859 14.7832 49.7051 14.4023Z" fill="#4A2682"/>
<path d="M49.7051 14.4023L45.2852 9.98242C44.9033 9.60156 44.2852 9.60156 43.9043 9.98242L24.9521 28.9346L15.3369 19.3193C14.9551 18.9385 14.3369 18.9385 13.9561 19.3193L9.53711 23.7393C9.35352 23.9229 9.25098 24.1709 9.25098 24.4297C9.25098 24.6885 9.35352 24.9375 9.53711 25.1201L24.2627 39.8457C24.4531 40.0361 24.7031 40.1318 24.9531 40.1318C25.2031 40.1318 25.4531 40.0361 25.6436 39.8457L34.6309 30.8584C35.0117 30.4775 35.0117 29.8584 34.6309 29.4775C34.249 29.0967 33.6309 29.0967 33.25 29.4775L24.9531 37.7744L11.6074 24.4287L14.6455 21.3906L24.2607 31.0059C24.6426 31.3867 25.2607 31.3867 25.6416 31.0059L44.5937 12.0537L47.6318 15.0918L38.3262 24.3975C37.9453 24.7783 37.9453 25.3975 38.3262 25.7783C38.708 26.1592 39.3262 26.1592 39.707 25.7783L49.7031 15.7822C50.0859 15.4023 50.0859 14.7832 49.7051 14.4023Z" fill="#4A2682"/>
<path d="M37.3105 26.7969C37.1279 26.6152 36.877 26.5107 36.6191 26.5107C36.3623 26.5107 36.1104 26.6152 35.9287 26.7969C35.7471 26.9785 35.6426 27.2305 35.6426 27.4873C35.6426 27.7441 35.7471 27.9961 35.9287 28.1777C36.1104 28.3594 36.3623 28.4639 36.6191 28.4639C36.876 28.4639 37.1279 28.3594 37.3105 28.1777C37.4922 27.9961 37.5957 27.7441 37.5957 27.4873C37.5957 27.2295 37.4922 26.9785 37.3105 26.7969Z" fill="#FF8E2B"/>
<path d="M37.3105 26.7969C37.1279 26.6152 36.877 26.5107 36.6191 26.5107C36.3623 26.5107 36.1104 26.6152 35.9287 26.7969C35.7471 26.9785 35.6426 27.2305 35.6426 27.4873C35.6426 27.7441 35.7471 27.9961 35.9287 28.1777C36.1104 28.3594 36.3623 28.4639 36.6191 28.4639C36.876 28.4639 37.1279 28.3594 37.3105 28.1777C37.4922 27.9961 37.5957 27.7441 37.5957 27.4873C37.5957 27.2295 37.4922 26.9785 37.3105 26.7969Z" fill="#FF8E2B"/>
<path d="M49.6827 30.5382L48.5558 29.5206C47.2852 28.3731 46.5528 26.7354 46.546 25.0235C46.544 24.4932 46.129 24.0382 45.5987 24.0235C45.046 24.0069 44.5929 24.4503 44.5929 25.0001C44.5929 27.2725 45.5597 29.4483 47.2462 30.9708L47.8614 31.5264L45.7784 36.5479L44.9483 36.5059C42.6827 36.3897 40.4591 37.2442 38.8536 38.8507C37.2481 40.4571 36.3936 42.6778 36.5089 44.9454L36.5509 45.7755L31.5294 47.8585L30.9737 47.2432C29.4513 45.5567 27.2745 44.5899 25.003 44.5899C22.7306 44.5899 20.5548 45.5567 19.0323 47.2432L18.4766 47.8585L13.4552 45.7755L13.4972 44.9454C13.6134 42.6778 12.7589 40.4561 11.1524 38.8497C9.54696 37.2442 7.32626 36.3888 5.0577 36.505L4.22762 36.547L2.14462 31.5255L2.7618 30.9688C4.44735 29.4473 5.41415 27.2716 5.41415 24.9972C5.41415 22.7266 4.44735 20.5509 2.7618 19.0294L2.14462 18.4727L4.22762 13.4513L5.0577 13.4932C7.32528 13.6095 9.54696 12.755 11.1534 11.1485C12.7589 9.54305 13.6134 7.32137 13.4981 5.05282L13.4561 4.22274L18.4776 2.13973L19.0343 2.75692C20.5558 4.44247 22.7306 5.40926 25.0059 5.40926C27.2765 5.40926 29.4522 4.44247 30.9737 2.75692L31.5304 2.13973L36.5518 4.22274L36.5099 5.05282C36.4132 6.94833 36.9942 8.81161 38.1251 10.3097C38.4815 10.7823 39.1759 10.8272 39.5938 10.4093C39.9395 10.0636 39.9737 9.51864 39.6808 9.12899C38.8263 7.9952 38.3878 6.587 38.461 5.15341L38.5382 3.63583C38.5587 3.22372 38.3184 2.84188 37.9376 2.68368L31.6427 0.0733273C31.2608 -0.0848758 30.8204 0.013757 30.544 0.321374L29.5255 1.45028C28.3731 2.72665 26.7267 3.45809 25.004 3.45809C23.2852 3.45809 21.6378 2.72665 20.4864 1.45028L19.4659 0.321374C19.1886 0.0147335 18.7491 -0.0848758 18.3673 0.0733273L12.0733 2.68466C11.6915 2.84286 11.4513 3.22372 11.4718 3.6368L11.5489 5.15438C11.6368 6.87118 10.9893 8.55282 9.7745 9.76864C8.55868 10.9845 6.87802 11.6309 5.16024 11.544L3.64266 11.4669C3.23055 11.4454 2.84872 11.6866 2.69052 12.0675L0.0791867 18.3614C-0.0790164 18.7432 0.0196164 19.1837 0.327234 19.46L1.45614 20.4786C2.73251 21.6309 3.46395 23.2774 3.46395 25.0011C3.46395 26.7198 2.73251 28.3673 1.45614 29.5186L0.327234 30.5382C0.0205929 30.8155 -0.0790164 31.255 0.0791867 31.6368L2.68954 37.9307C2.84774 38.3126 3.22958 38.5528 3.64169 38.5313L5.15927 38.4542C6.87606 38.3673 8.5577 39.0138 9.77352 40.2286C10.9893 41.4444 11.6358 43.1261 11.5479 44.8429L11.4708 46.3604C11.4493 46.7725 11.6905 47.1544 12.0724 47.3126L18.3663 49.9229C18.7481 50.0811 19.1876 49.9825 19.4649 49.6749L20.4825 48.5479C21.6358 47.2706 23.2833 46.5382 25.004 46.5382C26.7247 46.5382 28.3722 47.2706 29.5255 48.5479L30.5431 49.6749C30.7325 49.8839 30.9972 49.9972 31.2686 49.9972C31.3946 49.9972 31.5216 49.9727 31.6427 49.9229L37.9366 47.3126C38.3184 47.1544 38.5587 46.7735 38.5372 46.3604L38.46 44.8429C38.3722 43.1261 39.0196 41.4444 40.2345 40.2286C41.4503 39.0128 43.13 38.3663 44.8487 38.4542L46.3663 38.5313C46.7765 38.5518 47.1602 38.3116 47.3184 37.9298L49.9288 31.6358C50.089 31.255 49.9893 30.8155 49.6827 30.5382Z" fill="#4A2682"/>
<path d="M49.6827 30.5382L48.5558 29.5206C47.2852 28.3731 46.5528 26.7354 46.546 25.0235C46.544 24.4932 46.129 24.0382 45.5987 24.0235C45.046 24.0069 44.5929 24.4503 44.5929 25.0001C44.5929 27.2725 45.5597 29.4483 47.2462 30.9708L47.8614 31.5264L45.7784 36.5479L44.9483 36.5059C42.6827 36.3897 40.4591 37.2442 38.8536 38.8507C37.2481 40.4571 36.3936 42.6778 36.5089 44.9454L36.5509 45.7755L31.5294 47.8585L30.9737 47.2432C29.4513 45.5567 27.2745 44.5899 25.003 44.5899C22.7306 44.5899 20.5548 45.5567 19.0323 47.2432L18.4766 47.8585L13.4552 45.7755L13.4972 44.9454C13.6134 42.6778 12.7589 40.4561 11.1524 38.8497C9.54696 37.2442 7.32626 36.3888 5.0577 36.505L4.22762 36.547L2.14462 31.5255L2.7618 30.9688C4.44735 29.4473 5.41415 27.2716 5.41415 24.9972C5.41415 22.7266 4.44735 20.5509 2.7618 19.0294L2.14462 18.4727L4.22762 13.4513L5.0577 13.4932C7.32528 13.6095 9.54696 12.755 11.1534 11.1485C12.7589 9.54305 13.6134 7.32137 13.4981 5.05282L13.4561 4.22274L18.4776 2.13973L19.0343 2.75692C20.5558 4.44247 22.7306 5.40926 25.0059 5.40926C27.2765 5.40926 29.4522 4.44247 30.9737 2.75692L31.5304 2.13973L36.5518 4.22274L36.5099 5.05282C36.4132 6.94833 36.9942 8.81161 38.1251 10.3097C38.4815 10.7823 39.1759 10.8272 39.5938 10.4093C39.9395 10.0636 39.9737 9.51864 39.6808 9.12899C38.8263 7.9952 38.3878 6.587 38.461 5.15341L38.5382 3.63583C38.5587 3.22372 38.3184 2.84188 37.9376 2.68368L31.6427 0.0733273C31.2608 -0.0848758 30.8204 0.013757 30.544 0.321374L29.5255 1.45028C28.3731 2.72665 26.7267 3.45809 25.004 3.45809C23.2852 3.45809 21.6378 2.72665 20.4864 1.45028L19.4659 0.321374C19.1886 0.0147335 18.7491 -0.0848758 18.3673 0.0733273L12.0733 2.68466C11.6915 2.84286 11.4513 3.22372 11.4718 3.6368L11.5489 5.15438C11.6368 6.87118 10.9893 8.55282 9.7745 9.76864C8.55868 10.9845 6.87802 11.6309 5.16024 11.544L3.64266 11.4669C3.23055 11.4454 2.84872 11.6866 2.69052 12.0675L0.0791867 18.3614C-0.0790164 18.7432 0.0196164 19.1837 0.327234 19.46L1.45614 20.4786C2.73251 21.6309 3.46395 23.2774 3.46395 25.0011C3.46395 26.7198 2.73251 28.3673 1.45614 29.5186L0.327234 30.5382C0.0205929 30.8155 -0.0790164 31.255 0.0791867 31.6368L2.68954 37.9307C2.84774 38.3126 3.22958 38.5528 3.64169 38.5313L5.15927 38.4542C6.87606 38.3673 8.5577 39.0138 9.77352 40.2286C10.9893 41.4444 11.6358 43.1261 11.5479 44.8429L11.4708 46.3604C11.4493 46.7725 11.6905 47.1544 12.0724 47.3126L18.3663 49.9229C18.7481 50.0811 19.1876 49.9825 19.4649 49.6749L20.4825 48.5479C21.6358 47.2706 23.2833 46.5382 25.004 46.5382C26.7247 46.5382 28.3722 47.2706 29.5255 48.5479L30.5431 49.6749C30.7325 49.8839 30.9972 49.9972 31.2686 49.9972C31.3946 49.9972 31.5216 49.9727 31.6427 49.9229L37.9366 47.3126C38.3184 47.1544 38.5587 46.7735 38.5372 46.3604L38.46 44.8429C38.3722 43.1261 39.0196 41.4444 40.2345 40.2286C41.4503 39.0128 43.13 38.3663 44.8487 38.4542L46.3663 38.5313C46.7765 38.5518 47.1602 38.3116 47.3184 37.9298L49.9288 31.6358C50.089 31.255 49.9893 30.8155 49.6827 30.5382Z" fill="#4A2682"/>
</g>
<defs>
<clipPath id="clip0_1_563">
<rect width="50" height="50" fill="white" transform="translate(0.00585938)"/>
</clipPath>
</defs>
</svg>
