<svg width="30" height="30" viewBox="0 0 30 30" fill="none" xmlns="http://www.w3.org/2000/svg">
<path fill-rule="evenodd" clip-rule="evenodd" d="M15 4.99902C11.13 4.99902 8 8.12902 8 11.999C8 17.249 15 24.999 15 24.999C15 24.999 22 17.249 22 11.999C22 8.12902 18.87 4.99902 15 4.99902ZM15 14.499C13.62 14.499 12.5 13.379 12.5 11.999C12.5 10.619 13.62 9.49902 15 9.49902C16.38 9.49902 17.5 10.619 17.5 11.999C17.5 13.379 16.38 14.499 15 14.499Z" fill="#4A2682"/>
<mask id="mask0_4071_522" style="mask-type:luminance" maskUnits="userSpaceOnUse" x="8" y="4" width="14" height="21">
<path fill-rule="evenodd" clip-rule="evenodd" d="M15 4.99902C11.13 4.99902 8 8.12902 8 11.999C8 17.249 15 24.999 15 24.999C15 24.999 22 17.249 22 11.999C22 8.12902 18.87 4.99902 15 4.99902ZM15 14.499C13.62 14.499 12.5 13.379 12.5 11.999C12.5 10.619 13.62 9.49902 15 9.49902C16.38 9.49902 17.5 10.619 17.5 11.999C17.5 13.379 16.38 14.499 15 14.499Z" fill="white"/>
</mask>
<g mask="url(#mask0_4071_522)">
</g>
</svg>
