<svg width="15" height="12" viewBox="0 0 15 12" fill="none" xmlns="http://www.w3.org/2000/svg">
<g clip-path="url(#clip0_1_200)">
<path d="M7.99848 1.38286L7.96685 0.000244141L6.97115 0.494478L6.94205 1.38781C3.06048 1.75601 0 5.92982 0 11.0266C0 11.3553 0.0126518 11.6802 0.0379555 12.0002H1.39676C1.38411 11.7655 1.37525 11.5295 1.37525 11.291C1.37525 6.66746 3.80567 2.87298 6.90663 2.46647L6.62955 11.1502L8.20597 10.4088L8.02252 2.46771C11.1172 2.88286 13.54 6.67364 13.54 11.291C13.54 11.5295 13.5311 11.7655 13.5185 12.0002H14.9595C14.9848 11.6802 14.9975 11.3553 14.9975 11.0266C15 5.90387 11.9079 1.714 7.99848 1.38286Z" fill="#4A2682"/>
</g>
<defs>
<clipPath id="clip0_1_200">
<rect width="15" height="12" fill="white" transform="translate(0 0.000244141)"/>
</clipPath>
</defs>
</svg>
