<svg width="48" height="30" viewBox="0 0 48 30" fill="none" xmlns="http://www.w3.org/2000/svg">
<rect y="0.00195312" width="48" height="30" rx="4" fill="#14457C"/>
<path fill-rule="evenodd" clip-rule="evenodd" d="M26.8557 14.9706C26.8557 19.924 22.8657 23.939 17.9436 23.939C13.021 23.939 9.03076 19.924 9.03076 14.9706C9.03076 10.0174 13.021 6.00195 17.9436 6.00195C22.8657 6.00195 26.8557 10.0174 26.8557 14.9706Z" fill="#D82332"/>
<path fill-rule="evenodd" clip-rule="evenodd" d="M29.9966 6.00195C27.6933 6.00195 25.5952 6.88112 24.0132 8.32339C23.6915 8.61734 23.3909 8.93482 23.1139 9.27285H24.9143C25.1602 9.57417 25.387 9.89095 25.5938 10.2227H22.434C22.2452 10.5276 22.0732 10.8444 21.9207 11.1726H26.1071C26.2502 11.48 26.3762 11.7967 26.4846 12.1221H21.5432C21.4402 12.4315 21.3536 12.7483 21.2842 13.0714H26.7432C26.8738 13.6837 26.9433 14.3189 26.9433 14.9706C26.9433 15.9663 26.7822 16.9247 26.4846 17.8197H21.5432C21.6515 18.145 21.7776 18.4619 21.9204 18.7698H26.1071C25.9542 19.0972 25.7831 19.4142 25.5931 19.7195H22.434C22.6402 20.0503 22.8674 20.3675 23.1139 20.6684H24.9138C24.6371 21.0067 24.3364 21.3242 24.0136 21.6182C25.5954 23.0604 27.6933 23.939 29.9966 23.939C34.9187 23.939 38.909 19.924 38.909 14.9706C38.909 10.0178 34.9187 6.00195 29.9966 6.00195Z" fill="#F1AB3E"/>
<path fill-rule="evenodd" clip-rule="evenodd" d="M37.6223 19.8977C37.6223 19.7378 37.7513 19.6082 37.9103 19.6082C38.0696 19.6082 38.1981 19.7378 38.1981 19.8977C38.1981 20.0577 38.0696 20.1876 37.9103 20.1876C37.7513 20.1876 37.6223 20.0577 37.6223 19.8977ZM37.9103 20.1181C38.0308 20.1181 38.1291 20.0193 38.1291 19.8977C38.1291 19.7757 38.0308 19.6777 37.9103 19.6777C37.7894 19.6777 37.6913 19.7757 37.6913 19.8977C37.6913 20.0193 37.7894 20.1181 37.9103 20.1181ZM37.8713 20.0248H37.8122V19.7707H37.9194C37.9415 19.7707 37.9643 19.7707 37.984 19.7829C38.0041 19.7974 38.016 19.8216 38.016 19.8468C38.016 19.8756 37.9995 19.9025 37.972 19.9127L38.0188 20.0248H37.9533L37.9144 19.9244H37.8713V20.0248ZM37.8713 19.8806H37.904C37.9161 19.8806 37.9291 19.8814 37.9401 19.8756C37.9496 19.8692 37.9548 19.8579 37.9548 19.8463C37.9548 19.8366 37.9484 19.8253 37.9403 19.8203C37.9299 19.8142 37.9136 19.8155 37.9026 19.8155H37.8713V19.8806Z" fill="#F1AB3E"/>
<path fill-rule="evenodd" clip-rule="evenodd" d="M37.6223 17.0635C37.6223 16.9029 37.7516 16.7737 37.9098 16.7737C38.0691 16.7737 38.1975 16.9029 38.1975 17.0635C38.1975 17.223 38.0691 17.3531 37.9098 17.3531C37.7516 17.3531 37.6223 17.223 37.6223 17.0635ZM37.9098 17.2836C38.031 17.2836 38.1291 17.1848 38.1291 17.0635C38.1291 16.9421 38.031 16.8433 37.9098 16.8433C37.7891 16.8433 37.6913 16.9421 37.6913 17.0635C37.6913 17.1848 37.7891 17.2836 37.9098 17.2836ZM37.871 17.1901H37.8122V16.936H37.9191C37.9415 16.936 37.964 16.9368 37.9836 16.949C38.0044 16.9628 38.0157 16.9871 38.0157 17.0124C38.0157 17.0411 37.9992 17.0681 37.9723 17.0783L38.0188 17.1901H37.9533L37.9144 17.0896H37.871V17.1901ZM37.871 17.0461H37.9037C37.9156 17.0461 37.9294 17.0472 37.9398 17.0411C37.9494 17.035 37.9543 17.0228 37.9543 17.0118C37.9543 17.0022 37.9487 16.9914 37.9403 16.9854C37.9302 16.9798 37.9136 16.9813 37.9026 16.9813H37.871V17.0461Z" fill="#FFFFFE"/>
<path fill-rule="evenodd" clip-rule="evenodd" d="M36.7107 12.9468L36.4956 14.2611C36.2315 13.9108 35.9473 13.6571 35.5721 13.6571C35.0838 13.6571 34.6395 14.0296 34.3485 14.5781C33.9432 14.4935 33.5246 14.3496 33.5246 14.3496L33.5243 14.3532C33.5564 14.0466 33.5702 13.8601 33.567 13.7963H32.6781C32.5574 14.9417 32.3419 16.1013 32.1739 17.2471L32.1294 17.496H33.0977C33.2283 16.6422 33.3281 15.9324 33.4019 15.3703C33.7328 15.0694 33.8984 14.8074 34.2321 14.8244C34.0842 15.1847 33.9977 15.5994 33.9977 16.0249C33.9977 16.9494 34.4624 17.5599 35.166 17.5599C35.5207 17.5599 35.7926 17.4367 36.0581 17.1515L36.0125 17.4957H36.928L37.6649 12.9468H36.7107ZM35.5005 16.6413C35.1712 16.6413 35.0046 16.3955 35.0046 15.912C35.0046 15.1847 35.3163 14.6692 35.755 14.6692C36.0876 14.6692 36.2677 14.9238 36.2677 15.3938C36.2677 16.1272 35.9508 16.6413 35.5005 16.6413Z" fill="#0C2D5A"/>
<path fill-rule="evenodd" clip-rule="evenodd" d="M31.1484 15.9315C31.0474 15.9196 31.0026 15.9163 30.933 15.9163C30.3847 15.9163 30.1071 16.1054 30.1071 16.4791C30.1071 16.7092 30.2426 16.8564 30.4539 16.8564C30.8477 16.8564 31.1322 16.4788 31.1484 15.9315ZM31.8526 17.5794C31.7239 17.5794 31.0511 17.5794 31.0511 17.5794L31.0692 17.1963C30.8246 17.4989 30.4984 17.6436 30.0554 17.6436C29.5306 17.6436 29.1716 17.2312 29.1716 16.6328C29.1716 15.7316 29.7964 15.2069 30.8701 15.2069C30.9798 15.2069 31.1201 15.217 31.2639 15.2357C31.2939 15.1132 31.3019 15.0612 31.3019 14.9949C31.3019 14.7503 31.1339 14.6591 30.6816 14.6591C30.2084 14.6535 29.8184 14.7721 29.6574 14.825C29.6677 14.7637 29.7916 13.9931 29.7916 13.9931C30.2739 13.8508 30.5916 13.7971 30.9495 13.7971C31.7804 13.7971 32.2206 14.1729 32.2197 14.8821C32.2215 15.0721 32.1902 15.3073 32.1415 15.6151C32.0575 16.1504 31.8774 17.3002 31.8526 17.5794Z" fill="#0C2D5A"/>
<path fill-rule="evenodd" clip-rule="evenodd" d="M28.596 13.9319C28.8648 13.9319 29.1156 14.0022 29.4607 14.1774L29.6191 13.1903C29.4769 13.1341 28.9781 12.8052 28.5556 12.8052C27.9083 12.8052 27.3603 13.1289 26.9757 13.6619C26.4141 13.4749 26.1829 13.853 25.9001 14.23L25.6487 14.289C25.6677 14.165 25.685 14.0416 25.6795 13.9169H24.7904C24.6694 15.0623 24.4543 16.2219 24.2859 17.3677L24.2419 17.6166H25.21C25.3714 16.5601 25.4597 15.8839 25.5136 15.4258L25.8781 15.2226C25.9329 15.0183 26.1029 14.9497 26.4448 14.9581C26.4003 15.1993 26.376 15.4534 26.376 15.7164C26.376 16.9269 27.0257 17.6805 28.067 17.6805C28.3352 17.6805 28.5657 17.6451 28.9225 17.5473L29.0919 16.5106C28.7712 16.6692 28.5086 16.7439 28.2703 16.7439C27.7077 16.7439 27.3674 16.3259 27.3674 15.6356C27.3674 14.6337 27.8734 13.9319 28.596 13.9319Z" fill="#0C2D5A"/>
<path fill-rule="evenodd" clip-rule="evenodd" d="M23.9091 17.4939C23.5787 17.5957 23.2594 17.6439 22.9221 17.6436C21.8452 17.6429 21.2842 17.0767 21.2842 15.9933C21.2842 14.7283 21.998 13.7971 22.9669 13.7971C23.7605 13.7971 24.2667 14.3184 24.2667 15.1366C24.2667 15.4078 24.2315 15.6724 24.1484 16.0461H22.2331C22.168 16.5829 22.5095 16.8068 23.0688 16.8068C23.4129 16.8068 23.7236 16.7351 24.0693 16.5735L23.9091 17.4939ZM23.3685 15.3C23.3738 15.2227 23.4704 14.6397 22.9208 14.6397C22.6146 14.6397 22.3956 14.8751 22.3063 15.3H23.3685Z" fill="#0C2D5A"/>
<path fill-rule="evenodd" clip-rule="evenodd" d="M20.9135 17.5751C20.6488 17.659 20.4424 17.6955 20.2186 17.6955C19.7239 17.6955 19.4538 17.4093 19.4538 16.8831C19.447 16.7189 19.5252 16.2896 19.5866 15.8967C19.6424 15.5508 20.0062 13.3721 20.0062 13.3721H20.9679L20.8555 13.9319H21.3491L21.2177 14.8209H20.7224C20.6107 15.525 20.4512 16.4009 20.4494 16.5171C20.4494 16.7084 20.5508 16.7912 20.781 16.7912C20.8911 16.7912 20.9765 16.7803 21.0418 16.7564L20.9135 17.5751Z" fill="#0C2D5A"/>
<path fill-rule="evenodd" clip-rule="evenodd" d="M17.1435 15.0495C17.1435 15.5179 17.3692 15.8399 17.8806 16.0827C18.2723 16.2681 18.3328 16.3229 18.3328 16.491C18.3328 16.7216 18.1602 16.8257 17.7772 16.8257C17.4885 16.8257 17.22 16.7806 16.9102 16.6801C16.9102 16.6801 16.7834 17.4952 16.7773 17.5337C16.9972 17.5822 17.1934 17.6264 17.7841 17.6436C18.8052 17.6436 19.2768 17.2526 19.2768 16.4071C19.2768 15.8986 19.0793 15.6004 18.5947 15.3764C18.189 15.1886 18.1424 15.1471 18.1424 14.9742C18.1424 14.7742 18.3031 14.6713 18.6159 14.6713C18.8057 14.6713 19.0652 14.6926 19.3111 14.7274L19.4489 13.8695C19.1983 13.8297 18.8186 13.7971 18.5972 13.7971C17.5148 13.7971 17.1403 14.366 17.1435 15.0495Z" fill="#0C2D5A"/>
<path fill-rule="evenodd" clip-rule="evenodd" d="M15.9379 15.9315C15.8365 15.9196 15.7917 15.9163 15.722 15.9163C15.1735 15.9163 14.8959 16.1054 14.8959 16.4791C14.8959 16.7092 15.0314 16.8564 15.2428 16.8564C15.6371 16.8564 15.9212 16.4788 15.9379 15.9315ZM16.6416 17.5794C16.5127 17.5794 15.84 17.5794 15.84 17.5794L15.8583 17.1963C15.6138 17.4989 15.2875 17.6436 14.8443 17.6436C14.3199 17.6436 13.9604 17.2312 13.9604 16.6328C13.9604 15.7316 14.5857 15.2069 15.659 15.2069C15.7689 15.2069 15.9095 15.217 16.0534 15.2357C16.0834 15.1132 16.0913 15.0612 16.0913 14.9949C16.0913 14.7503 15.9227 14.6591 15.4709 14.6591C14.9972 14.6535 14.6071 14.7721 14.4465 14.825C14.4566 14.7637 14.5807 13.9931 14.5807 13.9931C15.0628 13.8508 15.3809 13.7971 15.7388 13.7971C16.5696 13.7971 17.0096 14.1729 17.0088 14.8821C17.0104 15.0721 16.9792 15.3073 16.9306 15.6151C16.8465 16.1504 16.6662 17.3002 16.6416 17.5794Z" fill="#0C2D5A"/>
<path fill-rule="evenodd" clip-rule="evenodd" d="M13.4741 17.6374H12.5066L13.061 14.1406L11.8234 17.6374H11.164L11.0824 14.1608L10.4999 17.6374H9.59424L10.3507 13.0886H11.7421L11.7809 15.9046L12.7197 13.0886H14.2224L13.4741 17.6374Z" fill="#0C2D5A"/>
<path fill-rule="evenodd" clip-rule="evenodd" d="M37.313 17.3539H36.3979L36.4432 17.0097C36.1777 17.295 35.9056 17.4181 35.5511 17.4181C34.8479 17.4181 34.3828 16.8084 34.3828 15.8829C34.3828 14.6524 35.1041 13.6152 35.957 13.6152C36.3324 13.6152 36.6165 13.7694 36.8811 14.1197L37.0958 12.8052H38.05L37.313 17.3539ZM35.8856 16.4991C36.3365 16.4991 36.6528 15.9854 36.6528 15.2526C36.6528 14.7825 36.4727 14.5272 36.14 14.5272C35.7013 14.5272 35.3896 15.0427 35.3896 15.7702C35.3896 16.2545 35.5566 16.4991 35.8856 16.4991Z" fill="#FFFFFE"/>
<path fill-rule="evenodd" clip-rule="evenodd" d="M32.9597 13.5534C32.8386 14.6984 32.6235 15.8582 32.4552 17.0039L32.4111 17.2527H33.3789C33.7249 14.9904 33.8083 14.5489 34.3514 14.6041C34.4378 14.141 34.5986 13.7355 34.7186 13.5311C34.3134 13.4461 34.087 13.6766 33.7904 14.1145C33.8141 13.925 33.8568 13.7412 33.8487 13.5534H32.9597Z" fill="#FFFFFE"/>
<path fill-rule="evenodd" clip-rule="evenodd" d="M31.4301 15.648C31.3291 15.6361 31.2844 15.6329 31.2148 15.6329C30.6665 15.6329 30.3889 15.8219 30.3889 16.1957C30.3889 16.4257 30.5244 16.573 30.7356 16.573C31.1294 16.573 31.4139 16.1954 31.4301 15.648ZM32.1344 17.2959C32.0056 17.2959 31.3328 17.2959 31.3328 17.2959L31.351 16.9128C31.1063 17.2154 30.7801 17.3601 30.3372 17.3601C29.8124 17.3601 29.4534 16.9477 29.4534 16.3493C29.4534 15.4482 30.0782 14.9235 31.1518 14.9235C31.2615 14.9235 31.4018 14.9335 31.5456 14.9523C31.5756 14.8298 31.5837 14.7778 31.5837 14.7115C31.5837 14.4668 31.4156 14.3757 30.9634 14.3757C30.4901 14.37 30.1001 14.4886 29.9391 14.5415C29.9494 14.4803 30.0734 13.7097 30.0734 13.7097C30.5556 13.5674 30.8734 13.5137 31.2313 13.5137C32.0621 13.5137 32.5024 13.8894 32.5014 14.5986C32.5032 14.7887 32.472 15.0238 32.4232 15.3317C32.3393 15.867 32.1591 17.0167 32.1344 17.2959Z" fill="#FFFFFE"/>
<path fill-rule="evenodd" clip-rule="evenodd" d="M29.8792 12.8996L29.7207 13.8868C29.3752 13.712 29.1249 13.6413 28.8563 13.6413C28.1339 13.6413 27.6273 14.3438 27.6273 15.3459C27.6273 16.0363 27.9679 16.4534 28.5304 16.4534C28.7686 16.4534 29.0318 16.3793 29.3521 16.2201L29.1821 17.2567C28.8259 17.3545 28.5953 17.3901 28.3272 17.3901C27.2853 17.3901 26.6365 16.6364 26.6365 15.4261C26.6365 13.7999 27.5335 12.6633 28.8156 12.6633C29.2382 12.6633 29.7372 12.8435 29.8792 12.8996Z" fill="#FFFFFE"/>
<path fill-rule="evenodd" clip-rule="evenodd" d="M25.0728 13.5534C24.9511 14.6984 24.7358 15.8582 24.5678 17.0039L24.5237 17.2527H25.4917C25.838 14.9904 25.9211 14.5489 26.4634 14.6041C26.5503 14.141 26.7116 13.7355 26.8311 13.5311C26.4262 13.4461 26.1996 13.6766 25.9035 14.1145C25.9269 13.925 25.9699 13.7412 25.9613 13.5534H25.0728Z" fill="#FFFFFE"/>
<path fill-rule="evenodd" clip-rule="evenodd" d="M24.1908 17.2105C23.8604 17.3122 23.5411 17.3604 23.2038 17.3601C22.1269 17.3594 21.5659 16.7932 21.5659 15.7098C21.5659 14.4449 22.2797 13.5137 23.2486 13.5137C24.0423 13.5137 24.5485 14.035 24.5485 14.8532C24.5485 15.1243 24.5132 15.3889 24.4301 15.7627H22.5148C22.4497 16.2994 22.7913 16.5234 23.3506 16.5234C23.6947 16.5234 24.0054 16.4516 24.351 16.2901L24.1908 17.2105ZM23.6503 15.0166C23.6555 14.9392 23.7521 14.3563 23.2025 14.3563C22.8963 14.3563 22.6773 14.5917 22.588 15.0166H23.6503Z" fill="#FFFFFE"/>
<path fill-rule="evenodd" clip-rule="evenodd" d="M21.1952 17.2917C20.9306 17.3756 20.7241 17.412 20.5003 17.412C20.0057 17.412 19.7355 17.1259 19.7355 16.5996C19.7288 16.4355 19.8069 16.0062 19.8683 15.6133C19.9241 15.2673 20.2879 13.0886 20.2879 13.0886H21.2496L21.1372 13.6485H21.6309L21.4995 14.5374H21.0041C20.8924 15.2415 20.733 16.1174 20.7312 16.2337C20.7312 16.425 20.8326 16.5078 21.0627 16.5078C21.1728 16.5078 21.2582 16.4969 21.3235 16.4729L21.1952 17.2917Z" fill="#FFFFFE"/>
<path fill-rule="evenodd" clip-rule="evenodd" d="M17.425 14.766C17.425 15.2344 17.6507 15.5565 18.1621 15.7992C18.5538 15.9846 18.6143 16.0395 18.6143 16.2076C18.6143 16.4382 18.4417 16.5422 18.0587 16.5422C17.77 16.5422 17.5015 16.4971 17.1917 16.3966C17.1917 16.3966 17.0649 17.2118 17.0588 17.2503C17.2787 17.2988 17.4749 17.343 18.0656 17.3601C19.0867 17.3601 19.5583 16.9691 19.5583 16.1237C19.5583 15.6151 19.3608 15.3169 18.8762 15.093C18.4705 14.9052 18.4239 14.8637 18.4239 14.6908C18.4239 14.4908 18.5846 14.3879 18.8974 14.3879C19.0871 14.3879 19.3467 14.4091 19.5926 14.444L19.7304 13.5861C19.4798 13.5463 19.1001 13.5137 18.8787 13.5137C17.7963 13.5137 17.4218 14.0826 17.425 14.766Z" fill="#FFFFFE"/>
<path fill-rule="evenodd" clip-rule="evenodd" d="M16.2194 15.648C16.118 15.6361 16.0732 15.6329 16.0035 15.6329C15.455 15.6329 15.1774 15.8219 15.1774 16.1957C15.1774 16.4257 15.3129 16.573 15.5243 16.573C15.9186 16.573 16.2026 16.1954 16.2194 15.648ZM16.9231 17.2959C16.7942 17.2959 16.1215 17.2959 16.1215 17.2959L16.1398 16.9128C15.8953 17.2154 15.569 17.3601 15.1257 17.3601C14.6014 17.3601 14.2419 16.9477 14.2419 16.3493C14.2419 15.4482 14.8672 14.9235 15.9405 14.9235C16.0504 14.9235 16.191 14.9335 16.3349 14.9523C16.3649 14.8298 16.3728 14.7778 16.3728 14.7115C16.3728 14.4668 16.2042 14.3757 15.7524 14.3757C15.2787 14.37 14.8886 14.4886 14.728 14.5415C14.7381 14.4803 14.8622 13.7097 14.8622 13.7097C15.3443 13.5674 15.6624 13.5137 16.0203 13.5137C16.8511 13.5137 17.2911 13.8894 17.2903 14.5986C17.2919 14.7887 17.2607 15.0238 17.2121 15.3317C17.128 15.867 16.9477 17.0167 16.9231 17.2959Z" fill="#FFFFFE"/>
<path fill-rule="evenodd" clip-rule="evenodd" d="M13.7556 17.3539H12.7881L13.3425 13.8571L12.1049 17.3539H11.4455L11.3639 13.8774L10.7814 17.3539H9.87573L10.6322 12.8052H12.0236L12.0624 15.6211L13.0012 12.8052H14.5039L13.7556 17.3539Z" fill="#FFFFFE"/>
</svg>
