<svg width="30" height="30" viewBox="0 0 30 30" fill="none" xmlns="http://www.w3.org/2000/svg">
<path fill-rule="evenodd" clip-rule="evenodd" d="M9.62 13.789C11.06 16.619 13.38 18.929 16.21 20.379L18.41 18.179C18.68 17.909 19.08 17.819 19.43 17.939C20.55 18.309 21.76 18.509 23 18.509C23.55 18.509 24 18.959 24 19.509V22.999C24 23.549 23.55 23.999 23 23.999C13.61 23.999 6 16.389 6 6.99902C6 6.44902 6.45 5.99902 7 5.99902H10.5C11.05 5.99902 11.5 6.44902 11.5 6.99902C11.5 8.24902 11.7 9.44902 12.07 10.569C12.18 10.919 12.1 11.309 11.82 11.589L9.62 13.789Z" fill="#4A2682"/>
<mask id="mask0_4071_512" style="mask-type:luminance" maskUnits="userSpaceOnUse" x="6" y="5" width="18" height="19">
<path fill-rule="evenodd" clip-rule="evenodd" d="M9.62 13.789C11.06 16.619 13.38 18.929 16.21 20.379L18.41 18.179C18.68 17.909 19.08 17.819 19.43 17.939C20.55 18.309 21.76 18.509 23 18.509C23.55 18.509 24 18.959 24 19.509V22.999C24 23.549 23.55 23.999 23 23.999C13.61 23.999 6 16.389 6 6.99902C6 6.44902 6.45 5.99902 7 5.99902H10.5C11.05 5.99902 11.5 6.44902 11.5 6.99902C11.5 8.24902 11.7 9.44902 12.07 10.569C12.18 10.919 12.1 11.309 11.82 11.589L9.62 13.789Z" fill="white"/>
</mask>
<g mask="url(#mask0_4071_512)">
</g>
</svg>
