<svg width="94" height="94" viewBox="0 0 94 94" fill="none" xmlns="http://www.w3.org/2000/svg">
<g clip-path="url(#clip0_1_260)">
<path d="M9.17969 82.9881C8.16625 82.9881 7.34375 83.8106 7.34375 84.824V84.8259C7.34375 85.8393 8.16625 86.6618 9.17969 86.6618C10.1931 86.6618 11.0156 85.8393 11.0156 84.8259C11.0156 83.8124 10.1931 82.9881 9.17969 82.9881Z" fill="#FF8E2B"/>
<path d="M92.1642 0.00585938H77.4767C76.4632 0.00585938 75.6407 0.828359 75.6407 1.8418V3.75852L73.1916 3.74383C73.1879 3.74383 73.1842 3.74383 73.1806 3.74383C72.1726 3.74383 71.352 4.55715 71.3446 5.56691C71.3373 6.58035 72.1543 7.40836 73.1696 7.4157L75.6407 7.43039V26.4782C70.8342 29.5057 66.4941 27.7634 61.9153 25.9183C58.897 24.7029 55.7759 23.4471 52.6603 23.8363C51.6781 23.9593 49.0251 24.3449 46.218 24.7525C43.5577 25.138 40.8075 25.5382 39.862 25.6576C39.381 25.7182 38.9018 25.5841 38.5107 25.2812C38.1123 24.9709 37.859 24.5248 37.7965 24.0254C37.7562 23.7005 37.6497 22.8357 39.9501 21.7691C44.8208 19.5109 50.011 17.5776 54.1896 16.465C55.17 16.2043 55.752 15.1982 55.4913 14.2179C55.2306 13.2375 54.2263 12.6555 53.246 12.9162C48.8691 14.0802 43.4604 16.0942 38.4061 18.4387C36.6472 19.2538 35.5677 20.203 34.9306 21.1595L16.5235 26.1771C14.5866 26.6637 13.5934 25.8926 13.3088 25.0095C13.0297 24.1393 13.3676 23.0157 14.7519 22.4704C16.1931 21.9214 19.6318 20.4086 23.983 18.4937C29.7496 15.9565 36.9263 12.7968 42.6508 10.4744C49.4511 7.71496 51.5238 7.30004 58.4876 7.32391H58.4931C59.5047 7.32391 60.3253 6.50508 60.329 5.49348C60.3327 4.48004 59.512 3.65387 58.4986 3.65203C51.0722 3.62633 48.4946 4.14039 41.272 7.07055C35.498 9.41137 28.2956 12.582 22.5069 15.1303C18.3631 16.9534 14.7849 18.5286 13.4392 19.0409C13.4337 19.0427 13.4281 19.0445 13.4226 19.0482C9.99311 20.3939 9.01272 23.6307 9.81686 26.1331C10.61 28.5987 13.3345 30.7762 17.4452 29.7334C17.4562 29.7297 17.4654 29.7278 17.4764 29.7242L34.2807 25.1417C34.5781 26.3424 35.2666 27.4036 36.2599 28.1765C37.4257 29.0834 38.8687 29.4818 40.3246 29.3001C41.305 29.1771 43.9506 28.7915 46.7504 28.3858C49.418 27.9984 52.1738 27.5982 53.123 27.4788C55.293 27.2071 57.845 28.2334 60.5475 29.3221C63.4115 30.4751 66.674 31.7896 70.2045 31.7896C71.9578 31.7896 73.7772 31.4628 75.6462 30.633V31.2168C75.6462 32.2302 76.4687 33.0527 77.4822 33.0527H92.1697C93.1831 33.0527 94.0056 32.2302 94.0056 31.2168V1.8418C94.0001 0.828359 93.1776 0.00585938 92.1642 0.00585938ZM90.3282 29.3809H79.3126V5.61832V5.61648V5.61465V3.67773H90.3282V29.3809Z" fill="#4A2682"/>
<path d="M84.8203 11.0233C85.8338 11.0233 86.6562 10.2008 86.6562 9.18738V9.18555C86.6562 8.17211 85.8338 7.34961 84.8203 7.34961C83.8069 7.34961 82.9844 8.17211 82.9844 9.18555C82.9844 10.199 83.8069 11.0233 84.8203 11.0233Z" fill="#FF8E2B"/>
<path d="M34.1484 59.8574C38.5051 59.8574 42.3606 57.6763 44.6849 54.3496H51.4687C51.9552 54.3496 52.4234 54.1568 52.7667 53.8117L55.9006 50.6777H58.0523L61.1863 53.8117C61.5314 54.1568 61.9978 54.3496 62.4843 54.3496H65.3594C65.8459 54.3496 66.3141 54.1568 66.6574 53.8117L72.1652 48.3039C72.5104 47.9587 72.7031 47.4924 72.7031 47.0059V41.498C72.7031 40.4846 71.8806 39.6621 70.8672 39.6621H44.6867C42.3606 36.3354 38.507 34.1543 34.1484 34.1543C27.0617 34.1543 21.2969 39.9191 21.2969 47.0059C21.2969 54.0926 27.0617 59.8574 34.1484 59.8574ZM69.0312 43.334V46.2458L64.5993 50.6777H63.2444L60.1104 47.5438C59.7653 47.1986 59.2989 47.0059 58.8124 47.0059H55.1405C54.654 47.0059 54.1859 47.1986 53.8425 47.5438L50.7086 50.6777H46.4639C46.8109 49.5138 47.0018 48.2818 47.0018 47.0059C47.0018 45.7299 46.8127 44.498 46.4639 43.334H69.0312ZM34.1484 37.8262C39.2101 37.8262 43.3281 41.9442 43.3281 47.0059C43.3281 52.0675 39.2101 56.1855 34.1484 56.1855C29.0868 56.1855 24.9688 52.0675 24.9688 47.0059C24.9688 41.9442 29.0868 37.8262 34.1484 37.8262Z" fill="#4A2682"/>
<path d="M30.4766 48.8418C31.49 48.8418 32.3125 48.0193 32.3125 47.0059C32.3125 45.9924 31.49 45.1699 30.4766 45.1699C29.4631 45.1699 28.6406 45.9924 28.6406 47.0059C28.6406 48.0211 29.4631 48.8418 30.4766 48.8418Z" fill="#FF8E2B"/>
<path d="M65.835 7.36963C66.8502 7.36963 67.6709 6.54713 67.6709 5.53369C67.6709 4.52025 66.8484 3.69775 65.835 3.69775C64.8215 3.69775 63.999 4.52025 63.999 5.53369C63.999 6.54529 64.8215 7.36963 65.835 7.36963Z" fill="#FF8E2B"/>
<path d="M76.5586 64.2784C76.5476 64.282 76.5384 64.2839 76.5274 64.2875L59.723 68.87C59.4256 67.6693 58.7371 66.6082 57.7439 65.8352C56.5781 64.9283 55.135 64.5299 53.6791 64.7116C52.6987 64.8346 50.0532 65.2202 47.2534 65.6259C44.5857 66.0133 41.83 66.4136 40.8808 66.5329C38.7126 66.8046 36.1588 65.7783 33.4563 64.6896C29.1712 62.9638 23.9902 60.8782 18.3594 63.3769V62.7949C18.3594 61.7815 17.5369 60.959 16.5234 60.959H1.83594C0.8225 60.959 0 61.7815 0 62.7949V92.1699C0 93.1834 0.8225 94.0059 1.83594 94.0059H16.5234C17.5369 94.0059 18.3594 93.1834 18.3594 92.1699V90.2532L20.8085 90.2679H20.8195C21.8275 90.2679 22.6481 89.4546 22.6555 88.443C22.6628 87.4295 21.8458 86.6015 20.8305 86.596L18.3594 86.5813V67.5335C23.1659 64.506 27.506 66.2483 32.0848 68.0934C35.1031 69.3088 38.2261 70.5664 41.3398 70.1754C42.3239 70.0524 44.975 69.6668 47.7821 69.2611C50.4424 68.8737 53.1926 68.4753 54.1381 68.356C54.6191 68.2954 55.0983 68.4294 55.4894 68.7323C55.8878 69.0426 56.1411 69.4887 56.2036 69.9881C56.2439 70.3131 56.3504 71.1778 54.05 72.2445C49.1793 74.5027 43.9909 76.4378 39.8105 77.5485C38.8301 77.8092 38.2481 78.8153 38.5088 79.7939C38.7695 80.7743 39.7756 81.3562 40.7541 81.0955C45.131 79.9316 50.5397 77.9175 55.5959 75.573C57.3529 74.7579 58.4342 73.8087 59.0713 72.8522L77.4766 67.8346C79.4116 67.3462 80.4067 68.1191 80.6913 69.0022C80.9704 69.8725 80.6325 70.9961 79.2482 71.5413C77.8089 72.0903 74.3683 73.6031 70.0153 75.5198C64.2486 78.0571 57.072 81.2167 51.3493 83.5373C44.549 86.2968 42.4707 86.7135 35.5125 86.6878C35.5107 86.6878 35.5089 86.6878 35.507 86.6878C34.4954 86.6878 33.6748 87.5066 33.6711 88.5182C33.6674 89.5317 34.4881 90.3579 35.5015 90.3597C35.6521 90.3597 35.7989 90.3597 35.9458 90.3597C43.0362 90.3597 45.6524 89.8107 52.7281 86.9393C58.5003 84.5985 65.7045 81.4278 71.4932 78.8796C75.637 77.0565 79.2152 75.4812 80.5609 74.969C80.5664 74.9672 80.572 74.9653 80.5793 74.9617C84.0088 73.6159 84.9892 70.3792 84.1851 67.8768C83.3938 65.4148 80.6693 63.2355 76.5586 64.2784ZM3.67188 90.334V64.6309H14.6875V88.3952V88.3971V90.334H3.67188Z" fill="#4A2682"/>
<path d="M28.165 86.6417C27.1498 86.6417 26.3291 87.4642 26.3291 88.4776C26.3291 89.491 27.1516 90.3135 28.165 90.3135C29.1785 90.3135 30.001 89.491 30.001 88.4776C30.001 87.466 29.1785 86.6417 28.165 86.6417Z" fill="#FF8E2B"/>
</g>
<defs>
<clipPath id="clip0_1_260">
<rect width="94" height="94" fill="white" transform="translate(0 0.00585938)"/>
</clipPath>
</defs>
</svg>
