<svg width="69" height="68" viewBox="0 0 69 68" fill="none" xmlns="http://www.w3.org/2000/svg">
<g clip-path="url(#clip0_1_2948)">
<path d="M67.3689 31.7679C66.3359 30.8139 64.9316 30.2248 63.5138 30.1518C61.9043 30.0681 60.3973 30.6423 59.2739 31.7665L51.6015 39.3629C51.4503 39.0994 51.2761 38.8521 51.083 38.6211C50.1391 37.4996 48.7591 36.8821 47.1969 36.8821H36.4566C34.4312 36.8821 32.4557 36.6186 30.5842 36.1011C25.7069 34.7513 21.0457 35.7376 17.1069 38.9548C15.5055 40.2628 14.3361 41.6869 13.5975 42.7247L11.672 40.8546C11.4181 40.6087 11.0751 40.4695 10.7227 40.4695C10.72 40.4695 10.7173 40.4695 10.7133 40.4695C10.3473 40.4722 9.99356 40.6249 9.7397 40.8884L0.379469 50.6129C0.128314 50.8737 -0.00806555 51.2223 3.62101e-05 51.5844C0.00813797 51.9465 0.159371 52.2897 0.419978 52.5383L16.2535 67.6244C16.5168 67.8744 16.8531 68 17.1893 68C17.5431 68 17.8955 67.8622 18.1615 67.5893L27.4353 58.0688C27.6892 57.808 27.8296 57.4526 27.8228 57.0892C27.8161 56.7311 27.6662 56.3852 27.4097 56.1352L26.6022 55.3515L28.4507 55.1434C29.5688 55.0137 30.7057 54.9475 31.8319 54.9475H48.1731C50.8278 54.9475 53.0841 54.3665 54.8773 53.2207C54.8922 53.2112 54.907 53.2018 54.9219 53.191C55.5646 52.7437 56.1466 52.2154 56.653 51.6182L67.6646 38.6549C69.5483 36.4362 69.4294 33.669 67.3689 31.7679ZM17.1555 64.7328L3.28125 51.5141L10.7551 43.7502L24.547 57.1432L17.1555 64.7328ZM65.5946 36.8956L54.583 49.8589C54.2332 50.2697 53.8322 50.6359 53.3907 50.9453C52.0444 51.7979 50.289 52.2316 48.1718 52.2316H31.8305C30.6017 52.2316 29.3581 52.3032 28.1415 52.4451L24.0785 52.9018L15.5716 44.6406C16.1631 43.7637 17.25 42.3463 18.8245 41.06C22.0976 38.386 25.8109 37.5982 29.8604 38.7197C31.9669 39.3034 34.1854 39.5993 36.4566 39.5993H47.1969C49.1251 39.5993 49.6409 41.2708 49.6409 42.2585C49.6409 42.98 49.4086 43.6664 49.0049 44.1434C48.5674 44.6596 47.9436 44.9203 47.1536 44.9203H37.8042C37.0548 44.9203 36.4472 45.5284 36.4472 46.2783C36.4472 47.0282 37.0548 47.6362 37.8042 47.6362H47.1536C48.7321 47.6362 50.1243 47.0201 51.0735 45.9013C51.8635 44.9717 52.3145 43.7475 52.3523 42.4409L61.1886 33.6919C62.4511 32.4286 64.4239 32.7448 65.5284 33.7636C66.0996 34.2905 66.8679 35.3985 65.5946 36.8956Z" fill="#2A0D56"/>
<path d="M33.5724 45.9175C33.4009 45.1865 32.6718 44.7339 31.9413 44.9055C31.2121 45.0771 30.7584 45.8067 30.9299 46.5377L30.9421 46.5931C31.0892 47.2187 31.6469 47.6416 32.2627 47.6416C32.3653 47.6416 32.4692 47.6295 32.5732 47.6052C33.3037 47.4336 33.7561 46.7026 33.5846 45.9729L33.5724 45.9175Z" fill="#FF8E2B"/>
<path d="M9.17394 28.6574H22.4001C23.1198 28.6574 23.7868 28.4236 24.3283 28.0291C24.8711 28.4236 25.5368 28.6574 26.2565 28.6574H39.4826C40.2023 28.6574 40.8694 28.4236 41.4109 28.0291C41.9537 28.4236 42.6194 28.6574 43.3391 28.6574H56.5652C58.3773 28.6574 59.8518 27.1819 59.8518 25.3686V19.1964C59.8518 16.4251 58.3017 14.0159 55.9805 12.8282C57.1053 11.4716 57.7818 9.73127 57.7818 7.8342C57.7845 3.51445 54.2724 0 49.9555 0C45.6386 0 42.1265 3.51445 42.1265 7.8342C42.1265 9.73127 42.803 11.4716 43.9278 12.8282C42.9245 13.343 42.0657 14.0848 41.4136 14.9847C40.7614 14.0835 39.9026 13.3417 38.8993 12.8282C40.0241 11.4716 40.7006 9.73127 40.7006 7.8342C40.7006 3.51445 37.1885 0 32.8716 0C28.5547 0 25.0426 3.51445 25.0426 7.8342C25.0426 9.73127 25.7204 11.4716 26.8439 12.8282C25.8406 13.3417 24.9818 14.0835 24.3296 14.9847C23.6774 14.0835 22.8187 13.3417 21.8154 12.8282C22.9402 11.4716 23.6167 9.73127 23.6167 7.8342C23.6167 3.51445 20.1046 0 15.7863 0C11.4708 0 7.95733 3.51445 7.95733 7.83555C7.95733 9.73127 8.63383 11.473 9.75862 12.8296C7.43747 14.0172 5.88733 16.4264 5.88733 19.1977V25.3686C5.88733 27.1805 7.36185 28.6574 9.17394 28.6574ZM49.9555 2.71724C52.7749 2.71724 55.0704 5.01292 55.0704 7.83555C55.0704 10.6568 52.7763 12.9539 49.9555 12.9539C47.1347 12.9539 44.8406 10.6582 44.8406 7.83555C44.8406 5.01292 47.1347 2.71724 49.9555 2.71724ZM46.4299 14.8266C47.4912 15.3644 48.6889 15.6698 49.9555 15.6698C51.2234 15.6698 52.4211 15.3644 53.4811 14.8266C55.5903 15.1941 57.1404 17.0128 57.1404 19.1964V25.3686C57.1404 25.6848 56.8839 25.9402 56.5692 25.9402H43.3431C43.0285 25.9402 42.7719 25.6834 42.7719 25.3686V19.1964C42.7706 17.0142 44.3207 15.1941 46.4299 14.8266ZM32.8716 2.71724C35.691 2.71724 37.9865 5.01292 37.9865 7.83555C37.9865 10.6568 35.6924 12.9539 32.8716 12.9539C30.0508 12.9539 27.7567 10.6582 27.7567 7.83555C27.7567 5.01292 30.0508 2.71724 32.8716 2.71724ZM29.346 14.8266C30.406 15.3644 31.6037 15.6698 32.8716 15.6698C34.1395 15.6698 35.3372 15.3644 36.3972 14.8266C38.5064 15.1941 40.0565 17.0128 40.0565 19.1964V25.3686C40.0565 25.6848 39.8 25.9402 39.4853 25.9402H26.2592C25.9432 25.9402 25.688 25.6834 25.688 25.3686V19.1964C25.6867 17.0142 27.2368 15.1941 29.346 14.8266ZM15.7877 2.71724C18.6071 2.71724 20.9026 5.01292 20.9026 7.83555C20.9026 10.6568 18.6084 12.9539 15.7877 12.9539C12.9669 12.9539 10.6728 10.6568 10.6728 7.8342C10.6728 5.01292 12.9669 2.71724 15.7877 2.71724ZM8.60277 19.1964C8.60277 17.0142 10.1529 15.1941 12.2621 14.8266C13.3234 15.3644 14.5198 15.6698 15.7877 15.6698C17.0556 15.6698 18.2533 15.3644 19.3133 14.8266C21.4225 15.1941 22.9726 17.0128 22.9726 19.1964V25.3686C22.9726 25.6848 22.716 25.9402 22.4014 25.9402H9.17394C8.85798 25.9402 8.60277 25.6834 8.60277 25.3686V19.1964Z" fill="#2A0D56"/>
</g>
<defs>
<clipPath id="clip0_1_2948">
<rect width="69" height="68" fill="white"/>
</clipPath>
</defs>
</svg>
