<svg width="60" height="60" viewBox="0 0 60 60" fill="none" xmlns="http://www.w3.org/2000/svg">
<g clip-path="url(#clip0_1_2917)">
<path d="M55.9078 51.6211C58.1637 51.6211 60 49.7859 60 47.5289V5.85938C60 2.62852 57.3715 0 54.1406 0H5.85938C2.62852 0 0 2.62852 0 5.85938V47.5289C0 49.7848 1.83516 51.6211 4.09219 51.6211H5.39062V57.6562H1.17188C0.525 57.6562 0 58.1813 0 58.8281C0 59.475 0.525 60 1.17188 60H58.8281C59.475 60 60 59.475 60 58.8281C60 58.1813 59.475 57.6562 58.8281 57.6562H54.6094V51.6211H55.9078ZM2.34375 5.85938C2.34375 3.92109 3.92109 2.34375 5.85938 2.34375H54.1406C56.0789 2.34375 57.6562 3.92109 57.6562 5.85938V8.4375H2.46094C2.42109 8.4375 2.38242 8.43984 2.34375 8.44336V5.85938ZM12.8906 57.6562H7.73438V47.1094H12.8906V57.6562ZM26.0156 57.6562H20.8594V34.152H26.0156V57.6562ZM39.1406 57.6562H33.9844V44.0625H39.1406V57.6562ZM53.4375 30.0586H45.9375C45.2906 30.0586 44.7656 30.5836 44.7656 31.2305V37.1484C44.7656 37.7953 45.2906 38.3203 45.9375 38.3203C46.5844 38.3203 47.1094 37.7953 47.1094 37.1484V32.4023H52.2656V57.6562H47.1094V45.0293C47.1094 44.3824 46.5844 43.8574 45.9375 43.8574C45.2906 43.8574 44.7656 44.3824 44.7656 45.0293V57.6562H41.4844V42.8906C41.4844 42.2438 40.9594 41.7188 40.3125 41.7188H32.8125C32.1656 41.7188 31.6406 42.2438 31.6406 42.8906V57.6562H28.3594V32.9801C28.3594 32.3332 27.8344 31.8082 27.1875 31.8082H19.6875C19.0406 31.8082 18.5156 32.3332 18.5156 32.9801V57.6562H15.2344V45.9375C15.2344 45.2906 14.7094 44.7656 14.0625 44.7656H6.5625C5.91563 44.7656 5.39062 45.2906 5.39062 45.9375V49.2773H4.09219C3.12773 49.2773 2.34375 48.4934 2.34375 47.5289V10.7754C2.38242 10.7789 2.42227 10.7812 2.46094 10.7812H57.6562V47.5289C57.6562 48.4934 56.8723 49.2773 55.9078 49.2773H54.6094V31.2305C54.6094 30.5836 54.0844 30.0586 53.4375 30.0586Z" fill="#2A0D56"/>
<path d="M52.4999 4.21875H26.0238C25.3769 4.21875 24.8519 4.74375 24.8519 5.39062C24.8519 6.0375 25.3769 6.5625 26.0238 6.5625H52.4999C53.1468 6.5625 53.6718 6.0375 53.6718 5.39062C53.6718 4.74375 53.1468 4.21875 52.4999 4.21875Z" fill="#2A0D56"/>
<path d="M13.016 4.56211C12.798 4.34414 12.4957 4.21875 12.1875 4.21875C11.8793 4.21875 11.577 4.34414 11.359 4.56211C11.141 4.78008 11.0156 5.08242 11.0156 5.39062C11.0156 5.69883 11.141 6.00117 11.359 6.21914C11.577 6.43711 11.8793 6.5625 12.1875 6.5625C12.4957 6.5625 12.798 6.43711 13.016 6.21914C13.234 6.00117 13.3594 5.69883 13.3594 5.39062C13.3594 5.08242 13.234 4.78008 13.016 4.56211Z" fill="#FF8E2B"/>
<path d="M8.32852 4.56211C8.11055 4.34414 7.8082 4.21875 7.5 4.21875C7.1918 4.21875 6.88945 4.34414 6.67148 4.56211C6.45352 4.78008 6.32812 5.08242 6.32812 5.39062C6.32812 5.69883 6.45352 6.00117 6.67148 6.21914C6.88945 6.43711 7.1918 6.5625 7.5 6.5625C7.8082 6.5625 8.11055 6.43711 8.32852 6.21914C8.54648 6.00117 8.67188 5.69883 8.67188 5.39062C8.67188 5.08242 8.54648 4.78008 8.32852 4.56211Z" fill="#FF8E2B"/>
<path d="M17.7035 4.56211C17.4855 4.34414 17.1844 4.21875 16.875 4.21875C16.5668 4.21875 16.2645 4.34414 16.0465 4.56211C15.8285 4.78008 15.7031 5.08242 15.7031 5.39062C15.7031 5.69883 15.8285 6.00117 16.0465 6.21914C16.2645 6.43711 16.5668 6.5625 16.875 6.5625C17.1832 6.5625 17.4855 6.43711 17.7035 6.21914C17.9215 6.00117 18.0469 5.69883 18.0469 5.39062C18.0469 5.08242 17.9215 4.78008 17.7035 4.56211Z" fill="#FF8E2B"/>
<path d="M46.766 40.4964C46.548 40.2773 46.2457 40.1531 45.9375 40.1531C45.6293 40.1531 45.327 40.2773 45.109 40.4964C44.891 40.7144 44.7656 41.0167 44.7656 41.325C44.7656 41.6332 44.891 41.9355 45.109 42.1535C45.327 42.3714 45.6293 42.4968 45.9375 42.4968C46.2457 42.4968 46.548 42.3714 46.766 42.1535C46.984 41.9355 47.1094 41.6332 47.1094 41.325C47.1094 41.0156 46.984 40.7144 46.766 40.4964Z" fill="#FF8E2B"/>
<path d="M49.6876 15.9304C47.3614 15.9304 45.4688 17.823 45.4688 20.1492C45.4688 21.0726 45.7676 21.9281 46.2739 22.6242L38.4891 30.4089C37.8856 30.0749 37.1907 29.8839 36.4524 29.8839C35.7879 29.8839 35.1575 30.0398 34.5985 30.314L26.4704 22.1859C26.8044 21.5824 26.9954 20.8875 26.9954 20.1492C26.9954 17.823 25.1028 15.9304 22.7766 15.9304C20.4504 15.9304 18.5579 17.823 18.5579 20.1492C18.5579 20.9625 18.7899 21.7218 19.1895 22.3664L12.2696 29.2863C11.6661 28.9523 10.9711 28.7613 10.234 28.7613C7.90787 28.7613 6.01529 30.6539 6.01529 32.98C6.01529 35.3062 7.90787 37.1988 10.234 37.1988C12.5602 37.1988 14.4528 35.3062 14.4528 32.98C14.4528 32.2417 14.2618 31.548 13.9278 30.9433L20.9309 23.9402C21.4887 24.2132 22.1157 24.3667 22.7778 24.3667C23.5161 24.3667 24.2098 24.1757 24.8133 23.8417L32.8618 31.8902C32.4645 32.5335 32.2348 33.2906 32.2348 34.1003C32.2348 36.4265 34.1274 38.3191 36.4536 38.3191C38.7797 38.3191 40.6723 36.4265 40.6723 34.1003C40.6723 33.3621 40.4813 32.6683 40.1473 32.0636L48.1407 24.0703C48.62 24.2601 49.1426 24.3656 49.6887 24.3656C52.0149 24.3656 53.9075 22.473 53.9075 20.1468C53.9063 17.823 52.0137 15.9304 49.6876 15.9304ZM10.2352 34.855C9.20162 34.855 8.36021 34.0136 8.36021 32.98C8.36021 31.9464 9.20162 31.105 10.2352 31.105C11.2688 31.105 12.1102 31.9464 12.1102 32.98C12.1102 34.0136 11.2688 34.855 10.2352 34.855ZM22.7778 22.0242C21.7442 22.0242 20.9028 21.1828 20.9028 20.1492C20.9028 19.1156 21.7442 18.2742 22.7778 18.2742C23.8114 18.2742 24.6528 19.1156 24.6528 20.1492C24.6528 21.1828 23.8114 22.0242 22.7778 22.0242ZM36.4536 35.9765C35.42 35.9765 34.5786 35.1351 34.5786 34.1015C34.5786 33.0679 35.42 32.2265 36.4536 32.2265C37.4872 32.2265 38.3286 33.0679 38.3286 34.1015C38.3286 35.1351 37.4872 35.9765 36.4536 35.9765ZM49.6876 22.0242C48.654 22.0242 47.8126 21.1828 47.8126 20.1492C47.8126 19.1156 48.654 18.2742 49.6876 18.2742C50.7211 18.2742 51.5626 19.1156 51.5626 20.1492C51.5626 21.1828 50.7211 22.0242 49.6876 22.0242Z" fill="#2A0D56"/>
<path d="M17.3824 15.1114C17.1633 14.8935 16.8621 14.7681 16.5539 14.7681C16.2445 14.7681 15.9422 14.8935 15.7242 15.1114C15.5062 15.3294 15.382 15.6317 15.382 15.9399C15.382 16.2481 15.5062 16.5505 15.7242 16.7685C15.9433 16.9864 16.2445 17.1118 16.5539 17.1118C16.8621 17.1118 17.1633 16.9864 17.3824 16.7685C17.6004 16.5505 17.7258 16.2481 17.7258 15.9399C17.7258 15.6317 17.6004 15.3294 17.3824 15.1114Z" fill="#FF8E2B"/>
<path d="M12.1875 14.7681H6.5625C5.91562 14.7681 5.39062 15.2931 5.39062 15.9399C5.39062 16.5868 5.91562 17.1118 6.5625 17.1118H12.1875C12.8344 17.1118 13.3594 16.5868 13.3594 15.9399C13.3594 15.2931 12.8344 14.7681 12.1875 14.7681Z" fill="#FF8E2B"/>
<path d="M12.1875 20.3931H6.5625C5.91562 20.3931 5.39062 20.9181 5.39062 21.5649C5.39062 22.2118 5.91562 22.7368 6.5625 22.7368H12.1875C12.8344 22.7368 13.3594 22.2118 13.3594 21.5649C13.3594 20.9181 12.8344 20.3931 12.1875 20.3931Z" fill="#FF8E2B"/>
</g>
<defs>
<clipPath id="clip0_1_2917">
<rect width="60" height="60" fill="white"/>
</clipPath>
</defs>
</svg>
