<svg width="22" height="16" viewBox="0 0 22 16" fill="none" xmlns="http://www.w3.org/2000/svg">
<path d="M1.31238 4.07405C1.31238 4.07405 1.3002 11.8103 1.31146 11.9463C1.46096 13.7715 3.11977 15.1335 5.01512 14.9896C5.01512 14.9896 11.8541 15.0034 11.9944 14.9975C13.899 14.9196 15.3776 13.3704 15.2967 11.5383C15.2967 11.5383 15.2998 4.2061 15.2895 4.07405C15.1421 2.24001 13.4781 0.868176 11.5736 1.01009C11.5736 1.01009 4.74377 0.997278 4.60144 1.00418" stroke="#4A2682" stroke-width="1.5" stroke-linecap="round" stroke-linejoin="round"/>
<path d="M15.2998 5.97984L18.5928 3.28484C19.4088 2.61684 20.6328 3.19884 20.6318 4.25184L20.6198 11.6008C20.6188 12.6538 19.3938 13.2308 18.5798 12.5628L15.2998 9.86784" stroke="#4A2682" stroke-width="1.5" stroke-linecap="round" stroke-linejoin="round"/>
</svg>
