<svg width="34" height="34" viewBox="0 0 34 34" fill="none" xmlns="http://www.w3.org/2000/svg">
<path fill-rule="evenodd" clip-rule="evenodd" d="M27.2001 11.0805C26.4495 11.4224 25.6435 11.6533 24.7961 11.7559C25.6601 11.225 26.3239 10.3841 26.637 9.38245C25.8278 9.87349 24.9325 10.2318 23.9792 10.4234C23.2153 9.58972 22.1275 9.0686 20.9229 9.0686C18.6114 9.0686 16.7386 10.9896 16.7386 13.3598C16.7386 13.6959 16.775 14.0241 16.8464 14.3379C13.3679 14.1588 10.2842 12.4503 8.21948 9.85387C7.85984 10.4881 7.65324 11.225 7.65324 12.0116C7.65324 13.501 8.39228 14.8139 9.51457 15.5842C8.82908 15.5613 8.18377 15.3691 7.61944 15.0474C7.6188 15.065 7.6188 15.084 7.6188 15.101C7.6188 17.1809 9.06119 18.9155 10.9761 19.3098C10.6254 19.4072 10.2555 19.4602 9.87357 19.4602C9.6032 19.4602 9.34176 19.4334 9.0867 19.3837C9.6185 21.0876 11.1648 22.3286 12.9955 22.3639C11.564 23.5147 9.75943 24.2019 7.79862 24.2019C7.46066 24.2019 7.12717 24.1816 6.80005 24.1417C8.65181 25.3579 10.8517 26.0686 13.2155 26.0686C20.9134 26.0686 25.1238 19.5295 25.1238 13.858C25.1238 13.6723 25.1187 13.4866 25.1111 13.3023C25.9292 12.6974 26.6383 11.9423 27.2001 11.0805Z" fill="#4A2682"/>
<mask id="mask0_4071_504" style="mask-type:luminance" maskUnits="userSpaceOnUse" x="6" y="9" width="22" height="18">
<path fill-rule="evenodd" clip-rule="evenodd" d="M27.2001 11.0805C26.4495 11.4224 25.6435 11.6533 24.7961 11.7559C25.6601 11.225 26.3239 10.3841 26.637 9.38245C25.8278 9.87349 24.9325 10.2318 23.9792 10.4234C23.2153 9.58972 22.1275 9.0686 20.9229 9.0686C18.6114 9.0686 16.7386 10.9896 16.7386 13.3598C16.7386 13.6959 16.775 14.0241 16.8464 14.3379C13.3679 14.1588 10.2842 12.4503 8.21948 9.85387C7.85984 10.4881 7.65324 11.225 7.65324 12.0116C7.65324 13.501 8.39228 14.8139 9.51457 15.5842C8.82908 15.5613 8.18377 15.3691 7.61944 15.0474C7.6188 15.065 7.6188 15.084 7.6188 15.101C7.6188 17.1809 9.06119 18.9155 10.9761 19.3098C10.6254 19.4072 10.2555 19.4602 9.87357 19.4602C9.6032 19.4602 9.34176 19.4334 9.0867 19.3837C9.6185 21.0876 11.1648 22.3286 12.9955 22.3639C11.564 23.5147 9.75943 24.2019 7.79862 24.2019C7.46066 24.2019 7.12717 24.1816 6.80005 24.1417C8.65181 25.3579 10.8517 26.0686 13.2155 26.0686C20.9134 26.0686 25.1238 19.5295 25.1238 13.858C25.1238 13.6723 25.1187 13.4866 25.1111 13.3023C25.9292 12.6974 26.6383 11.9423 27.2001 11.0805Z" fill="white"/>
</mask>
<g mask="url(#mask0_4071_504)">
</g>
</svg>
