<svg width="34" height="34" viewBox="0 0 34 34" fill="none" xmlns="http://www.w3.org/2000/svg">
<path fill-rule="evenodd" clip-rule="evenodd" d="M27.1998 11.0785C26.4493 11.4205 25.6433 11.6513 24.7958 11.754C25.6599 11.223 26.3237 10.3822 26.6368 9.3805C25.8276 9.87153 24.9323 10.2298 23.979 10.4214C23.2151 9.58777 22.1272 9.06665 20.9227 9.06665C18.6112 9.06665 16.7384 10.9877 16.7384 13.3578C16.7384 13.6939 16.7747 14.0222 16.8461 14.336C13.3677 14.1568 10.284 12.4483 8.21923 9.85192C7.85959 10.4862 7.65299 11.223 7.65299 12.0096C7.65299 13.4991 8.39204 14.812 9.51432 15.5822C8.82884 15.5593 8.18353 15.3671 7.6192 15.0454C7.61856 15.0631 7.61856 15.082 7.61856 15.099C7.61856 17.1789 9.06095 18.9136 10.9758 19.3078C10.6251 19.4053 10.2553 19.4582 9.87332 19.4582C9.60296 19.4582 9.34152 19.4314 9.08645 19.3817C9.61826 21.0856 11.1646 22.3266 12.9953 22.362C11.5638 23.5127 9.75918 24.1999 7.79838 24.1999C7.46042 24.1999 7.12692 24.1796 6.7998 24.1398C8.65157 25.3559 10.8515 26.0666 13.2153 26.0666C20.9131 26.0666 25.1236 19.5275 25.1236 13.8561C25.1236 13.6704 25.1185 13.4847 25.1108 13.3003C25.929 12.6955 26.638 11.9403 27.1998 11.0785Z" fill="white"/>
<mask id="mask0_1_2382" style="mask-type:luminance" maskUnits="userSpaceOnUse" x="6" y="9" width="22" height="18">
<path fill-rule="evenodd" clip-rule="evenodd" d="M27.1998 11.0785C26.4493 11.4205 25.6433 11.6513 24.7958 11.754C25.6599 11.223 26.3237 10.3822 26.6368 9.3805C25.8276 9.87153 24.9323 10.2298 23.979 10.4214C23.2151 9.58777 22.1272 9.06665 20.9227 9.06665C18.6112 9.06665 16.7384 10.9877 16.7384 13.3578C16.7384 13.6939 16.7747 14.0222 16.8461 14.336C13.3677 14.1568 10.284 12.4483 8.21923 9.85192C7.85959 10.4862 7.65299 11.223 7.65299 12.0096C7.65299 13.4991 8.39204 14.812 9.51432 15.5822C8.82884 15.5593 8.18353 15.3671 7.6192 15.0454C7.61856 15.0631 7.61856 15.082 7.61856 15.099C7.61856 17.1789 9.06095 18.9136 10.9758 19.3078C10.6251 19.4053 10.2553 19.4582 9.87332 19.4582C9.60296 19.4582 9.34152 19.4314 9.08645 19.3817C9.61826 21.0856 11.1646 22.3266 12.9953 22.362C11.5638 23.5127 9.75918 24.1999 7.79838 24.1999C7.46042 24.1999 7.12692 24.1796 6.7998 24.1398C8.65157 25.3559 10.8515 26.0666 13.2153 26.0666C20.9131 26.0666 25.1236 19.5275 25.1236 13.8561C25.1236 13.6704 25.1185 13.4847 25.1108 13.3003C25.929 12.6955 26.638 11.9403 27.1998 11.0785Z" fill="white"/>
</mask>
<g mask="url(#mask0_1_2382)">
</g>
</svg>
