<svg width="48" height="30" viewBox="0 0 48 30" fill="none" xmlns="http://www.w3.org/2000/svg">
<rect y="0.00195312" width="48" height="30" rx="4" fill="#0066B2"/>
<path fill-rule="evenodd" clip-rule="evenodd" d="M37.6978 18.51C37.6978 18.2464 37.9115 18.0327 38.1751 18.0327C38.4391 18.0327 38.6525 18.2464 38.6525 18.51C38.6525 18.7733 38.4391 18.9872 38.1751 18.9872C37.9115 18.9872 37.6978 18.7733 37.6978 18.51ZM38.1751 18.8723C38.376 18.8723 38.5382 18.7101 38.5382 18.51C38.5382 18.3092 38.376 18.1474 38.1751 18.1474C37.9751 18.1474 37.8127 18.3092 37.8127 18.51C37.8127 18.7101 37.9751 18.8723 38.1751 18.8723ZM38.1109 18.7192H38.0132V18.3001H38.1903C38.2272 18.3001 38.2646 18.3005 38.2973 18.3211C38.3312 18.3449 38.3503 18.3843 38.3503 18.4259C38.3503 18.4738 38.323 18.5181 38.2781 18.5345L38.3548 18.7192H38.2461L38.1826 18.5532H38.1109V18.7192ZM38.1109 18.4815H38.1646C38.1849 18.4815 38.2067 18.4833 38.2244 18.4738C38.2405 18.4633 38.2489 18.4436 38.2489 18.425C38.2489 18.4096 38.2391 18.3909 38.2253 18.3827C38.2081 18.3727 38.1809 18.3748 38.1627 18.3748H38.1109V18.4815Z" fill="white"/>
<path fill-rule="evenodd" clip-rule="evenodd" d="M35.3414 19.017H37.4602L35.613 10.2112H33.7581C32.9013 10.2112 32.6923 10.8671 32.6923 10.8671L29.2512 19.017H31.6563L32.1372 17.7092H35.071L35.3414 19.017ZM32.8023 15.9024L34.0146 12.6063L34.697 15.9024H32.8023Z" fill="white"/>
<path fill-rule="evenodd" clip-rule="evenodd" d="M29.4312 12.3287L29.7607 10.4376C29.7607 10.4376 28.7443 10.0537 27.6852 10.0537C26.5399 10.0537 23.8204 10.551 23.8204 12.9689C23.8204 15.2442 27.0126 15.2727 27.0126 16.4667C27.0126 17.6614 24.1496 17.4481 23.2043 16.6945L22.8616 18.6713C22.8616 18.6713 23.8916 19.1689 25.4666 19.1689C27.0408 19.1689 29.4173 18.3585 29.4173 16.1542C29.4173 13.8647 26.1965 13.651 26.1965 12.6557C26.1965 11.66 28.4441 11.788 29.4312 12.3287Z" fill="white"/>
<path fill-rule="evenodd" clip-rule="evenodd" d="M21.4396 19.017H19.1321L20.5741 10.2112H22.8824L21.4396 19.017Z" fill="white"/>
<path fill-rule="evenodd" clip-rule="evenodd" d="M14.9908 16.2679L17.1906 10.2112H19.6744L16.0028 19.017H13.5985L11.5941 11.3666C10.2922 10.5898 9.18006 10.3601 9.17969 10.3601C9.18006 10.3601 10.9283 10.7201 12.605 12.0682C14.2082 13.3576 14.7302 14.9639 14.7302 14.9639V14.9636L14.9908 16.2679Z" fill="white"/>
<path fill-rule="evenodd" clip-rule="evenodd" d="M14.7302 14.9639L13.9536 11.0041C13.9536 11.0041 13.8602 10.2112 12.8592 10.2112H9.22224L9.17969 10.3601C9.18006 10.3601 10.9283 10.7201 12.605 12.0682C14.2082 13.3576 14.7302 14.9639 14.7302 14.9639Z" fill="#F9A533"/>
</svg>
