<svg width="23" height="23" viewBox="0 0 23 23" fill="none" xmlns="http://www.w3.org/2000/svg">
<g clip-path="url(#clip0_4071_507)">
<path d="M19.6011 3.34189C17.4383 1.18924 14.5614 0.00330078 11.4993 0.00195312C8.44441 0.00195312 5.56261 1.18699 3.38586 3.3392C1.20506 5.495 0.00269789 8.35967 0 11.3955V11.3991V11.4013C0.000449649 13.2386 0.483373 15.0921 1.40066 16.7843L0.0314754 23.002L6.32701 21.5712C7.92147 22.3739 9.70073 22.7971 11.4948 22.798H11.4993C14.5538 22.798 17.4356 21.6125 19.6128 19.4603C21.7954 17.3027 22.9982 14.4416 22.9996 11.404C23.0009 8.38797 21.794 5.52465 19.6011 3.34189ZM11.4993 21.0029H11.4953C9.88419 21.002 8.28748 20.5982 6.87873 19.8341L6.58106 19.6728L2.39483 20.6242L3.30402 16.4955L3.12866 16.1936C2.25724 14.6914 1.7968 13.0342 1.7968 11.3991C1.79995 6.10729 6.1521 1.79703 11.4989 1.79703C14.0821 1.79793 16.5089 2.79834 18.3326 4.61363C20.1843 6.45678 21.2032 8.86818 21.2023 11.4036C21.201 16.6967 16.8479 21.0029 11.4993 21.0029Z" fill="#4A2682"/>
<path d="M8.37029 6.37476H7.86623C7.69087 6.37476 7.40579 6.44034 7.16478 6.70224C6.92377 6.96458 6.2439 7.59798 6.2439 8.88679C6.2439 10.1756 7.18636 11.4208 7.31811 11.5956C7.44986 11.7703 9.13784 14.4993 11.8115 15.5492C14.0336 16.4215 14.486 16.2481 14.968 16.2046C15.4505 16.161 16.5242 15.5712 16.7437 14.9598C16.9631 14.3484 16.9631 13.8237 16.897 13.7145C16.8313 13.6054 16.6555 13.5398 16.3929 13.4091C16.1299 13.2779 14.8407 12.6337 14.5993 12.5461C14.3583 12.459 14.1829 12.4154 14.0075 12.6777C13.8322 12.9396 13.3155 13.5452 13.1622 13.7199C13.0089 13.8947 12.8555 13.9167 12.592 13.7855C12.329 13.6539 11.4904 13.3727 10.4854 12.4805C9.7035 11.786 9.16077 10.9006 9.00699 10.6387C8.85366 10.3768 8.9908 10.2349 9.12255 10.1042C9.24081 9.98692 9.40043 9.82655 9.53218 9.67382C9.66348 9.52063 9.7008 9.41147 9.78893 9.23673C9.87661 9.06198 9.83255 8.9088 9.7669 8.77808C9.70125 8.6469 9.19629 7.35181 8.96248 6.83386C8.76508 6.39722 8.55779 6.38284 8.37029 6.37476Z" fill="#4A2682"/>
</g>
<defs>
<clipPath id="clip0_4071_507">
<rect width="23" height="23" fill="white" transform="translate(0 0.00195312)"/>
</clipPath>
</defs>
</svg>
