<svg width="20" height="20" viewBox="0 0 20 20" fill="none" xmlns="http://www.w3.org/2000/svg">
<g clip-path="url(#clip0_1_2368)">
<path d="M16.2879 3.25957C14.5012 1.48129 12.1247 0.501602 9.59515 0.500488C7.07152 0.500488 4.6909 1.47943 2.89272 3.25734C1.09119 5.03822 0.0979318 7.40469 0.0957031 9.91254V9.91551V9.91736C0.0960746 11.4351 0.495011 12.9663 1.25277 14.3642L0.121705 19.5005L5.32237 18.3186C6.63952 18.9817 8.10935 19.3313 9.59143 19.332H9.59515C12.1184 19.332 14.499 18.3527 16.2976 16.5748C18.1006 14.7924 19.0942 12.4289 19.0953 9.91959C19.0964 7.42807 18.0995 5.06271 16.2879 3.25957ZM9.59515 17.8491H9.5918C8.2609 17.8484 6.94188 17.5148 5.77813 16.8835L5.53223 16.7503L2.07404 17.5363L2.82511 14.1256L2.68025 13.8762C1.96038 12.6353 1.58001 11.2663 1.58001 9.91551C1.58261 5.54402 5.17787 1.98338 9.59478 1.98338C11.7288 1.98412 13.7335 2.81055 15.2401 4.31014C16.7697 5.83273 17.6114 7.82477 17.6106 9.91922C17.6095 14.2918 14.0135 17.8491 9.59515 17.8491Z" fill="white"/>
<path d="M7.01 5.76489H6.59361C6.44874 5.76489 6.21324 5.81907 6.01415 6.03542C5.81505 6.25214 5.25342 6.77538 5.25342 7.84005C5.25342 8.90472 6.03198 9.93339 6.14081 10.0777C6.24964 10.2221 7.64406 12.4765 9.8527 13.3437C11.6884 14.0644 12.0621 13.9212 12.4603 13.8852C12.8588 13.8492 13.7459 13.3619 13.9271 12.8569C14.1084 12.3518 14.1084 11.9184 14.0538 11.8282C13.9996 11.738 13.8543 11.6838 13.6374 11.5758C13.4201 11.4675 12.3552 10.9353 12.1557 10.863C11.9566 10.791 11.8117 10.755 11.6669 10.9717C11.522 11.1881 11.0952 11.6883 10.9685 11.8326C10.8419 11.977 10.7152 11.9952 10.4975 11.8868C10.2802 11.7781 9.58749 11.5458 8.7573 10.8088C8.11135 10.2351 7.66301 9.50366 7.53597 9.28731C7.40931 9.07097 7.5226 8.9537 7.63144 8.84571C7.72913 8.74886 7.86099 8.61638 7.96983 8.4902C8.07829 8.36366 8.10912 8.27349 8.18192 8.12913C8.25436 7.98478 8.21795 7.85823 8.16372 7.75024C8.10949 7.64188 7.69235 6.57202 7.4992 6.14415C7.33613 5.78345 7.1649 5.77157 7.01 5.76489Z" fill="white"/>
</g>
<defs>
<clipPath id="clip0_1_2368">
<rect width="19" height="19" fill="white" transform="translate(0.0957031 0.500488)"/>
</clipPath>
</defs>
</svg>
